<?xml version="1.0" standalone="no"?>
<!DOCTYPE svg PUBLIC "-//W3C//DTD SVG 1.1//EN" "http://www.w3.org/Graphics/SVG/1.1/DTD/svg11.dtd" >
<svg>
<metadata>
Created by FontForge 20090914 at Mon Sep 18 09:58:21 2017
 By www-data
Created by MyScriptFont.com
</metadata>
<defs>
<font id="ShrimpFriedRiceNo1" horiz-adv-x="348" >
  <font-face 
    font-family="ShrimpFriedRiceNo1"
    font-weight="500"
    font-stretch="normal"
    units-per-em="1000"
    panose-1="2 0 6 3 0 0 0 0 0 0"
    ascent="800"
    descent="-200"
    x-height="348.998"
    cap-height="491.001"
    bbox="8.75769 -134.236 633.227 666"
    underline-thickness="50"
    underline-position="-100"
    unicode-range="U+0020-U+20AC"
  />
<missing-glyph horiz-adv-x="364" 
d="M33 0v666h265v-666h-265zM66 33h199v600h-199v-600z" />
    <glyph glyph-name=".notdef" horiz-adv-x="364" 
d="M33 0v666h265v-666h-265zM66 33h199v600h-199v-600z" />
    <glyph glyph-name="space" unicode=" " horiz-adv-x="420" 
 />
    <glyph glyph-name="exclam" unicode="!" horiz-adv-x="154" 
d="M71 99c35.333 6 53.6641 4.66699 54.9971 -4c0 -3.33301 -2 -8.66602 -6 -15.999c-4 -8 -5.5 -13.5 -4.5 -16.5s5.16699 -7.16699 12.5 -12.5l16 -12l-18 -7c-13.333 -5.33301 -33.666 -9 -60.999 -11s-43.666 -1 -48.999 3c-4.66699 2 -6.66699 4.83301 -6 8.5
s2.5 6.66699 5.5 9s6 6.5 9 12.5s3.83301 13 2.5 21c-0.666992 8.66699 0.833008 14.167 4.5 16.5s16.834 5.16602 39.501 8.49902zM17.998 489c4 6 13.498 8.66797 28.498 8.00098s30.333 -2.5 46 -5.5s25.167 -5.5 28.5 -7.5l14 -8l-16 -17
c-8 -8.66699 -12.667 -19.834 -14 -33.501s-2.33301 -55.167 -3 -124.5c-1.33301 -93.333 0.666992 -143 6 -149c7.33301 -9.33301 1 -16 -19 -20c-8 -2 -17 -3 -27 -3c-14 0 -22 0.833008 -24 2.5s-1.66699 6.83398 1 15.501c3.33301 12 5 50 5 114
c-0.666992 91.333 -1.66699 146 -3 164s-5.66602 31 -12.999 39c-9.33301 9.33301 -12.666 17.666 -9.99902 24.999z" />
    <glyph glyph-name="numbersign" unicode="#" horiz-adv-x="379" 
d="M250 506c2 3.33301 5 4.32812 9 2.99512s17 -7.66602 39 -18.999c26.667 -14.667 40 -24.667 40 -30c0 -4 -5.33301 -16.333 -16 -37s-19 -34.667 -25 -42c-4 -5.33301 -2.33301 -15 5 -29l11 -21l14 18c8.66699 10.667 15.334 14.334 20.001 11.001
s10.334 -15.333 17.001 -36c6 -18 6.16699 -28.5 0.5 -31.5s-19.5 0.5 -41.5 10.5c-0.666992 0 -1.66699 0.333008 -3 1c-19.333 8.66699 -30.833 11.334 -34.5 8.00098s-6.83398 -18.666 -9.50098 -45.999c-2 -19.333 -4 -35.333 -6 -48c-0.666992 -9.33301 4 -13 14 -11
c8 1.33301 20 6 36 14c15.333 7.33301 24.833 8.83301 28.5 4.5s2.16699 -14.5 -4.5 -30.5c-6 -14.667 -12 -23.667 -18 -27s-14.667 -2.66602 -26 2.00098c-17.333 6 -28.166 5 -32.499 -3s-4.83301 -27.333 -1.5 -58c3.33301 -32.667 6.66602 -52.667 9.99902 -60
c2.66699 -7.33301 -0.833008 -13.166 -10.5 -17.499s-26.834 -8.16602 -51.501 -11.499c-22 -2.66699 -34.167 -0.833984 -36.5 5.49902s1.16699 18.166 10.5 35.499c6.66699 14.667 11.667 26.334 15 35.001c5.33301 14 11.166 27.667 17.499 41l13.5 28.5
c2.66699 5.66699 3.66699 9.16699 3 10.5c-2 1.33301 -21.333 2 -58 2c-25.333 -0.666992 -40.666 -1.66699 -45.999 -3s-7.66602 -5 -6.99902 -11c2.66699 -18 5.5 -47.667 8.5 -89s3.83301 -62.666 2.5 -63.999c-2 -2 -13.5 0.333008 -34.5 7s-36.5 13 -46.5 19l-20 12
l16 34c10.667 22 16 35 16 39c0 2.66699 3 6.66699 9 12l17 15c5.33301 4.66699 7.33301 7.33398 6 8.00098c-13.333 9.33301 -24.166 14.5 -32.499 15.5s-13.666 -0.333008 -15.999 -4s-5.33301 -5.33398 -9 -5.00098s-8.5 4.16602 -14.5 11.499
c-17.333 22.667 -22.666 40 -15.999 52c2.66699 5.33301 6.66699 6 12 2c6 -4.66699 19.667 -10.334 41 -17.001s33.666 -9 36.999 -7c2 1.33301 3.5 5.5 4.5 12.5s1.83301 17.167 2.5 30.5s2 25.666 4 36.999c4 18.667 4.5 28.834 1.5 30.501s-16.167 -1.5 -39.5 -9.5
c-22.667 -7.33301 -36.667 -9.16602 -42 -5.49902s-3.33301 14.167 6 31.5c3.33301 6 6.16602 10.5 8.49902 13.5s5.16602 5.16699 8.49902 6.5s6.16602 1.83301 8.49902 1.5s7 -0.833008 14 -1.5s13.5 -1.33398 19.5 -2.00098l19 -1v68v14c0 28 1.66699 44.5 5 49.5
s15 8.83301 35 11.5c4.66699 0 8 0.333008 10 1c18.667 2.66699 29.5 1.5 32.5 -3.5s0.166992 -16.5 -8.5 -34.5c-10 -21.333 -19.167 -43.666 -27.5 -66.999s-11.5 -36 -9.5 -38s20.667 -3.66699 56 -5c26 -0.666992 41.167 -0.333984 45.5 0.999023s5.83301 6 4.5 14
c-10 92 -13.333 140.667 -10 146zM297 441.995c2 14 -0.333008 23 -7 27c-3.33301 2 -6.33301 -0.333008 -9 -7c-1.33301 -4.66699 -2 -10.167 -2 -16.5s1 -11.833 3 -16.5s4 -6.66699 6 -6c4.66699 0.666992 7.66699 7 9 19zM160 452.995c0 3.33301 -2 5 -6 5
c-4.66699 0 -8 -2.16699 -10 -6.5s-1.33301 -7.5 2 -9.5s6.5 -1.83301 9.5 0.5s4.5 5.83301 4.5 10.5zM247 273.995l2 36.0039l-50 2c-34 1.33301 -52 0.166016 -54 -3.50098s-4 -20.834 -6 -51.501l-2 -46l48 -2c22 -0.666992 35.667 -0.333984 41 0.999023
s9.33301 5.66602 12 12.999c4 10.667 7 27.667 9 51zM110 80.999c-2.66699 16 -5.16895 24.667 -7.50195 26s-7.83301 -2.66699 -16.5 -12c-7.33301 -8 -10.666 -16.667 -9.99902 -26s5.33398 -16.666 14.001 -21.999c14 -8.66699 21 -2.33398 21 18.999
c0 4.66699 -0.333008 9.66699 -1 15zM243.998 71.999c1.33301 11.333 0.000976562 16.999 -3.99902 16.999c-4.66699 0 -9.33398 -3 -14.001 -9s-7 -12.333 -7 -19c0 -9.33301 3.66699 -12.666 11 -9.99902c8 2.66699 12.667 9.66699 14 21z" />
    <glyph glyph-name="dollar" unicode="$" horiz-adv-x="400" 
d="M145 -25c8.66699 6.66699 16.832 9.33301 24.499 8s15.167 -3.83301 22.5 -7.5s20 -3.16699 38 1.5c20.667 5.33301 35.334 4.33301 44.001 -3c4 -3.33301 4 -7.33301 0 -12c-5.33301 -5.33301 -25.5 -8.5 -60.5 -9.5s-57.167 0.833008 -66.5 5.5
c-6.66699 4 -10.167 6.83301 -10.5 8.5s2.5 4.5 8.5 8.5zM122.998 491.999c23.333 8.66699 51.3379 11.6689 84.0049 9.00195c32.667 -2 59 -8.33301 79 -19s37.667 -27.667 53 -51c8.66699 -12.667 15.334 -23 20.001 -31s7.66699 -14.833 9 -20.5
s1.33301 -9.83398 0 -12.501s-4.33301 -4.66699 -9 -6c-6 -1.33301 -11.5 -5.5 -16.5 -12.5s-8.66699 -12.833 -11 -17.5s-5.66602 -5.33398 -9.99902 -2.00098s-9.83301 12.666 -16.5 27.999c-12 28.667 -21.333 47 -28 55s-18.334 15 -35.001 21
c-30 10 -57.167 12.833 -81.5 8.5s-43.5 -15.5 -57.5 -33.5c-10 -12.667 -13.667 -25.334 -11 -38.001c3.33301 -14 7.83301 -23.667 13.5 -29s17.834 -11.333 36.501 -18c24 -7.33301 38.167 -9.16602 42.5 -5.49902s4.83301 18.5 1.5 44.5
c-2.66699 18.667 -3.83398 31.334 -3.50098 38.001s2.83301 12 7.5 16c6 6.66699 13.667 7.66699 23 3c6 -3.33301 9.83301 -8.66602 11.5 -15.999s2.83398 -23.666 3.50098 -48.999l2 -57l45 -12c37.333 -10 64.833 -23.667 82.5 -41s28.167 -41.333 31.5 -72
c3.33301 -29.333 -0.833984 -55.5 -12.501 -78.5s-28 -40.5 -49 -52.5s-44.833 -20.5 -71.5 -25.5s-52.834 -6 -78.501 -3s-49.834 10 -72.501 21s-39.667 24.833 -51 41.5c-7.33301 10.667 -16.5 30.334 -27.5 59.001s-16.5 47.667 -16.5 57c0 5.33301 10.667 8 32 8
c14.667 0 24 -1 28 -3s8 -7.66699 12 -17c6 -13.333 9.33301 -25.666 10 -36.999c0.666992 -24.667 14.167 -43.834 40.5 -57.501s56.333 -19.334 90 -17.001s60.5 12.166 80.5 29.499c10 8.66699 16.333 16 19 22s4 16 4 30c0 16 -1.5 26.5 -4.5 31.5
s-12.167 12.833 -27.5 23.5c-36 26 -58.667 34.667 -68 26c-2.66699 -2.66699 -1.83398 -24.834 2.49902 -66.501s4.83301 -63.834 1.5 -66.501c-4 -4 -13.333 -5 -28 -3l-22 4l4 70c1.33301 15.333 2.16602 26.5 2.49902 33.5s0.166016 14.5 -0.500977 22.5
s-1.66699 13.167 -3 15.5s-4 5 -8 8s-7.83301 4.83301 -11.5 5.5s-9.83398 2 -18.501 4c-40.667 7.33301 -71.667 25.333 -93 54c-12 14.667 -18.333 32.834 -19 54.501s4.33301 42.5 15 62.5c8.66699 18 18.167 31.333 28.5 40s25.833 16.667 46.5 24zM148.003 547.001
c0 4 3.5 6.66699 10.5 8s21.5 2 43.5 2c46 0 69 -4.33301 69 -13c0 -2.66699 -2.66699 -6.33398 -8 -11.001c-4 -3.33301 -8 -5.16602 -12 -5.49902s-7.83301 0 -11.5 1s-9.66699 2.16699 -18 3.5s-17.5 2 -27.5 2c-21.333 0.666992 -34.333 1.5 -39 2.5s-7 4.5 -7 10.5z
" />
    <glyph glyph-name="percent" unicode="%" horiz-adv-x="598" 
d="M455 334c22 6 44 3 66 -9s39 -30.667 51 -56c6.66699 -13.333 11 -26 13 -38s3 -32.333 3 -61v-67l-27 -38c-16 -22 -31 -37.667 -45 -47s-32 -15.333 -54 -18c-21.333 -2 -41.666 2 -60.999 12c-20 10.667 -32.833 24.834 -38.5 42.501s-7.83398 49.167 -6.50098 94.5
c0.666992 30 2.16699 51.167 4.5 63.5s7.5 26.833 15.5 43.5c10 19.333 22.167 36.166 36.5 50.499s28.5 23.5 42.5 27.5zM499 265c-12 6 -24.665 8.66797 -37.998 8.00098s-23 -4.33398 -29 -11.001s-11.667 -20.334 -17 -41.001s-8 -39 -8 -55
c0 -12.667 3.83301 -27.834 11.5 -45.501s15.5 -30.167 23.5 -37.5c9.33301 -7.33301 12.666 -14.666 9.99902 -21.999c-0.666992 -2.66699 -2.33398 -4 -5.00098 -4s-6 1.33301 -10 4s-7.83301 5.83398 -11.5 9.50098s-7.66699 7 -12 10s-7.83301 4.66699 -10.5 5
s-4.66699 -1.16699 -6 -4.5c-6 -15.333 -2.66699 -27.166 10 -35.499s29.667 -9.83301 51 -4.5c16 4 33.333 17.667 52 41c14 16.667 22.333 28.667 25 36s4 22.666 4 45.999c0 54 -13.333 87.667 -40 101zM397.002 491.001c9.33301 0 24.9971 -7.66797 46.9971 -23.001
s34 -23 36 -23c8 0 9.66699 -3.66699 5 -11c-4 -6 -9.66699 -9.66699 -17 -11c-9.33301 -2 -21.166 -10 -35.499 -24s-29.166 -32 -44.499 -54s-29.166 -42.833 -41.499 -62.5l-38.5 -63l-25 -41.5c-16 -24 -30.667 -51.833 -44 -83.5s-20 -54.167 -20 -67.5
s-3.66699 -20.666 -11 -21.999c-6 -1.33301 -25.833 6.16699 -59.5 22.5s-50.5 26.5 -50.5 30.5c0 2.66699 6.33301 6.66699 19 12s34.334 24 65.001 56s52 58.333 64 79c1.33301 2 10.666 17.5 27.999 46.5l47 80c14 24.333 27.5 50.333 40.5 78s19.5 47.167 19.5 58.5
c0 10 0.833008 16.333 2.5 19s6.16699 4 13.5 4zM194.999 67c-1.33301 8 -4.5 12.668 -9.5 14.001s-10.167 -1.33398 -15.5 -8.00098c-3.33301 -4 -4.83301 -7.5 -4.5 -10.5s2.83301 -6.83301 7.5 -11.5c6 -6 11.667 -7.16699 17 -3.5s7 10.167 5 19.5zM68.999 470.001
c11.333 9.33301 20.668 15.166 28.001 17.499s19.333 3.5 36 3.5c39.333 0 66.833 -11.833 82.5 -35.5s23.5 -63.5 23.5 -119.5c0 -26 -1.16699 -44.833 -3.5 -56.5s-7.5 -25.167 -15.5 -40.5c-20 -41.333 -48 -67.333 -84 -78c-11.333 -4 -20 -5.66699 -26 -5
s-14.333 3.66699 -25 9c-26 14 -44.833 33.333 -56.5 58s-17.834 58 -18.501 100c0 26 1 44.333 3 55s6.66699 23.334 14 38.001c11.333 22.667 25.333 40.667 42 54zM177.001 441.001c0 6.66699 -3.5 9.99902 -10.5 9.99902s-9.83301 -2.66699 -8.5 -8
c3.33301 -8 8 -11.333 14 -10c3.33301 0.666992 5 3.33398 5 8.00098zM144.001 423c-14.667 10 -25.001 15.001 -31.001 15.001s-16.667 -10.333 -32 -31c-10 -14.667 -16.333 -26 -19 -34s-4 -22.333 -4 -43c0 -31.333 4.66699 -56.666 14 -75.999s22 -30.666 38 -33.999
c25.333 -4.66699 43.833 0.166016 55.5 14.499s18.834 40.166 21.501 77.499c2 29.333 -0.166992 52.166 -6.5 68.499s-18.5 30.5 -36.5 42.5z" />
    <glyph glyph-name="ampersand" unicode="&#x26;" horiz-adv-x="421" 
d="M336 57c8 0 21.667 6.49707 41 19.4971s29.666 19.5 30.999 19.5c3.33301 0 4.33301 -9.33301 3 -28c-1.33301 -14 -3.83301 -23.333 -7.5 -28s-12 -10.667 -25 -18s-25.5 -16.666 -37.5 -27.999c-10 -9.33301 -16.5 -14.166 -19.5 -14.499s-8.83301 2.16699 -17.5 7.5
c-10.667 6.66699 -16 14.334 -16 23.001c0 8 5.83301 17.833 17.5 29.5s21.834 17.5 30.501 17.5zM119 427.997c10 10.667 18.1719 17.1602 24.5049 19.4932s18.833 3.5 37.5 3.5c16 0 27.833 -1 35.5 -3s15.5 -6.33301 23.5 -13c20 -16.667 28.5 -39 25.5 -67
s-16.833 -52.667 -41.5 -74c-18.667 -17.333 -28 -28.333 -28 -33c0 -3.33301 5 -17.166 15 -41.499s18 -42.166 24 -53.499c4.66699 -7.33301 7 -17.333 7 -30s2.33301 -19.167 7 -19.5s13 5.5 25 17.5c9.33301 9.33301 15.833 22.5 19.5 39.5s6.16699 31.333 7.5 43
s4.66602 17.5 9.99902 17.5c4.66699 0 9.5 -3.66699 14.5 -11s11.5 -12.666 19.5 -15.999c6 -2 9.66699 -4.66699 11 -8s1.33301 -8.66602 0 -15.999c-4 -16.667 -11.833 -35.834 -23.5 -57.501s-21.834 -36.167 -30.501 -43.5c-12 -9.33301 -18 -19.666 -18 -30.999
c0 -26 -36.667 -41.333 -110 -46c-26 -1.33301 -43.833 -1.16602 -53.5 0.500977s-23.167 6.5 -40.5 14.5c-25.333 12.667 -43.333 27.5 -54 44.5s-16 39.833 -16 68.5c0 18.667 1.16699 32.167 3.5 40.5s7.5 18.5 15.5 30.5c6.66699 10 14.5 19 23.5 27
s17.167 14.333 24.5 19s14.166 9.5 20.499 14.5s11.166 9.83301 14.499 14.5s4.66602 10.667 3.99902 18s-3.66699 16.333 -9 27c-6.66699 12.667 -10 29.334 -10 50.001c0 12.667 1.33301 22.334 4 29.001s8.66699 15 18 25zM211.005 373.99l1.00195 28.001l-28 2
c-18.667 1.33301 -29.334 -1.66699 -32.001 -9c-3.33301 -8 -3.33301 -20.833 0 -38.5s7.66602 -29.5 12.999 -35.5c4.66699 -4.66699 8.5 -6.66699 11.5 -6s8.5 5 16.5 13c12 11.333 18 26.666 18 45.999zM163.007 184.991c-12 30.667 -21.334 46.668 -28.001 48.001
s-17 -6.5 -31 -23.5s-23 -32.833 -27 -47.5c-5.33301 -20 -7 -35.833 -5 -47.5s8.66699 -23.834 20 -36.501c10 -10.667 18.333 -17.5 25 -20.5s19 -5.16699 37 -6.5c33.333 -2.66699 59.666 3 78.999 17c14 9.33301 13 17 -3 23l-8 2
c-11.333 2.66699 -20.666 9.5 -27.999 20.5s-17.666 34.833 -30.999 71.5z" />
    <glyph glyph-name="quotesingle" unicode="'" horiz-adv-x="143" 
d="M31 499c14 1.33301 31 0.999023 51 -1.00098s34 -5 42 -9c4.66699 -2 7.33398 -3.83301 8.00098 -5.5s0.166992 -3.5 -1.5 -5.5s-5.5 -5.33301 -11.5 -10c-8.66699 -7.33301 -13.5 -13 -14.5 -17s0.333008 -13.333 4 -28s4.83398 -24.834 3.50098 -30.501
s-7 -16.5 -17 -32.5c-11.333 -17.333 -20.833 -27.666 -28.5 -30.999s-16.834 -1 -27.501 7c-6 4 -8.66699 7.5 -8 10.5s6.33398 10.167 17.001 21.5c29.333 33.333 28.666 50 -2.00098 50c-12.667 0 -20 1.83301 -22 5.5s0.333008 10.834 7 21.501
c3.33301 6 4.66602 10.5 3.99902 13.5s-4 6.5 -10 10.5c-11.333 7.33301 -16.333 13.833 -15 19.5s8.33301 9.16699 21 10.5z" />
    <glyph glyph-name="parenleft" unicode="(" horiz-adv-x="230" 
d="M98 493c0 9.33301 3.99805 12.6631 11.998 9.99609c4.66699 -2 9 -6.33301 13 -13c3.33301 -4.66699 7.83301 -8 13.5 -10s11.334 -2.83301 17.001 -2.5s11 0.833008 16 1.5s9 0.5 12 -0.5s3.83301 -3.5 2.5 -7.5c-1.33301 -5.33301 -2.83301 -11.833 -4.5 -19.5
s-2.83398 -12.5 -3.50098 -14.5s-2 -4.83301 -4 -8.5s-4.5 -6.16699 -7.5 -7.5s-7.16699 -2.66602 -12.5 -3.99902c-13.333 -3.33301 -24.5 -11.666 -33.5 -24.999s-19.167 -36.333 -30.5 -69c-7.33301 -21.333 -12.166 -39.666 -14.499 -54.999s-3.5 -37.333 -3.5 -66
c-0.666992 -43.333 2.5 -77.166 9.5 -101.499s19.833 -47.5 38.5 -69.5c10.667 -12.667 19.5 -21.5 26.5 -26.5s15.833 -8.16699 26.5 -9.5c10.667 -2 17.667 -4.16699 21 -6.5s5 -6.83301 5 -13.5c0 -10 4.33301 -19 13 -27c13.333 -12 14 -18.333 2 -19
c-8 0 -19.333 3 -34 9c-21.333 9.33301 -38.166 13.333 -50.499 12s-22.166 -8.33301 -29.499 -21c-6.66699 -12.667 -12.334 -18 -17.001 -16s-19 37.667 -43 107c-15.333 44.667 -24.333 92.167 -27 142.5s1.33301 98.5 12 144.5c4 18 12.333 41.333 25 70l34.5 76
c10.333 22 15.5 35.333 15.5 40zM96.998 -1.00293c-2 5.33301 -5.66504 8.66309 -10.998 9.99609c-2.66699 0.666992 -4.33398 0.333984 -5.00098 -0.999023s-0.333984 -3.66602 0.999023 -6.99902c2.66699 -7.33301 6.66699 -10.666 12 -9.99902
c3.33301 0.666992 4.33301 3.33398 3 8.00098z" />
    <glyph glyph-name="parenright" unicode=")" horiz-adv-x="227" 
d="M64 482c10.667 -2 20.665 -0.666992 29.998 4s15.833 8.83398 19.5 12.501s7.5 3.83398 11.5 0.500977s8 -13.333 12 -30c5.33301 -20.667 11 -34.667 17 -42c12 -14.667 23.5 -36.5 34.5 -65.5s19.167 -58.167 24.5 -87.5c7.33301 -45.333 7.5 -90.5 0.5 -135.5
s-14.667 -81.333 -23 -109s-14.5 -44.167 -18.5 -49.5c-0.666992 -1.33301 -4.33398 -15.333 -11.001 -42c-7.33301 -29.333 -16.666 -35.333 -27.999 -18c-1.33301 1.33301 -2.66602 3 -3.99902 5c-6 11.333 -13.667 17.333 -23 18s-29 -3.33301 -59 -12
c-26 -7.33301 -38.333 -7 -37 1c0.666992 2.66699 4.33398 6.66699 11.001 12c10 7.33301 14.333 16.333 13 27c-1.33301 7.33301 -0.833008 12 1.5 14s8.83301 3.66699 19.5 5c14 1.33301 24.333 4.66602 31 9.99902s17.334 18.666 32.001 39.999
c28 42.667 42 97.667 42 165c0 50 -8 95.167 -24 135.5s-36 65.5 -60 75.5c-8.66699 3.33301 -14.334 6.83301 -17.001 10.5s-4 9.5 -4 17.5c0 13.333 -2.33301 21.333 -7 24c-10 6 -11 10.667 -3 14c4.66699 1.33301 11 1.33301 19 0zM139.998 -2.5
c0 4.33301 -2.16699 6.5 -6.5 6.5s-6.5 -2.16699 -6.5 -6.5s2.16699 -6.5 6.5 -6.5s6.5 2.16699 6.5 6.5z" />
    <glyph glyph-name="asterisk" unicode="*" horiz-adv-x="256" 
d="M81 282c-2 2.66699 3.83301 17.332 17.5 43.999s23.167 39.334 28.5 38.001c4.66699 -1.33301 13 -12.833 25 -34.5s18 -36.167 18 -43.5c-0.666992 -7.33301 -15.167 -10.333 -43.5 -9s-43.5 3 -45.5 5zM21 414.998c16.667 11.333 31.334 11.667 44.001 1
c6 -5.33301 19.5 -9.5 40.5 -12.5s32.833 -2.5 35.5 1.5c2 3.33301 9.83301 4 23.5 2s21.5 0.333008 23.5 7c2.66699 6.66699 6.83398 10 12.501 10s15.167 -3.33301 28.5 -10c8.66699 -4 13.834 -7 15.501 -9s1.66699 -4 0 -6s-3.33398 -6.83301 -5.00098 -14.5
s-1.83398 -17.167 -0.500977 -28.5c3.33301 -20 3.16602 -30 -0.500977 -30s-10 3.16699 -19 9.5s-19.333 12.833 -31 19.5s-24.834 12.167 -39.501 16.5s-31.834 4 -51.501 -1s-39.5 -15.5 -59.5 -31.5c-16 -12.667 -25 -17.667 -27 -15
c-1.33301 1.33301 -0.666016 11.5 2.00098 30.5s2.33398 31.833 -0.999023 38.5c-4 8 -1 15.333 9 22zM69 463.999c-26 8.66699 -29 15.666 -9 20.999c5.33301 1.33301 14.666 3.33301 27.999 6c13.333 2 23 4 29 6l60 -10c32 -8 32.333 -16 1 -24
c-14 -4 -24.333 -11.333 -31 -22s-14 -16 -22 -16s-15.333 5.33301 -22 16c-7.33301 10.667 -18.666 18.334 -33.999 23.001z" />
    <glyph glyph-name="plus" unicode="+" horiz-adv-x="362" 
d="M153 420c20.667 5.33301 39.666 4.66699 56.999 -2c8.66699 -2.66699 13.334 -5.16699 14.001 -7.5s-1.66602 -7.16602 -6.99902 -14.499c-7.33301 -10.667 -10.333 -32 -9 -64l2 -48l50 2c32.667 1.33301 54 5.33301 64 12c10.667 6.66699 18 7.66699 22 3
s6 -17.334 6 -38.001c0 -20 -2.83301 -32.833 -8.5 -38.5s-13.5 -3.83398 -23.5 5.49902c-8 7.33301 -28.833 11.166 -62.5 11.499s-50.5 -2.83398 -50.5 -9.50098c-1.33301 -19.333 -0.833008 -39.5 1.5 -60.5s5.83301 -34.833 10.5 -41.5
c3.33301 -5.33301 5.16602 -9.66602 5.49902 -12.999s-1.33398 -6.16602 -5.00098 -8.49902s-9 -3.83301 -16 -4.5s-16.5 -1 -28.5 -1c-16.667 0 -26.5 0.666992 -29.5 2s-3.16699 5.66602 -0.5 12.999c4 13.333 7.66699 34.333 11 63s4 45.667 2 51
c-1.33301 4.66699 -5.5 7.33398 -12.5 8.00098s-21.833 0.333984 -44.5 -0.999023c-35.333 -2 -56.333 -6 -63 -12c-11.333 -10 -19.666 -3.66699 -24.999 19c-5.33301 24.667 -4 42 4 52c2 2.66699 4 4 6 4s5 -0.666992 9 -2l14 -4.5c5.33301 -1.66699 13.5 -3.5 24.5 -5.5
s23.5 -3.33301 37.5 -4l50 -2l-2 52c-1.33301 34.667 -4 54.334 -8 59.001c-5.33301 4.66699 -7.33301 9.66699 -6 15s5 8.66602 11 9.99902z" />
    <glyph glyph-name="comma" unicode="," horiz-adv-x="176" 
d="M45 76c-12.667 14 -9.00098 22.3359 10.999 25.0029c6.66699 1.33301 18.334 2.33301 35.001 3c24 0.666992 42 2 54 4s11.333 -8.66699 -2 -32c-5.33301 -8.66699 -7.66602 -14.834 -6.99902 -18.501s5 -10.5 13 -20.5c10 -12 15.5 -22.667 16.5 -32
s-1.83301 -21.666 -8.5 -36.999c-5.33301 -13.333 -14.333 -21.833 -27 -25.5s-36.667 -4.83398 -72 -3.50098c-58 2.66699 -64 15 -18 37c13.333 6.66699 22.333 10.334 27 11.001s9.66699 -1.33301 15 -6c6.66699 -6.66699 13 -10 19 -10c6.66699 0 14.834 5 24.501 15
s14.5 18.333 14.5 25c0 4.66699 -3 7.66699 -9 9s-19.667 2 -41 2c-42 -0.666992 -63 2.66602 -63 9.99902c0 3.33301 4.33301 8.33301 13 15c9.33301 7.33301 14.166 12.166 14.499 14.499s-2.83398 7.16602 -9.50098 14.499z" />
    <glyph glyph-name="hyphen" unicode="-" horiz-adv-x="200" 
d="M14 236c2.66699 2 11.667 1 27 -3c10.667 -2.66699 33 -3.83398 67 -3.50098s56 2.16602 66 5.49902c4.66699 1.33301 8.66699 -1.66699 12 -9s4.83301 -15.166 4.5 -23.499s-2.16602 -15.166 -5.49902 -20.499c-6 -6.66699 -33 -10 -81 -10s-76 3.33301 -84 10
c-4.66699 4 -7.83398 13 -9.50098 27s-0.5 23 3.5 27z" />
    <glyph glyph-name="period" unicode="." horiz-adv-x="162" 
d="M23 96c2.66699 2.66699 11.168 4.66797 25.501 6.00098s30.166 2.5 47.499 3.5s28.666 1.83301 33.999 2.5c4 0.666992 6.33301 -1.66602 7 -6.99902c2 -8.66699 -0.333008 -16.334 -7 -23.001c-5.33301 -5.33301 -3 -13.333 7 -24l15 -16l-15 -8
c-11.333 -6 -38 -9 -80 -9c-32.667 0 -48.334 4.33301 -47.001 13c1.33301 3.33301 5.33301 7.33301 12 12c8.66699 5.33301 13.334 9.33301 14.001 12s-1.66602 8 -6.99902 16c-7.33301 11.333 -9.33301 18.666 -6 21.999z" />
    <glyph glyph-name="slash" unicode="/" horiz-adv-x="331" 
d="M207 499c5.33301 5.33301 17.5029 5.49902 36.5029 0.499023s36.667 -11.667 53 -20s24.5 -13.833 24.5 -16.5c0 -4 -7 -9 -21 -15c-8.66699 -3.33301 -16.5 -9.66602 -23.5 -18.999s-16.5 -26.333 -28.5 -51c-20.667 -41.333 -40 -83.666 -58 -126.999l-33 -79
c-10 -23.333 -18.167 -47.833 -24.5 -73.5s-8.5 -44.5 -6.5 -56.5c2 -17.333 -0.833008 -27.166 -8.5 -29.499s-25.834 1.5 -54.501 11.5c-34.667 12.667 -52.334 22 -53.001 28c-0.666992 4 5 8.66699 17 14c13.333 5.33301 25.666 17.666 36.999 36.999
s34.333 65.666 69 138.999c9.33301 20 16.666 36.833 21.999 50.5s8.33301 22.667 9 27s1.66699 8.16602 3 11.499s3.33301 7 6 11c4 4.66699 8 12.834 12 24.501s8.83301 27.334 14.5 47.001s9.16699 31.5 10.5 35.5c2.66699 9.33301 3.33398 18 2.00098 26
s-3 13.167 -5 15.5s-2 5.16602 0 8.49902zM91.0029 59.999c0 2 -2.16699 3 -6.5 3s-6.5 -2.33301 -6.5 -7c0 -6 3.33301 -6 10 0c2 2 3 3.33301 3 4z" />
    <glyph glyph-name="zero" unicode="0" horiz-adv-x="342" 
d="M22 350c12 35.333 27.834 63.5 47.501 84.5s40 34 61 39s42 5.5 63 1.5s39.833 -11.5 56.5 -22.5s29.667 -23.833 39 -38.5c16 -24 27.167 -48 33.5 -72s9.5 -54.333 9.5 -91c0 -52 -7.5 -97.333 -22.5 -136s-35.5 -65.667 -61.5 -81c-46 -26 -91.333 -29.333 -136 -10
s-74.334 55.333 -89.001 108c-8.66699 31.333 -13 69.5 -13 114.5s4 79.5 12 103.5zM208.001 416c-35.333 14.667 -65.166 10.832 -89.499 -11.501s-39.833 -60.166 -46.5 -113.499c-4 -31.333 -5 -57 -3 -77c8 -58.667 21.167 -99.334 39.5 -122.001s45.166 -31 80.499 -25
c28 5.33301 48 22 60 50s18 72.667 18 134c0 36.667 -1 60.834 -3 72.501s-7.33301 26.5 -16 44.5c-12.667 26 -26 42 -40 48z" />
    <glyph glyph-name="one" unicode="1" horiz-adv-x="227" 
d="M100 477c8 4 16.1699 6.1709 24.5029 6.50391s22.833 -1.83398 43.5 -6.50098s31.334 -9.33398 32.001 -14.001c0 -3.33301 -4 -7.66602 -12 -12.999c-6.66699 -4 -10.667 -15 -12 -33s-2 -71.333 -2 -160v-184l43 -35l-19 -8c-12 -4.66699 -34 -7.5 -66 -8.5
s-50 0.5 -54 4.5s0.666992 11 14 21l20 16l4 147c3.33301 97.333 5.66602 150.333 6.99902 159c1.33301 8 -1.66699 11.667 -9 11c-8.66699 -0.666992 -19.334 -6.33398 -32.001 -17.001c-11.333 -10.667 -23.833 -20.5 -37.5 -29.5s-22.834 -13.5 -27.501 -13.5
s-7 7.33301 -7 22c0 9.33301 1.5 16.666 4.5 21.999s9.16699 11.666 18.5 18.999c34.667 28 55.167 45.667 61.5 53s7.16602 14.333 2.49902 21c-3.33301 6 -4.83301 10.167 -4.5 12.5s2.83301 4.83301 7.5 7.5z" />
    <glyph glyph-name="two" unicode="2" horiz-adv-x="374" 
d="M155 477c19.333 4.66699 39.333 5.66406 60 2.99707c42 -4 74.167 -17.5 96.5 -40.5s33.5 -54.167 33.5 -93.5c0 -44.667 -16.667 -82 -50 -112c-16.667 -14.667 -52 -41.334 -106 -80.001s-83.167 -58 -87.5 -58s-6.5 -2.33301 -6.5 -7c0 -10.667 32 -16.667 96 -18
s109 3.33398 135 14.001c18 8 29 11.167 33 9.5s5.33301 -9.16699 4 -22.5c-0.666992 -10.667 -3 -18 -7 -22s-15 -9.66699 -33 -17c-17.333 -7.33301 -33.333 -11.833 -48 -13.5s-42.667 -2.5 -84 -2.5c-38 0 -65.667 1 -83 3s-35.333 6 -54 12
c-32 10 -46.667 19.333 -44 28c1.33301 4 7.33301 7.33301 18 10s18.334 10.334 23.001 23.001c7.33301 18.667 20 37 38 55s37.333 34.333 58 49l61 44c20 14.667 37.167 30.5 51.5 47.5s22.166 34.5 23.499 52.5c2.66699 27.333 -5 49.5 -23 66.5s-42 24.5 -72 22.5
c-16 -1.33301 -27.333 -3.5 -34 -6.5s-14.667 -9.83301 -24 -20.5c-14.667 -16 -22 -31.5 -22 -46.5s2.33301 -23.833 7 -26.5c6.66699 -4.66699 8.16699 -11.667 4.5 -21s-11.834 -18.666 -24.501 -27.999c-16 -12.667 -26 -16.667 -30 -12s-6.66699 24.334 -8 59.001
c-2.66699 44 3.83301 78 19.5 102s41.834 39.667 78.501 47z" />
    <glyph glyph-name="three" unicode="3" horiz-adv-x="324" 
d="M88 467c16.667 8 41.3291 11.502 73.9961 10.502s58 -6.16699 76 -15.5c21.333 -11.333 36.333 -24.5 45 -39.5s13 -36.167 13 -63.5c0 -21.333 -1.16699 -35 -3.5 -41s-10.166 -15 -23.499 -27c-15.333 -14 -23 -24 -23 -30s7.66699 -11 23 -15
c12.667 -3.33301 22.167 -11.5 28.5 -24.5s11.5 -34.167 15.5 -63.5c2.66699 -24.667 0.333984 -45.667 -6.99902 -63s-20.666 -34 -39.999 -50c-31.333 -26 -74 -36.667 -128 -32s-92 22.334 -114 53.001c-6 8.66699 -9.83301 17.834 -11.5 27.501s-2.5 27.167 -2.5 52.5
c0 40.667 1.66699 62.334 5 65.001c1.33301 2 7.5 -1.16699 18.5 -9.5l33.5 -26c11.333 -9 18 -13.5 20 -13.5c6.66699 0 7.66699 -5 3 -15c-1.33301 -4.66699 -4 -8.33398 -8 -11.001c-7.33301 -6.66699 -10 -15.334 -8 -26.001s8.33301 -20.667 19 -30
c8.66699 -7.33301 16.667 -12 24 -14s19.333 -2.66699 36 -2c25.333 0 42.5 1.83301 51.5 5.5s18.833 12.5 29.5 26.5c14 19.333 19 43.333 15 72s-15.333 49.334 -34 62.001c-12 7.33301 -31.667 12.666 -59 15.999l-41 5v46l41 2
c18.667 0.666992 31.667 2.33398 39 5.00098s16.333 9 27 19c10.667 10.667 17 18.5 19 23.5s2.33301 12.833 1 23.5c-3.33301 19.333 -11.166 33.833 -23.499 43.5s-29.833 15.167 -52.5 16.5c-17.333 1.33301 -29.166 1.16602 -35.499 -0.500977s-14.5 -6.5 -24.5 -14.5
c-9.33301 -8 -15 -14.333 -17 -19s-2.33301 -11.334 -1 -20.001c2 -11.333 0.166992 -20.833 -5.5 -28.5s-18.167 -17.834 -37.5 -30.501c-8 -4.66699 -13.333 -7.16699 -16 -7.5s-5 1.83398 -7 6.50098c-2.66699 7.33301 -1.33398 26.666 3.99902 57.999
c4 26 10.5 45.667 19.5 59s23.167 24.666 42.5 33.999z" />
    <glyph glyph-name="four" unicode="4" horiz-adv-x="367" 
d="M202 466c-2 8.66699 -2.33008 13.834 -0.99707 15.501s6.66602 2.5 15.999 2.5c10.667 0 26.667 -4 48 -12s32 -14 32 -18c0 -2.66699 -4 -7.66699 -12 -15c-6 -4.66699 -9.83301 -14.334 -11.5 -29.001s-2.83398 -52 -3.50098 -112
c-1.33301 -86.667 0.833984 -130 6.50098 -130s17 4.5 34 13.5s26.833 15.5 29.5 19.5c5.33301 8 10 7 14 -3c2 -5.33301 3 -11.666 3 -18.999c0 -13.333 -5.66699 -25.5 -17 -36.5s-26 -18.833 -44 -23.5c-13.333 -3.33301 -22.166 -7.5 -26.499 -12.5
s-4.83301 -10.5 -1.5 -16.5s7.66602 -11.667 12.999 -17l15.5 -16c5 -5.33301 7.5 -9.33301 7.5 -12c0 -4 -12.667 -9.83301 -38 -17.5s-44.666 -11.5 -57.999 -11.5c-8 0 -14.333 0.5 -19 1.5s-7.83398 2.16699 -9.50098 3.5s-1.83398 3.33301 -0.500977 6s2.83301 5 4.5 7
s4.5 5 8.5 9c4 4.66699 7.16699 8.16699 9.5 10.5s4.66602 5.5 6.99902 9.5s3.5 7.66699 3.5 11c0 8.66699 3 17 9 25c10.667 14 12 22.667 4 26c-7.33301 2.66699 -30.666 4 -69.999 4c-50 0 -79.667 -2.33301 -89 -7c-6 -3.33301 -11.167 -4 -15.5 -2
s-11.5 7.66699 -21.5 17c-14.667 15.333 -20.667 27.666 -18 36.999s7.16699 14 13.5 14s16.833 11.667 31.5 35l103 152c19.333 30 31.666 50.667 36.999 62s7.33301 21 6 29zM217.003 257c0 19.333 0.665039 40.668 1.99805 64.001
c0.666992 17.333 0.5 27.666 -0.5 30.999s-4.5 5.33301 -10.5 6c-9.33301 1.33301 -16.666 -5 -21.999 -19c-4 -12.667 -16.167 -35.167 -36.5 -67.5s-34.5 -52.5 -42.5 -60.5c-17.333 -15.333 -18.333 -26 -3 -32c7.33301 -2.66699 25.5 -4 54.5 -4s45.833 1.66699 50.5 5
s7.33398 29 8.00098 77z" />
    <glyph glyph-name="five" unicode="5" horiz-adv-x="342" 
d="M63 465c12 4.66699 37.501 7.99609 76.501 9.99609s77.833 -0.166992 116.5 -6.5s59.334 -18.166 62.001 -35.499c2 -15.333 0.666992 -24.166 -4 -26.499s-16.334 -0.166016 -35.001 6.50098c-21.333 6.66699 -51.833 10.5 -91.5 11.5s-65.5 -1.5 -77.5 -7.5
c-6.66699 -4 -11 -9 -13 -15s-3.66699 -18.667 -5 -38c-1.33301 -29.333 -0.833008 -44 1.5 -44s10.5 5 24.5 15c8 6 16.5 9.83301 25.5 11.5s23.833 2.5 44.5 2.5c21.333 0 36.5 -1 45.5 -3s18.833 -6.66699 29.5 -14c28.667 -18.667 48.834 -49.667 60.501 -93
s11.167 -85.333 -1.5 -126c-11.333 -36 -33.166 -62.833 -65.499 -80.5s-70.5 -23.834 -114.5 -18.501c-28 2.66699 -50.167 9.66699 -66.5 21s-30.833 29.333 -43.5 54l-16.5 33.5c-3 6.33301 -4.66699 12.333 -5 18s1 9.33398 4 11.001s8.5 3.83398 16.5 6.50098
c10.667 3.33301 18.334 4.5 23.001 3.5s11.667 -5.5 21 -13.5c14 -11.333 19.667 -20.666 17 -27.999c-2.66699 -8 1.16602 -18.5 11.499 -31.5s22.166 -21.5 35.499 -25.5c36 -12 67.333 -6.5 94 16.5s40 55.833 40 98.5c0 32.667 -6.5 59.667 -19.5 81
s-31.5 35.333 -55.5 42c-23.333 6 -47.333 1.83301 -72 -12.5s-37 -31.5 -37 -51.5c0 -9.33301 -1.83301 -15.166 -5.5 -17.499s-10.834 -2.5 -21.501 -0.5c-6 1.33301 -10.5 3.16602 -13.5 5.49902s-5.16699 8.16602 -6.5 17.499s-1.83301 20.666 -1.5 33.999
s1.5 34 3.5 62c2 36 2.66699 59.5 2 70.5s-3.33398 19.167 -8.00098 24.5c-6 7.33301 -7.5 12.833 -4.5 16.5s12.833 8.83398 29.5 15.501z" />
    <glyph glyph-name="six" unicode="6" horiz-adv-x="329" 
d="M10 223c0 49.333 3.83008 91.002 11.4971 125.002s19 60.167 34 78.5s32 31.333 51 39s41.5 11.5 67.5 11.5c30 0 54.5 -5 73.5 -15s35.833 -27 50.5 -51c14 -23.333 19.333 -36.333 16 -39s-11.666 -5.33398 -24.999 -8.00098c-9.33301 -2 -17 -1 -23 3
s-11.167 9.5 -15.5 16.5s-9.16602 14.167 -14.499 21.5s-13.666 13.666 -24.999 18.999s-25 8 -41 8c-39.333 0 -69 -25 -89 -75c-10.667 -28.667 -14 -47.667 -10 -57c2 0 11 7.33301 27 22c16 16 35 25.833 57 29.5s43.167 1.83398 63.5 -5.49902
s38.833 -19.666 55.5 -36.999s28.334 -38 35.001 -62c11.333 -39.333 13.5 -76.5 6.5 -111.5s-22.167 -63.167 -45.5 -84.5c-28.667 -26 -63.334 -39.167 -104.001 -39.5s-75.667 12.5 -105 38.5c-20 17.333 -33.5 38.166 -40.5 62.499s-10.5 61.166 -10.5 110.499z
M221.997 282.002c-9.33301 8.66699 -24.834 13.833 -46.501 15.5s-39.5 -1.16602 -53.5 -8.49902c-16 -8 -28.833 -22 -38.5 -42s-14.5 -42.333 -14.5 -67c0 -26 4.33301 -48.167 13 -66.5s19.834 -31 33.501 -38s29 -11.167 46 -12.5s33.5 2 49.5 10
c19.333 8 33.333 25.667 42 53s10.167 56.166 4.5 86.499s-17.5 53.5 -35.5 69.5z" />
    <glyph glyph-name="seven" unicode="7" horiz-adv-x="373" 
d="M285 477c6.66699 4.66699 11.333 6.66895 14 6.00195s14 -8.33398 34 -23.001c10 -7.33301 17.167 -13.166 21.5 -17.499s6.66602 -7.5 6.99902 -9.5s0 -5.16699 -1 -9.5s-1.5 -8.5 -1.5 -12.5s-5 -6 -15 -6c-7.33301 0 -15.5 -3.33301 -24.5 -10
s-13.5 -12.667 -13.5 -18c0 -3.33301 -3.5 -10 -10.5 -20l-25.5 -37c-10 -14.667 -21.667 -38.667 -35 -72s-25 -71.333 -35 -114l-14 -65l14 -20c6.66699 -8 10.334 -13.667 11.001 -17s-1 -6.33301 -5 -9c-10 -6.66699 -36 -6.66699 -78 0
c-35.333 4.66699 -52 11.667 -50 21c1.33301 4.66699 8 9.66699 20 15c9.33301 4 15.666 8.5 18.999 13.5s6.66602 14.5 9.99902 28.5c7.33301 34 13.666 59.667 18.999 77s11.833 34.166 19.5 50.499s12.834 28.166 15.501 35.499c11.333 28 25 54.833 41 80.5
s28.333 40.5 37 44.5c6 2.66699 10 5.16699 12 7.5s1.83301 4.83301 -0.5 7.5s-7.16602 6.33398 -14.499 11.001c-8 4.66699 -17.667 7.5 -29 8.5s-35.333 0.5 -72 -1.5c-55.333 -3.33301 -91.666 -8 -108.999 -14c-18 -6 -28.5 -8.5 -31.5 -7.5s-4.5 7.83301 -4.5 20.5
c0 10 1.66699 17.167 5 21.5s11.333 10.166 24 17.499c14 8 27 12.667 39 14s43 1.33301 93 0c68.667 -2 106.667 -1 114 3z" />
    <glyph glyph-name="eight" unicode="8" horiz-adv-x="349" 
d="M91 459c30.667 14 61.6709 20.3398 93.0039 19.0068s59.666 -10.5 84.999 -27.5s41 -38.167 47 -63.5c10 -46.667 -0.666992 -77.334 -32 -92.001c-16.667 -8 -25.167 -16.333 -25.5 -25s7.5 -15.334 23.5 -20.001c20 -6.66699 35.167 -20.834 45.5 -42.501
s13.833 -45.834 10.5 -72.501s-13 -49.334 -29 -68.001c-17.333 -20 -41.833 -34.5 -73.5 -43.5s-63.167 -12 -94.5 -9s-59.5 15.167 -84.5 36.5s-39.5 49.666 -43.5 84.999c-3.33301 27.333 -4 45.666 -2 54.999c2 12 8.66699 23.667 20 35s23.666 19.333 36.999 24
c17.333 6 26.666 12.5 27.999 19.5s-5 13.5 -19 19.5c-18.667 8 -31.334 17.333 -38.001 28s-9.66699 27 -9 49c0 24.667 4.16699 43.167 12.5 55.5s24.5 24.833 48.5 37.5zM229.504 414.507c-15 12.333 -33.666 18.5 -55.999 18.5s-40.833 -6.33301 -55.5 -19
c-14 -12 -22.833 -23.333 -26.5 -34s-2.83398 -23 2.49902 -37c12.667 -29.333 40.667 -44.333 84 -45c22 0 39 3.83301 51 11.5s21 21.167 27 40.5c4.66699 12.667 5.16699 23.5 1.5 32.5s-13 19.667 -28 32zM234.005 226.007c-16 11.333 -36.834 16.667 -62.501 16
s-45.5 -6.66699 -59.5 -18c-24 -20 -37 -42.167 -39 -66.5s7.33301 -46.833 28 -67.5c11.333 -11.333 20.333 -18.166 27 -20.499s22 -3.5 46 -3.5s39.167 1.16699 45.5 3.5s15.5 9.16602 27.5 20.499c21.333 21.333 30.833 45 28.5 71s-16.166 47.667 -41.499 65z" />
    <glyph glyph-name="nine" unicode="9" 
d="M123 472c20 6.66699 35.001 10.3379 45.001 11.0049s25 -1.33301 45 -6c35.333 -8 63.5 -28.333 84.5 -61s33.5 -69.334 37.5 -110.001s3.16699 -81 -2.5 -121s-15.5 -72.333 -29.5 -97c-16.667 -30 -40.5 -51.333 -71.5 -64s-63.333 -15 -97 -7
s-62.834 25.333 -87.501 52l-19.5 24.5c-6.33301 8.33301 -11.166 15.166 -14.499 20.499s-4 8.33301 -2 9c24 4 41 4.5 51 1.5s23.333 -12.833 40 -29.5c15.333 -16 26.333 -25.5 33 -28.5s18.334 -4.5 35.001 -4.5c21.333 -0.666992 37.166 1.83301 47.499 7.5
s20.5 16.167 30.5 31.5c9.33301 14.667 18.166 34 26.499 58s10.833 37.667 7.5 41c-1.33301 1.33301 -5.66602 -1.5 -12.999 -8.5l-26.5 -24.5c-10.333 -9.33301 -18.833 -15.333 -25.5 -18c-16.667 -6.66699 -35.5 -8.83398 -56.5 -6.50098s-40.833 8.16602 -59.5 17.499
c-14.667 7.33301 -25.5 14.5 -32.5 21.5s-14.5 17.833 -22.5 32.5c-9.33301 16.667 -15 30.167 -17 40.5s-3 28.833 -3 55.5s1 45 3 55s7.33301 22.667 16 38c12 22 22.667 37.167 32 45.5s24.666 16.166 45.999 23.499zM228.001 411.004
c-15.333 11.333 -33.6631 16.335 -54.9961 15.002s-39.333 -8.33301 -54 -21c-18.667 -16 -30.334 -38.833 -35.001 -68.5s-1.33398 -57.834 9.99902 -84.501c9.33301 -20.667 20.166 -35.334 32.499 -44.001s29.166 -13 50.499 -13c28 0 50.333 9 67 27s26 39.167 28 63.5
s-0.833008 48.5 -8.5 72.5s-19.5 41.667 -35.5 53z" />
    <glyph glyph-name="colon" unicode=":" horiz-adv-x="150" 
d="M24 78c-11.333 12.667 -6.66797 20.334 13.999 23.001c6.66699 1.33301 19 2.33301 37 3c20.667 1.33301 36.334 2.66602 47.001 3.99902c8.66699 0.666992 13.5 -1.33301 14.5 -6s-2.16699 -11.667 -9.5 -21l-13 -17l13 -7c22 -12 18 -22.333 -12 -31
c-32 -9.33301 -61.333 -11.333 -88 -6c-5.33301 0.666992 -9 2 -11 4c-5.33301 4 -6.83301 7.5 -4.5 10.5s6.33301 5.83301 12 8.5s9.16699 7 10.5 13s-2 13.333 -10 22zM44.998 330c2 6 11.666 8.99902 28.999 8.99902s28.333 -2.66699 33 -8
c4 -5.33301 4.66699 -19.666 2 -42.999l-3 -35l-61 4l-2 32c-1.33301 21.333 -0.666016 35 2.00098 41z" />
    <glyph glyph-name="semicolon" unicode=";" horiz-adv-x="180" 
d="M40 96c0 2.66699 7.00195 4.83398 21.002 6.50098s30.167 3 48.5 4s28.5 1.5 30.5 1.5c8 1.33301 12.833 -0.833984 14.5 -6.50098s-0.5 -14.167 -6.5 -25.5c-4.66699 -9.33301 -6.66699 -16 -6 -20s5 -11.667 13 -23c8.66699 -11.333 13.5 -19.333 14.5 -24
s-0.833008 -14.667 -5.5 -30c-4.66699 -14 -8.83398 -22.833 -12.501 -26.5s-11.5 -6.5 -23.5 -8.5c-19.333 -4 -43.166 -5.83301 -71.499 -5.5s-43.833 2.16602 -46.5 5.49902c-0.666992 2 1.66602 5.5 6.99902 10.5s12.333 10.167 21 15.5
c13.333 8.66699 22.5 13.667 27.5 15s9.83301 0 14.5 -4c7.33301 -7.33301 15.833 -10.166 25.5 -8.49902s18.167 7.16699 25.5 16.5c12.667 15.333 16.667 25 12 29s-21.334 5.33301 -50.001 4c-34.667 -1.33301 -53.667 -0.333008 -57 3s-1 9.33301 7 18
c6 9.33301 8.66699 15.833 8 19.5s-2.66699 9 -6 16s-5 12.833 -5 17.5zM69.002 330c2 6 11.5 9.16797 28.5 9.50098s27.667 -2.33398 32 -8.00098s5.16602 -19.5 2.49902 -41.5l-4 -33h-59l-2 32c-1.33301 21.333 -0.666016 35 2.00098 41z" />
    <glyph glyph-name="less" unicode="&#x3c;" horiz-adv-x="380" 
d="M297 428c5.33301 10.667 12.3301 16.332 20.9971 16.999c4.66699 0.666992 7 -1.33301 7 -6c0 -3.33301 4.16699 -9.5 12.5 -18.5s15.833 -18.5 22.5 -28.5s8.33398 -18.333 5.00098 -25c-3.33301 -5.33301 -7 -8.66602 -11 -9.99902s-11 -1.33301 -21 0
s-24.167 -1 -42.5 -7s-49.833 -17.667 -94.5 -35c-74 -30 -111.667 -49.667 -113 -59c-0.666992 -4 3 -7.66699 11 -11c3.33301 -1.33301 8.33301 -2.66602 15 -3.99902c18.667 -5.33301 36.667 -12.333 54 -21c27.333 -14 60.5 -27.333 99.5 -40
s65.167 -18.334 78.5 -17.001c19.333 1.33301 29 -2.66699 29 -12c-0.666992 -7.33301 -12 -24 -34 -50c-7.33301 -9.33301 -11 -15.333 -11 -18c0 -9.33301 -6 -10 -18 -2c-5.33301 4 -10.666 9.33301 -15.999 16c-9.33301 12.667 -24.333 24.334 -45 35.001
c-30 15.333 -72.833 34 -128.5 56s-85.167 32 -88.5 30c-6 -3.33301 -11 1.66699 -15 15c-3.33301 10.667 -4.66602 22.667 -3.99902 36c1.33301 12.667 3.16602 20.667 5.49902 24s8.83301 6 19.5 8c11.333 1.33301 44.333 13.666 99 36.999s96.334 42.333 125.001 57
c20 10.667 32.667 21.667 38 33z" />
    <glyph glyph-name="equal" unicode="=" horiz-adv-x="374" 
d="M12 245c1.33301 4 3.00098 6.17188 5.00098 6.50488s5 -1.5 9 -5.5c7.33301 -5.33301 58.5 -8 153.5 -8s149.5 1.66699 163.5 5c9.33301 2.66699 15.166 3.66699 17.499 3s3.5 -3.66699 3.5 -9c0 -8.66699 -4.33301 -22.334 -13 -41.001c-6 -13.333 -10.333 -21 -13 -23
s-7.66699 -1 -15 3c-9.33301 5.33301 -51.666 9.16602 -126.999 11.499s-122.333 -0.5 -141 -8.5c-9.33301 -4.66699 -15.333 -6.83398 -18 -6.50098s-6.33398 4.16602 -11.001 11.499c-6 9.33301 -10.5 20.166 -13.5 32.499s-3.16699 21.833 -0.5 28.5zM312.001 349.005
c14.667 4.66699 24.8311 5 30.498 1s9.83398 -15.333 12.501 -34c1.33301 -8.66699 2 -15.834 2 -21.501s-0.833008 -10 -2.5 -13s-4 -4.33301 -7 -4s-6.83301 1.83301 -11.5 4.5c-11.333 6 -60.166 9.16699 -146.499 9.5s-136.833 -2.5 -151.5 -8.5
c-14 -6 -22.5 -6.5 -25.5 -1.5s-1.83301 18.167 3.5 39.5c3.33301 15.333 6.33301 24.5 9 27.5s8 3.5 16 1.5c44 -9.33301 93.333 -14.166 148 -14.499s95.667 4.16699 123 13.5z" />
    <glyph glyph-name="greater" unicode="&#x3e;" horiz-adv-x="381" 
d="M56 438c0 8 4.00293 9.66504 12.0029 4.99805c4.66699 -2.66699 8 -7 10 -13c7.33301 -16 43.666 -37.667 108.999 -65l99 -42c15.333 -6.66699 29 -11.834 41 -15.501s20.333 -5.33398 25 -5.00098s8.5 -0.5 11.5 -2.5s4.66699 -3.83301 5 -5.5
s0.833008 -7.16699 1.5 -16.5c3.33301 -38 -3.33398 -57 -20.001 -57c-7.33301 0 -41 -12.333 -101 -37s-103.333 -44 -130 -58c-12 -6 -21.5 -13.167 -28.5 -21.5s-11.667 -15.166 -14 -20.499s-4.5 -8 -6.5 -8c-3.33301 0 -14.333 11 -33 33c-31.333 36 -34 54 -8 54h7
c16 -1.33301 38.333 2.66699 67 12s61.667 22 99 38s57.666 24.667 60.999 26c45.333 16.667 44 32.334 -4 47.001c-11.333 4 -42.833 16.333 -94.5 37s-89.834 32.334 -114.501 35.001c-24 2 -37.167 5.83301 -39.5 11.5s4.83398 17.834 21.501 36.501
c16 17.333 24 28 24 32z" />
    <glyph glyph-name="question" unicode="?" horiz-adv-x="285" 
d="M75 72c-12 15.333 -7.00098 24 14.999 26c7.33301 0.666992 18.333 1 33 1c33.333 0 50.333 -1 51 -3s0 -5.66699 -2 -11s-3.16699 -11 -3.5 -17s2.16699 -12 7.5 -18c7.33301 -8 10 -14 8 -18c-5.33301 -8 -28.166 -12 -68.499 -12s-60.5 4 -60.5 12
c0 3.33301 4.83301 9 14.5 17s11.5 15.667 5.5 23zM35.999 455c12 20 30.499 33.5078 55.499 40.5078s48.333 8.66699 70 5s40.5 -9.5 56.5 -17.5c20.667 -10.667 35.334 -23.834 44.001 -39.501s13 -37.167 13 -64.5c-0.666992 -26.667 -5.16699 -47.667 -13.5 -63
s-27.833 -38.333 -58.5 -69c-26 -25.333 -42 -43.833 -48 -55.5s-5.33301 -23.167 2 -34.5c6.66699 -10.667 7.66699 -18.334 3 -23.001s-16 -7.33398 -34 -8.00098c-34 -0.666992 -50.333 3.66602 -49 12.999c0 1.33301 0.666992 2.66602 2 3.99902
c4 6 7.66699 19.667 11 41c2 14.667 6.5 27.167 13.5 37.5s24.5 30.166 52.5 59.499c34.667 37.333 55.667 64.5 63 81.5s5 34.833 -7 53.5c-14 22.667 -36 34.667 -66 36s-51.667 -8.66699 -65 -30c-6.66699 -10.667 -9.5 -21.834 -8.5 -33.501s3 -20.167 6 -25.5
s2.16699 -11.333 -2.5 -18c-4.66699 -4.66699 -16.167 -5.33398 -34.5 -2.00098s-28.5 8 -30.5 14c-2.66699 6 -1 20.833 5 44.5s12.667 41.5 20 53.5z" />
    <glyph glyph-name="at" unicode="@" horiz-adv-x="496" 
d="M32 359c21.333 42 50.165 74.999 86.498 98.999s73.166 37.667 110.499 41s73.666 -0.166992 108.999 -10.5s64 -26.833 86 -49.5c22.667 -23.333 38.667 -46 48 -68s14 -48 14 -78c0 -28.667 -3.16699 -51.667 -9.5 -69s-18.166 -35.333 -35.499 -54
c-23.333 -26 -54.333 -44.333 -93 -55c-30 -8 -45 -5 -45 9c0 6.66699 -2 10.5 -6 11.5s-9.16699 0.166992 -15.5 -2.5s-14 -5.33398 -23 -8.00098s-18.833 -4.66699 -29.5 -6s-21.667 -0.333008 -33 3c-16 4 -31.167 13.333 -45.5 28s-23.5 30.334 -27.5 47.001
c-8 28 -5.5 58.667 7.5 92s31.833 58.333 56.5 75c14.667 10 34.667 15 60 15c16.667 0 28.5 -1.16699 35.5 -3.5s15.5 -7.83301 25.5 -16.5c18 -16 27.667 -21 29 -15c0.666992 3.33301 0.333984 9.33301 -0.999023 18c-2 10 -2.5 16.5 -1.5 19.5s4.16699 4.5 9.5 4.5
c8 0 16.833 -6.83301 26.5 -20.5s12.5 -23.167 8.5 -28.5c-3.33301 -4 -10.5 -30.167 -21.5 -78.5s-17.5 -75.833 -19.5 -82.5c-7.33301 -18.667 -3.66602 -27.667 11.001 -27c13.333 0.666992 30.333 9.33398 51 26.001c37.333 31.333 55.333 72.5 54 123.5
s-21 92.167 -59 123.5c-36 29.333 -81 44.333 -135 45c-30.667 0 -56.5 -4.16699 -77.5 -12.5s-43.167 -23.5 -66.5 -45.5c-22.667 -21.333 -38.834 -43.5 -48.501 -66.5s-14.5 -51.5 -14.5 -85.5c0 -90.667 38.333 -154 115 -190c18 -8.66699 32.667 -14.167 44 -16.5
s28.333 -3.5 51 -3.5c30.667 0 56.5 4 77.5 12s42.833 22 65.5 42c38.667 34.667 61 49 67 43c2.66699 -2.66699 -3 -13.667 -17 -33s-27.333 -34.333 -40 -45c-14 -12 -33.333 -23.667 -58 -35c-15.333 -6.66699 -28.666 -11 -39.999 -13s-29.666 -3 -54.999 -3
c-122 0.666992 -202.667 55.667 -242 165c-9.33301 26.667 -12.833 57 -10.5 91s9.5 63.333 21.5 88zM292.999 319.999c-12 12 -25.332 18.335 -39.999 19.002s-27.834 -3.33301 -39.501 -12s-22.167 -20 -31.5 -34s-14.333 -29.667 -15 -47s3 -34.333 11 -51
c6 -12.667 13.5 -21.334 22.5 -26.001s22.167 -7 39.5 -7c11.333 0 20 1.33301 26 4s12.667 8 20 16c10 10 16.833 21.667 20.5 35s5.5 31.666 5.5 54.999c0 11.333 -1.16699 20.333 -3.5 27s-7.5 13.667 -15.5 21z" />
    <glyph glyph-name="A" unicode="A" horiz-adv-x="512" 
d="M197 485c2.66699 4 19.4971 5.83203 50.4971 5.49902s50.833 -2.83301 59.5 -7.5c6 -3.33301 9.16699 -5.83301 9.5 -7.5s-2.16699 -5.5 -7.5 -11.5c-4 -4 -6.33301 -7.83301 -7 -11.5s-0.166992 -7.16699 1.5 -10.5s4.66699 -10 9 -20s8.5 -21 12.5 -33
c4.66699 -15.333 21 -57 49 -125s47 -112 57 -132c8 -16.667 15.833 -28.834 23.5 -36.501s17.834 -13.167 30.501 -16.5c23.333 -6 21.666 -14.333 -5.00098 -25c-11.333 -4.66699 -22.166 -12 -32.499 -22s-20 -18.333 -29 -25s-19.5 -10 -31.5 -10
c-14.667 0.666992 -21.667 2.33398 -21 5.00098l11 23c6 12 5.33301 30 -2 54s-10.333 43 -9 57c0.666992 10.667 0.333984 17 -0.999023 19s-6 2 -14 0c-10.667 -2 -49.667 -3 -117 -3l-100 1l4 -25c2 -13.333 1 -27.166 -3 -41.499s-7.16699 -24.5 -9.5 -30.5
s-0.5 -15.333 5.5 -28c8 -11.333 11 -19.333 9 -24s-9 -7 -21 -7c-10 0 -18.667 2.66699 -26 8s-15.833 12.333 -25.5 21s-20.5 15.667 -32.5 21c-31.333 14 -33 25.333 -5 34c10.667 2.66699 20 9.5 28 20.5s18.333 30 31 57s31.667 71.833 57 134.5
c28.667 70 46 114.667 52 134s7 32.333 3 39c-5.33301 8 -6.66602 14.333 -3.99902 19zM278.997 361.999c0 13.333 -6.66602 24 -19.999 32c-14 8.66699 -22.333 5.66699 -25 -9c-0.666992 -2.66699 -1 -6 -1 -10c0 -7.33301 -5.16699 -26.5 -15.5 -57.5
s-19.833 -56.167 -28.5 -75.5c-8.66699 -18 -9.33398 -29.333 -2.00098 -34s30 -7 68 -7c46 0 70.333 2.33301 73 7c2 2.66699 -1.16699 15.167 -9.5 37.5l-26 70.5c-9 24.667 -13.5 40 -13.5 46zM87.998 72.999c0 6.66699 -0.667969 10 -2.00098 10
s-2.83301 -1.66699 -4.5 -5s-2.66699 -6.5 -3 -9.5s0.833984 -4.83301 3.50098 -5.5c4 0 6 3.33301 6 10zM429.997 72.999c0 6.66699 -3.33398 10.0029 -10.001 10.0029c-4.66699 0 -7.16699 -1.33301 -7.5 -4s0.333984 -6.33398 2.00098 -11.001s2.5 -7.66699 2.5 -9
c0 -2.66699 2.33301 -2.33398 7 0.999023c4 3.33301 6 7.66602 6 12.999z" />
    <glyph glyph-name="B" unicode="B" horiz-adv-x="421" 
d="M37 466c8.66699 4 15.8359 7.99805 21.5029 11.998s9 6.66699 10 8s5.66699 3 14 5s19.666 2.66699 33.999 2s37.166 -1 68.499 -1c50.667 -1.33301 83.167 -2.83301 97.5 -4.5s27.5 -6.16699 39.5 -13.5c22.667 -12.667 38.167 -25 46.5 -37s13.166 -29 14.499 -51
c3.33301 -44 -8.66699 -66 -36 -66c-8 0 -12.5 -1.83301 -13.5 -5.5s0.5 -11.5 4.5 -23.5c4.66699 -10 12.667 -16.667 24 -20c12 -2.66699 23.167 -15.5 33.5 -38.5s15.5 -46.167 15.5 -69.5c0 -51.333 -23.333 -91.333 -70 -120l-38 -23l-211 -6l-41 20
c-27.333 12.667 -41 21.5 -41 26.5s5.33301 9.83301 16 14.5l17 8v174c0 83.333 -0.666992 133.5 -2 150.5s-5.33301 27.167 -12 30.5c-9.33301 4.66699 -13.333 9.33398 -12 14.001s8 9.33398 20 14.001zM296.002 418.998c-12.667 7.33301 -42.8311 12 -90.498 14
s-77.834 -0.333008 -90.501 -7s-20.334 -12 -23.001 -16s-1.66699 -8.66699 3 -14c6 -6.66699 7.33301 -22.334 4 -47.001l-4 -37l24 4c16 3.33301 49 5.33301 99 6c44 0.666992 71.167 3.83398 81.5 9.50098s15.5 20.5 15.5 44.5c0 14 -1 23.333 -3 28
s-7.33301 9.66699 -16 15zM289.005 255.998c-6 3.33301 -37.501 6.83301 -94.501 10.5s-87.167 4.16699 -90.5 1.5c-1.33301 -2 -2 -27.833 -2 -77.5s-2.16699 -75.667 -6.5 -78s-6.5 -5.83301 -6.5 -10.5c0 -8.66699 13.5 -15.5 40.5 -20.5s57 -7 90 -6
s56.833 5.5 71.5 13.5c20.667 10 34.334 20.333 41.001 31s10 26.667 10 48c0 17.333 -1.16699 29.333 -3.5 36s-7.83301 14.667 -16.5 24c-13.333 14 -24.333 23.333 -33 28z" />
    <glyph glyph-name="C" unicode="C" horiz-adv-x="434" 
d="M152 492c49.333 14.667 95.8311 14.6631 139.498 -0.00390625s78.834 -42 105.501 -82c10.667 -16.667 16.167 -28.334 16.5 -35.001s-4.5 -12 -14.5 -16c-11.333 -4 -17 -9.33301 -17 -16c0 -14 -4.33301 -17 -13 -9c-4.66699 4.66699 -10 12.334 -16 23.001
c-29.333 58.667 -73.333 88 -132 88c-19.333 0 -39.166 -4.83301 -59.499 -14.5s-35.5 -21.167 -45.5 -34.5c-22 -29.333 -35.333 -65.666 -40 -108.999s-0.333984 -83.833 12.999 -121.5s33.333 -64.5 60 -80.5c27.333 -13.333 55.166 -19.166 83.499 -17.499
s54.833 11.667 79.5 30s41.667 41.5 51 69.5c6.66699 20.667 13.334 26.334 20.001 17.001c1.33301 -1.33301 2.33301 -3.66602 3 -6.99902c2.66699 -8 9.66699 -16.667 21 -26l17 -15l-23 -33c-10 -15.333 -25.333 -31.333 -46 -48s-39 -28 -55 -34
c-11.333 -4 -25.166 -7.33301 -41.499 -10s-35.833 -3 -58.5 -1s-44.334 7 -65.001 15s-41.167 22 -61.5 42s-36.166 44.667 -47.499 74c-10.667 27.333 -16 65.166 -16 113.499s5.66699 86.5 17 114.5c10.667 28 28 53.833 52 77.5s48.333 38.834 73 45.501z" />
    <glyph glyph-name="D" unicode="D" horiz-adv-x="433" 
d="M32 464c11.333 4.66699 19.666 9.66406 24.999 14.9971s8.66602 8.5 9.99902 9.5s9.5 2.5 24.5 4.5s37.5 2 67.5 0c59.333 -2 98.333 -4.5 117 -7.5s36.334 -9.83301 53.001 -20.5c33.333 -20.667 60 -56 80 -106c4 -10.667 7.5 -25.5 10.5 -44.5
s4.16699 -41.667 3.5 -68s-3.83398 -52.166 -9.50098 -77.499s-16.667 -49.833 -33 -73.5s-37.166 -41.834 -62.499 -54.501c-18 -9.33301 -33.833 -15.166 -47.5 -17.499s-42.5 -4.5 -86.5 -6.5c-26.667 -1.33301 -46.5 -2 -59.5 -2s-23.667 0.666992 -32 2
s-13.833 3 -16.5 5s-8.16699 5.33301 -16.5 10s-17.833 9.33398 -28.5 14.001c-26.667 10.667 -28 20.334 -4 29.001c6.66699 2.66699 10.334 11.667 11.001 27c1.33301 15.333 2 66 2 152c-0.666992 83.333 -1.66699 133.666 -3 150.999s-5 28 -11 32
c-8.66699 6 -12.667 10.833 -12 14.5s6.66699 7.83398 18 12.501zM247 427.997c-69.333 8.66699 -114.333 7 -135 -5c-8.66699 -5.33301 -14.167 -9.83301 -16.5 -13.5s-2.5 -8.16699 -0.5 -13.5c4 -10.667 6.33301 -59 7 -145s-0.666016 -130 -3.99902 -132
c-6.66699 -4 -8.16699 -9.5 -4.5 -16.5s11.167 -12.833 22.5 -17.5c18.667 -7.33301 48.167 -10 88.5 -8s69.833 7.66699 88.5 17c41.333 21.333 62 76.333 62 165c0 50 -9.33301 89.5 -28 118.5s-45.334 45.833 -80.001 50.5z" />
    <glyph glyph-name="E" unicode="E" horiz-adv-x="365" 
d="M37 475c16.667 8 60.332 13.4961 130.999 16.4961s106.667 4.5 108 4.5c5.33301 0.666992 14.166 -3.33301 26.499 -12s20.166 -13 23.499 -13c8.66699 0 15.334 -6.66699 20.001 -20s5.66699 -27.333 3 -42c0 -0.666992 -1.33301 -0.666992 -4 0
s-6.16699 1.83398 -10.5 3.50098l-14.5 5.5c-18.667 8.66699 -58 13.667 -118 15c-66 1.33301 -101.333 -2.66699 -106 -12c-2 -4 -1 -9.66699 3 -17c4.66699 -8.66699 5.33398 -24.667 2.00098 -48l-4 -35l88 4c58.667 2 90.667 5.16699 96 9.5s11.333 -1.5 18 -17.5
c12.667 -29.333 13.667 -49.666 3 -60.999c-5.33301 -6 -13 -5.33301 -23 2c-8 6 -39 9 -93 9h-80l-2 -77c-1.33301 -51.333 -4 -81 -8 -89c-4.66699 -10 2 -16.667 20 -20s50.667 -4.33301 98 -3c30 1.33301 54.667 3.33301 74 6s31.833 5.33398 37.5 8.00098
s10.5 5.16699 14.5 7.5s7.66699 3.5 11 3.5c2.66699 0 4 -8.66699 4 -26c0 -10 -1 -17.167 -3 -21.5s-4.66699 -7.16602 -8 -8.49902l-19 -7.5c-9.33301 -3.66699 -18.666 -8.5 -27.999 -14.5c-12 -8 -49.667 -11.167 -113 -9.5s-107 6.5 -131 14.5
c-28 10 -42.333 17.667 -43 23c0 3.33301 4.33301 7.33301 13 12l18 9l-1 180c0 87.333 -0.666992 139.833 -2 157.5s-5.33301 30.167 -12 37.5l-14 15z" />
    <glyph glyph-name="F" unicode="F" 
d="M31 476c14.667 8 56.5029 13.1602 125.503 15.4932s104.5 3.83301 106.5 4.5c4 0.666992 17.667 -5.66602 41 -18.999c16.667 -9.33301 26.667 -16.333 30 -21s4.66602 -12.667 3.99902 -24c-1.33301 -12.667 -3.66602 -19.5 -6.99902 -20.5s-15 2.16699 -35 9.5
c-18.667 7.33301 -55.334 11 -110.001 11s-84.667 -3.33301 -90 -10c-4 -3.33301 -5.83301 -6.66602 -5.5 -9.99902s1.5 -5.66602 3.5 -6.99902s3.83301 -6.16602 5.5 -14.499s2.16699 -19.166 1.5 -32.499l-2 -35l62 2c12 0.666992 23.167 1.33398 33.5 2.00098
s18.5 1.16699 24.5 1.5s11.667 0.833008 17 1.5s9.5 1 12.5 1h7.5c2 0 3.5 -0.833008 4.5 -2.5s2 -3.16699 3 -4.5s2.16699 -3.66602 3.5 -6.99902c4 -12 6 -25.667 6 -41c0 -10.667 -0.833008 -17 -2.5 -19s-5.5 -1.66699 -11.5 1
c-10.667 3.33301 -38.667 6.16602 -84 8.49902s-69 2.16602 -71 -0.500977c-2 -3.33301 -2.66699 -38.666 -2 -105.999l1 -102l19 -18c11.333 -10.667 16.333 -18.334 15 -23.001s-9.33301 -7 -24 -7c-12.667 0 -33 4.83301 -61 14.5s-42 16.834 -42 21.501
s4 11.334 12 20.001c6 6.66699 9.66699 19.5 11 38.5s2.33301 69.833 3 152.5c1.33301 124 0.666016 188.333 -2.00098 193c-0.666992 0.666992 -3.33398 1 -8.00098 1c-8.66699 0 -12.667 2.33301 -12 7c0 5.33301 5.66699 11.333 17 18z" />
    <glyph glyph-name="G" unicode="G" horiz-adv-x="445" 
d="M154 492c51.333 15.333 99.834 16.166 145.501 2.49902s81.167 -39.5 106.5 -77.5c18 -26 21.333 -40.667 10 -44c-2 -0.666992 -4.66699 -1 -8 -1c-6 0 -10.833 -1.16699 -14.5 -3.5s-6.33398 -4.66602 -8.00098 -6.99902l-4.5 -6.5
c-1.33301 -2 -2.83301 -2.5 -4.5 -1.5s-3.83398 3.83301 -6.50098 8.5c-35.333 54.667 -78.666 82 -129.999 82c-78.667 0.666992 -129.334 -37 -152.001 -113c-16 -53.333 -15.333 -104.333 2 -153s46.666 -81.667 87.999 -99c28 -12 60.167 -14.667 96.5 -8
s63.833 20 82.5 40c6 6.66699 9.33301 14.5 10 23.5s0.333984 30.167 -0.999023 63.5c-2.66699 44 -6 67 -10 69c-1.33301 0.666992 -3.66602 0.666992 -6.99902 0c-9.33301 -2 -39 -3 -89 -3h-75l-5 19c-4.66699 16.667 -2.66699 26.667 6 30c10 4 44.333 5 103 3
c42 -1.33301 69.833 -1.5 83.5 -0.5s22.167 3.5 25.5 7.5c5.33301 6.66699 10.666 10 15.999 10c6.66699 0 11.167 -14.5 13.5 -43.5s3.5 -61 3.5 -96s0.666992 -55.833 2 -62.5c2 -9.33301 2 -16.666 0 -21.999s-8.33301 -14 -19 -26c-28 -30.667 -62.5 -52.667 -103.5 -66
s-83.833 -14.833 -128.5 -4.5s-82.667 33.833 -114 70.5c-19.333 22 -33.166 44.5 -41.499 67.5s-13.5 53.167 -15.5 90.5c-1.33301 26.667 -1.33301 47 0 61s5.33301 31 12 51c6 20.667 12.167 36.167 18.5 46.5s18.5 24.166 36.5 41.499c16 16 29.167 27.5 39.5 34.5
s22.5 12.5 36.5 16.5z" />
    <glyph glyph-name="H" unicode="H" horiz-adv-x="446" 
d="M136 506c0 -2 -5.50684 -11.8389 -16.5068 -29.5059s-16.5 -34.167 -16.5 -49.5c0 -16.667 -2 -38 -6 -64c-5.33301 -31.333 -4.66602 -47 2.00098 -47c2 0 5 1.66699 9 5c8.66699 6.66699 42.167 10.5 100.5 11.5s95.833 -1.83301 112.5 -8.5
c14 -5.33301 23.167 -6.83301 27.5 -4.5s4.83301 9.5 1.5 21.5c-2 9.33301 -4 24.833 -6 46.5s-4.66699 40.834 -8 57.501s-8.33301 28.334 -15 35.001c-10 11.333 -14.167 19.333 -12.5 24s9.5 7 23.5 7c12.667 0 22.667 -2.5 30 -7.5s15.333 -12.167 24 -21.5
s18.667 -16.666 30 -21.999l20 -11l-15 -9c-7.33301 -4.66699 -11.666 -13.667 -12.999 -27c-1.33301 -14.667 -2 -65.334 -2 -152.001c0 -80.667 0.666992 -129.667 2 -147s5 -28.666 11 -33.999c8.66699 -8 13 -13.667 13 -17c0 -2 -4.5 -6 -13.5 -12l-30.5 -20.5
c-11.333 -7.66699 -19.333 -14.167 -24 -19.5c-8 -8.66699 -21.667 -13.334 -41 -14.001c-12.667 -0.666992 -18.667 2.33301 -18 9c0.666992 4 4.66699 9.66699 12 17c10 9.33301 16.333 21.833 19 37.5s5.33398 54.834 8.00098 117.501l4 99l-248 -3l1 -109
c0.666992 -53.333 1.83398 -85.666 3.50098 -96.999s7.16699 -22.666 16.5 -33.999c12.667 -15.333 18.334 -24.666 17.001 -27.999c-2 -6 -12.333 -6.5 -31 -1.5s-35.667 12.5 -51 22.5c-22 15.333 -35 23 -39 23c-8 0 -8 5.66699 0 17c2 3.33301 4.33301 6.33301 7 9
c6.66699 6.66699 10.667 18.5 12 35.5s2 64.833 2 143.5c0 79.333 -0.666992 127.5 -2 144.5s-5.33301 29.167 -12 36.5l-14 14l29 20c19.333 12.667 32 22.667 38 30c2.66699 3.33301 8.83398 6.16602 18.501 8.49902s18.834 3.33301 27.501 3s13 -2.16602 13 -5.49902z
" />
    <glyph glyph-name="I" unicode="I" horiz-adv-x="160" 
d="M23 483.5c2.66699 5 20.4961 7.50098 53.4961 7.50098s54.167 -2.33301 63.5 -7c4.66699 -2.66699 7.33398 -4.83398 8.00098 -6.50098s0.166992 -3.5 -1.5 -5.5s-5.83398 -5.66699 -12.501 -11l-19 -15v-372l20 -18c13.333 -12.667 17.333 -21.334 12 -26.001
c-6 -6 -24.167 -9.66699 -54.5 -11s-51.166 0.333984 -62.499 5.00098l-20 8l26 21c16.667 14 23.334 23.833 20.001 29.5s-4.66602 67.167 -3.99902 184.5l1 176l-17 17c-11.333 10.667 -15.666 18.5 -12.999 23.5z" />
    <glyph glyph-name="J" unicode="J" horiz-adv-x="308" 
d="M180 490c0 4 4.33203 6.32812 12.999 6.99512s19.667 -0.5 33 -3.5s25.666 -7.16699 36.999 -12.5c23.333 -10.667 35 -18 35 -22s-4.66699 -10 -14 -18c-6 -6 -9.66699 -17.167 -11 -33.5s-1.66602 -64.166 -0.999023 -143.499v-178
c0 -2.66699 -1.83301 -7.16699 -5.5 -13.5s-9.5 -14.166 -17.5 -23.499s-18.167 -17.666 -30.5 -24.999s-27.333 -12.666 -45 -15.999s-37.834 -2.66602 -60.501 2.00098c-19.333 4 -38.166 13.167 -56.499 27.5s-28.833 28.166 -31.5 41.499l-10 49
c-4.66699 19.333 -6 33.166 -4 41.499s7.33301 12.5 16 12.5c6.66699 0 12.667 1.5 18 4.5s9.5 6 12.5 9s6.5 4.16699 10.5 3.5s8.66699 -4.33398 14 -11.001c8 -9.33301 10 -18 6 -26c-6.66699 -11.333 -9.16699 -26.666 -7.5 -45.999s6.5 -32.666 14.5 -39.999
c6 -6 12.167 -9.66699 18.5 -11s18.833 -1.66602 37.5 -0.999023c28 2 44.667 5.83301 50 11.5s8 68.5 8 188.5c0 88 -0.666992 141 -2 159s-5.66602 31.667 -12.999 41c-9.33301 13.333 -14 22 -14 26z" />
    <glyph glyph-name="K" unicode="K" horiz-adv-x="454" 
d="M102 439c0 -1.33301 -0.666016 -17.165 -1.99902 -47.498l-3.5 -77.5c-1 -21.333 -0.833008 -34.666 0.5 -39.999c2.66699 0 37.334 32.333 104.001 97c44 44 71.333 72.333 82 85s15 22.667 13 30s-1.83301 12.166 0.5 14.499s9.16602 4.16602 20.499 5.49902
c10.667 1.33301 18.5 1.16602 23.5 -0.500977s8.66699 -4.33398 11 -8.00098s8.16602 -8.66699 17.499 -15s21.666 -12.5 36.999 -18.5c25.333 -8.66699 38 -15.167 38 -19.5s-10.333 -6.83301 -31 -7.5c-22 0 -38.167 -2.16699 -48.5 -6.5s-24.5 -14.5 -42.5 -30.5
c-21.333 -18.667 -34.333 -28 -39 -28s-9.33398 -2.33301 -14.001 -7c-4 -3.33301 -2.83301 -12.5 3.5 -27.5s13.5 -30.333 21.5 -46s12 -25.167 12 -28.5c0 -2 5.66699 -14.833 17 -38.5l35.5 -75c12.333 -26.333 19.666 -42.666 21.999 -48.999s13.5 -12.666 33.5 -18.999
s30 -10.5 30 -12.5s-5.5 -6.5 -16.5 -13.5l-37.5 -24c-14 -9 -23.333 -15.833 -28 -20.5c-6.66699 -7.33301 -16.167 -11.833 -28.5 -13.5s-20.5 0.833008 -24.5 7.5c-2.66699 4.66699 -1.66699 9.33398 3 14.001c4.66699 5.33301 7 16.666 7 33.999s-2.66699 29.333 -8 36
c-4 4 -10.167 20.167 -18.5 48.5s-16.833 51.5 -25.5 69.5c-12 24.667 -21 45.334 -27 62.001c-6 16 -11.167 25.833 -15.5 29.5s-10.333 3.16699 -18 -1.5s-20.167 -15.667 -37.5 -33c-30 -29.333 -50.333 -46.666 -61 -51.999c-3.33301 -2 -5.83301 -3.83301 -7.5 -5.5
s-3 -3.33398 -4 -5.00098s-1.5 -5 -1.5 -10s0.166992 -9.83301 0.5 -14.5s1 -12.5 2 -23.5s1.5 -22.167 1.5 -33.5c1.33301 -31.333 3 -51 5 -59s8 -17 18 -27c13.333 -14 18.333 -22.333 15 -25c-5.33301 -6.66699 -14.666 -8.33398 -27.999 -5.00098
s-26.166 8.5 -38.499 15.5l-35.5 20.5c-11.333 6.66699 -17.666 10 -18.999 10c-4 0 -6 2 -6 6c0 6 4.33301 12.333 13 19c6.66699 5.33301 10.667 16.666 12 33.999s2 66.333 2 147c0 76.667 -0.5 124.834 -1.5 144.501s-4.16699 32.5 -9.5 38.5
c-7.33301 8 -10.333 13 -9 15c11.333 10.667 26.166 21.667 44.499 33s31.166 17.666 38.499 18.999c1.33301 0 4.33301 0.333008 9 1s7.83398 1.16699 9.50098 1.5s4.33398 0.666016 8.00098 0.999023s6 0.166016 7 -0.500977s2 -1.66699 3 -3s1 -3.16602 0 -5.49902
s-2.66699 -5.16602 -5 -8.49902s-5.5 -7.33301 -9.5 -12c-13.333 -15.333 -20 -29 -20 -41zM358.001 60.001c2.66699 -1.33301 5.16699 -1.16602 7.5 0.500977s3.5 3.66699 3.5 6s-1 4.5 -3 6.5c-2.66699 1.33301 -5.16699 1.16602 -7.5 -0.500977s-3.5 -3.66699 -3.5 -6
s1 -4.5 3 -6.5z" />
    <glyph glyph-name="L" unicode="L" horiz-adv-x="373" 
d="M52 485c16 9.33301 32 15.335 48 18.002s26 0.666992 30 -6c2.66699 -4 -1.66602 -13 -12.999 -27l-17 -21l1 -161c0.666992 -108 -1.83301 -168.167 -7.5 -180.5s-6.83398 -19.833 -3.50098 -22.5c2 -2 18 -3.83301 48 -5.5s63.333 -2.16699 100 -1.5
s61.667 3.66699 75 9c26 9.33301 41 13.666 45 12.999s5.66699 -7.66699 5 -21c0 -12 -1.66699 -20.167 -5 -24.5s-13.666 -10.833 -30.999 -19.5c-16.667 -8.66699 -31.5 -13.834 -44.5 -15.501s-44.5 -2.5 -94.5 -2.5c-69.333 0.666992 -116 4.66699 -140 12
c-27.333 8.66699 -40 17.667 -38 27c1.33301 4 5.16602 7.5 11.499 10.5s10.5 12.5 12.5 28.5c1.33301 16 2.33301 67.667 3 155c0.666992 82.667 0.5 133.667 -0.5 153s-4.5 32.666 -10.5 39.999c-7.33301 8.66699 -9.83301 14.834 -7.5 18.501s13.5 11.5 33.5 23.5z" />
    <glyph glyph-name="M" unicode="M" horiz-adv-x="525" 
d="M436 507c7.33301 6.66699 11.6641 10.001 12.9971 10.001c0.666992 0 2.83398 -3.66699 6.50098 -11s9.16699 -16.333 16.5 -27s15.666 -18.667 24.999 -24c10 -6 15.5 -10 16.5 -12s-1.33301 -5 -7 -9s-9.16699 -14.833 -10.5 -32.5
s-1.66602 -65.334 -0.999023 -143.001s1.66699 -125.167 3 -142.5s4.83301 -28 10.5 -32s7 -8.5 4 -13.5s-14.167 -17.5 -33.5 -37.5c-18 -18 -30.833 -29.5 -38.5 -34.5s-16.5 -7.5 -26.5 -7.5c-15.333 0 -23 1.16699 -23 3.5s6 11.166 18 26.499
c10 13.333 17 36.333 21 69s7 91.334 9 176.001c0.666992 52.667 0.333984 85.167 -0.999023 97.5s-5.33301 23.5 -12 33.5c-10 13.333 -15 25.666 -15 36.999s-2 18 -6 20c-7.33301 4.66699 -11 1.33398 -11 -9.99902c0 -6.66699 1.33301 -15.334 4 -26.001
c4.66699 -17.333 4.66699 -39.666 0 -66.999c-3.33301 -19.333 -15.5 -61.833 -36.5 -127.5s-36.5 -109.5 -46.5 -131.5c-6 -13.333 -8.83301 -22.333 -8.5 -27s3.5 -9.66699 9.5 -15c18 -15.333 9.33301 -25.333 -26 -30c-47.333 -6 -76 -2.33301 -86 11
c-4.66699 5.33301 -2.66699 11.666 6 18.999c14 11.333 14.333 27.333 1 48c-6 9.33301 -21.667 51.333 -47 126c-18 53.333 -28.833 88.333 -32.5 105s-5.5 39.334 -5.5 68.001c0.666992 40.667 -1 61 -5 61s-6 -6.83301 -6 -20.5s-5.33301 -26.834 -16 -39.501
c-8 -9.33301 -12.5 -19.833 -13.5 -31.5s-0.833008 -46.5 0.5 -104.5c2.66699 -119.333 6.33398 -187.333 11.001 -204c2.66699 -8.66699 8.33398 -18.667 17.001 -30c11.333 -16 16.5 -26.167 15.5 -30.5s-8.83301 -6.5 -23.5 -6.5c-7.33301 0 -15.166 2.83301 -23.499 8.5
s-20.5 16.834 -36.5 33.501c-20.667 20.667 -32.167 33.5 -34.5 38.5s-0.5 10.167 5.5 15.5s9.5 16.666 10.5 33.999s1.5 64 1.5 140c0 74 -0.5 120 -1.5 138s-4.16699 28.667 -9.5 32c-5.33301 2.66699 -6.83301 6 -4.5 10s10.166 12 23.499 24c20 19.333 31 32.333 33 39
c1.33301 4 3.16602 6.16699 5.49902 6.5s6.5 -1.16699 12.5 -4.5c10 -5.33301 25 -5.83301 45 -1.5s30.667 5.83301 32 4.5c2.66699 -2.66699 0 -10.667 -8 -24c-4.66699 -8 -7.33398 -14.667 -8.00098 -20s-0.166992 -9.83301 1.5 -13.5s4.16699 -10.667 7.5 -21
s6.33301 -22.166 9 -35.499c2 -12 14.667 -53.333 38 -124s35.5 -110.334 36.5 -119.001s2.66699 -14.167 5 -16.5s7.83301 -3.5 16.5 -3.5c9.33301 0 15.166 1.5 17.499 4.5s4.5 11.5 6.5 25.5c2.66699 16.667 15.334 59.5 38.001 128.5s35 111.5 37 127.5
c2 9.33301 4 18 6 26s3.5 13.5 4.5 16.5s1.16699 6.5 0.5 10.5s-2.66699 9 -6 15c-6 12.667 -8 20.334 -6 23.001c2 2 13.333 0.333008 34 -5s34.334 -4.33301 41.001 3z" />
    <glyph glyph-name="N" unicode="N" horiz-adv-x="455" 
d="M322 505c4.66699 6.66699 14.3438 8.32422 29.0107 4.99121s27.667 -10.333 39 -21c16 -14 29 -24.333 39 -31l16 -10l-13 -16c-6 -8 -9.83301 -20.333 -11.5 -37s-2.5 -59.334 -2.5 -128.001c0 -35.333 -0.666992 -74.333 -2 -117c0 -32 0.333008 -51 1 -57
s4 -10.333 10 -13h1c6.66699 -2.66699 11.167 -5.5 13.5 -8.5s2.16602 -6 -0.500977 -9s-5.5 -5.66699 -8.5 -8s-8.16699 -5.83301 -15.5 -10.5c-4 -2 -7 -3.66699 -9 -5l-8 -5.5c-3.33301 -2.33301 -6.33301 -4.66602 -9 -6.99902s-5 -4.83301 -7 -7.5
c-10 -10 -25.333 -15 -46 -15s-32.334 1.33301 -35.001 4s-0.333984 9.16699 6.99902 19.5s13.666 15.5 18.999 15.5c10 0 12.667 4 8 12c-3.33301 6 -10 10.667 -20 14c-8 2.66699 -14.833 7.33398 -20.5 14.001s-10.834 14.834 -15.501 24.501s-13.5 26.834 -26.5 51.501
s-27.833 50.334 -44.5 77.001c-32.667 54 -52.5 87.833 -59.5 101.5s-11.833 27.5 -14.5 41.5c-2.66699 15.333 -6.16699 24 -10.5 26s-10.5 -2.66699 -18.5 -14c-4.66699 -6.66699 -7.33398 -20.167 -8.00098 -40.5s0 -66.166 2 -137.499l4 -162l18 -19
c12.667 -13.333 18.5 -22.333 17.5 -27s-9.5 -6 -25.5 -4c-10.667 0.666992 -21.334 3.83398 -32.001 9.50098s-23.334 14 -38.001 25s-23.667 17.5 -27 19.5c-5.33301 3.33301 -7.83301 6 -7.5 8s4.16602 6 11.499 12l16 13v172c0.666992 78.667 0.5 127.167 -0.5 145.5
s-4.16699 28.166 -9.5 29.499c-8 2.66699 -11.833 7 -11.5 13s4.5 10.333 12.5 13s16 7.5 24 14.5s17 13.167 27 18.5s23 8.33301 39 9c28 0.666992 41 -3.66602 39 -12.999c-0.666992 -3.33301 -3 -7.33301 -7 -12c-10.667 -12 -13.334 -20.333 -8.00098 -25
c1.33301 -1.33301 3 -2 5 -2c3.33301 0 14.166 -15.833 32.499 -47.5l66.5 -116.5c26 -46 46.667 -80 62 -102c6 -9.33301 9.66699 -22.666 11 -39.999s2 -32 2 -44s1.33301 -18 4 -18c4 0 6 4.5 6 13.5s4.66699 20.167 14 33.5c7.33301 9.33301 11.5 20.833 12.5 34.5
s1.16699 51.834 0.5 114.501c-0.666992 71.333 -3 121.833 -7 151.5s-11 48.834 -21 57.501c-8 7.33301 -11 13 -9 17z" />
    <glyph glyph-name="O" unicode="O" horiz-adv-x="453" 
d="M171 498c13.333 3.33301 35.332 4.33203 65.999 2.99902c58.667 -2 106.334 -23 143.001 -63s57.334 -93 62.001 -159c6 -82 -10.667 -147.667 -50 -197s-94.333 -74 -165 -74c-66.667 0 -119.5 22.333 -158.5 67s-58.5 105.334 -58.5 182.001
c0 20.667 3.33301 45.167 10 73.5s14 50.5 22 66.5c12 22.667 30.167 43.5 54.5 62.5s49.166 31.833 74.499 38.5zM357.999 359.999c-12.667 27.333 -31.6631 48.668 -56.9961 64.001s-51.166 23 -77.499 23s-51.833 -8.83301 -76.5 -26.5s-43.334 -42.834 -56.001 -75.501
c-6.66699 -17.333 -10.334 -46.833 -11.001 -88.5s2 -72.834 8 -93.501c4.66699 -16 13.667 -32.167 27 -48.5s27.666 -28.5 42.999 -36.5s38.166 -11.667 68.499 -11s54.166 5.33398 71.499 14.001c29.333 16 49.5 36.667 60.5 62s16.5 63.333 16.5 114
c0 28.667 -1 49 -3 61s-6.66699 26 -14 42z" />
    <glyph glyph-name="P" unicode="P" horiz-adv-x="392" 
d="M56 480c12.667 6 25.167 9.83301 37.5 11.5s34.833 2.16699 67.5 1.5c55.333 -0.666992 93.833 -2.83398 115.5 -6.50098s40.167 -11.167 55.5 -22.5c20.667 -15.333 34.167 -29.5 40.5 -42.5s9.5 -35.167 9.5 -66.5c0 -25.333 -1 -41.833 -3 -49.5
s-7.66699 -17.5 -17 -29.5c-18 -22 -35.667 -35.667 -53 -41s-53.333 -7.66602 -108 -6.99902l-96 2l-1 -49c-1.33301 -79.333 6.66699 -128.333 24 -147c9.33301 -10 13.333 -16.333 12 -19s-9.66602 -4 -24.999 -4c-12 0 -32.5 6 -61.5 18s-43.5 20.667 -43.5 26
c0 2.66699 5.33301 9 16 19l17 15v174c0 107.333 -2 165.333 -6 174c-1.33301 4 -4.33301 7.66699 -9 11c-2.66699 2 -4.83398 4 -6.50098 6s-2.66699 3.66699 -3 5s0.166992 2.33301 1.5 3zM294 415c-11.333 8 -22.002 12.666 -32.002 13.999s-32.667 2 -68 2
c-70 -0.666992 -105 -7 -105 -19c0 -2.66699 2.33301 -6.33398 7 -11.001c3.33301 -4 5.66602 -24.333 6.99902 -61l2 -56l89 2c36.667 0.666992 62.834 2.33398 78.501 5.00098s26.834 7.33398 33.501 14.001s11.667 17.667 15 33
c4.66699 18.667 4.83398 33.667 0.500977 45s-13.5 22 -27.5 32z" />
    <glyph glyph-name="Q" unicode="Q" horiz-adv-x="454" 
d="M361 4c6 0 13.1689 1.00098 21.502 3.00098s15.833 4.16699 22.5 6.5l19 6.5c6 2 10.833 2.83301 14.5 2.5s5.5 -1.83301 5.5 -4.5c0 -6.66699 -9.83301 -16.834 -29.5 -30.501s-41.834 -25.5 -66.501 -35.5l-51 -22l-12 16c-8 10 -11.667 19.333 -11 28
c0.666992 5.33301 3 9 7 11s11.667 3 23 3c15.333 0 27.166 2.66699 35.499 8s15.5 8 21.5 8zM168.002 498.001c16 5.33301 40.5 6.16406 73.5 2.49707s58.5 -10.167 76.5 -19.5c76 -38 117.333 -105.333 124 -202c5.33301 -74 -8.33398 -135.5 -41.001 -184.5
s-78.667 -77.167 -138 -84.5c-24 -2.66699 -49.333 -2.16699 -76 1.5s-48.334 9.83398 -65.001 18.501c-21.333 10.667 -41.333 28 -60 52s-32 49 -40 75c-5.33301 17.333 -8.83301 36.333 -10.5 57s-2 39.334 -1 56.001s2.83301 32.834 5.5 48.501
s4.83398 27.167 6.50098 34.5s2.83398 12 3.50098 14c10 27.333 28.333 53.5 55 78.5s55.667 42.5 87 52.5zM247.002 67.999c0 3.33301 -15.5049 12.3301 -46.5049 26.9971s-46.5 23.667 -46.5 27c0 2 5.83301 5.33301 17.5 10s25.834 6.83398 42.501 6.50098
s30.334 -5.5 41.001 -15.5c10.667 -9.33301 16.334 -16 17.001 -20s-2.66602 -9.66699 -9.99902 -17c-8.66699 -8.66699 -8 -13.334 2 -14.001c7.33301 -0.666992 17 2 29 8c17.333 8.66699 30.833 18.334 40.5 29.001s18.167 26 25.5 46c20.667 54.667 24 109.667 10 165
c-7.33301 27.333 -15.166 48 -23.499 62s-20.833 27 -37.5 39c-11.333 8 -21.666 13.333 -30.999 16s-23.333 4.33398 -42 5.00098c-26 1.33301 -46.333 -0.333984 -61 -5.00098s-29.667 -14 -45 -28c-32.667 -30.667 -49.334 -84.667 -50.001 -162
c0 -31.333 1 -52.666 3 -63.999s7 -25.666 15 -42.999c12.667 -24.667 28.667 -42.667 48 -54c9.33301 -6 22.5 -11.167 39.5 -15.5s31.167 -6.83301 42.5 -7.5s18 1 20 5z" />
    <glyph glyph-name="R" unicode="R" horiz-adv-x="457" 
d="M78.5 489.5c1.66699 2.33301 36.999 3.33203 105.999 2.99902s110.833 -1.83301 125.5 -4.5c14 -2.66699 30 -10.667 48 -24s30.333 -26 37 -38c6.66699 -13.333 10 -31.333 10 -54c0 -32 -7 -56.667 -21 -74s-33.667 -26 -59 -26c-9.33301 0 -16.833 -1 -22.5 -3
s-9.16699 -5 -10.5 -9s-2 -7.83301 -2 -11.5s1.83301 -8.83398 5.5 -15.501s6.66699 -11.834 9 -15.501l10.5 -16.5l4 -4c22 -33.333 33 -52.166 33 -56.499s7.66699 -16.166 23 -35.499c10 -12 17.833 -19.833 23.5 -23.5s13.167 -5.5 22.5 -5.5
c18.667 0 27.334 -3 26.001 -9c-0.666992 -4 -5.33398 -8 -14.001 -12c-12 -5.33301 -29.667 -16 -53 -32c-32.667 -24 -54.334 -32 -65.001 -24c-5.33301 4.66699 -4.66602 13.334 2.00098 26.001c4 8 6 14.167 6 18.5s-1.66699 10.5 -5 18.5l-96 189l-49 3
c-32 2.66699 -51.333 5 -58 7c-2 0.666992 -3.66699 0 -5 -2s-2.33301 -6.83301 -3 -14.5s-1 -17.667 -1 -30v-53.5c0 -50.667 0.833008 -81.5 2.5 -92.5s6.83398 -22.167 15.501 -33.5c12 -16 18 -25.167 18 -27.5s-7.66699 -3.5 -23 -3.5s-37.333 9 -66 27l-43 27l33 31
v171c0 82.667 -0.666992 132.334 -2 149.001s-5 27 -11 31c-10 5.33301 -14 10 -12 14s11.333 10 28 18c20 9.33301 30.833 15.166 32.5 17.499zM300.999 430.999c-9.33301 4.66699 -40.0039 6.99805 -92.0039 6.99805c-32.667 0 -55 -0.833008 -67 -2.5
s-22.667 -5.16699 -32 -10.5c-8.66699 -5.33301 -14 -9.33301 -16 -12s-2.16699 -5.5 -0.5 -8.5s3.5 -10 5.5 -21s2.66699 -24.167 2 -39.5c-0.666992 -8.66699 -1 -15.5 -1 -20.5s0.333008 -9 1 -12s1.5 -4.83301 2.5 -5.5s2.83301 -0.666992 5.5 0
c4 1.33301 23.833 3 59.5 5s70.334 3.66699 104.001 5s50.834 2.33301 51.501 3s4.33398 7.33398 11.001 20.001c20.667 38.667 9.33398 69.334 -33.999 92.001z" />
    <glyph glyph-name="S" unicode="S" horiz-adv-x="409" 
d="M386 366c-7.33301 0 -14.499 -4.49219 -21.499 -13.4922s-11.167 -13.5 -12.5 -13.5c-2.66699 0 -10.334 12.667 -23.001 38c-14.667 28.667 -34.667 49 -60 61s-54 14.667 -86 8c-27.333 -6 -47.833 -16.667 -61.5 -32s-18.167 -32.666 -13.5 -51.999
c4 -12.667 14.5 -23.334 31.5 -32.001s46.833 -18 89.5 -28c29.333 -6.66699 51.5 -12.834 66.5 -18.501s30.5 -14.167 46.5 -25.5c18 -12.667 29.667 -22.334 35 -29.001s10 -17.334 14 -32.001c8.66699 -32.667 6.33398 -64.834 -6.99902 -96.501
s-34.333 -55.167 -63 -70.5c-18 -8.66699 -40 -14.834 -66 -18.501s-53.5 -3.66699 -82.5 0s-57.5 15 -85.5 34s-50 44.5 -66 76.5c-13.333 26 -14.333 38.667 -3 38c2.66699 0 5.66699 -0.666992 9 -2c6.66699 -2.66699 12.334 1.66602 17.001 12.999
c4 11.333 9.16699 16.833 15.5 16.5s10.833 -6.83301 13.5 -19.5c2 -10 6.33301 -18.667 13 -26s11 -14.666 13 -21.999c2 -8.66699 9 -17.667 21 -27s26 -16.666 42 -21.999c30 -10.667 62.667 -11.167 98 -1.5s58.333 25.5 69 47.5c12 25.333 12.667 48.666 2 69.999
c-6 12 -15.5 21 -28.5 27s-41.167 15 -84.5 27c-72 19.333 -119.667 38.666 -143 57.999s-33 47.666 -29 84.999c3.33301 27.333 13 49.666 29 66.999s40.333 32 73 44c19.333 7.33301 45.166 9.66602 77.499 6.99902s58.5 -9 78.5 -19
c33.333 -17.333 60.666 -42 81.999 -74c16.667 -27.333 16.667 -41.666 0 -42.999z" />
    <glyph glyph-name="T" unicode="T" horiz-adv-x="428" 
d="M332 497c4 1.33301 7.00098 2.00098 9.00098 2.00098s5.16699 -1.33301 9.5 -4s8.16602 -5.5 11.499 -8.5s8.33301 -6.66699 15 -11l20 -12.5c8.66699 -4.66699 14.334 -9.16699 17.001 -13.5s4 -11.5 4 -21.5c0 -13.333 -2 -20.5 -6 -21.5s-15.333 2.5 -34 10.5
c-14.667 6.66699 -41.667 12.167 -81 16.5s-61 4.5 -65 0.5c-2.66699 -2.66699 -0.833984 -10.167 5.49902 -22.5s9.5 -72.833 9.5 -181.5v-163l18 -15c7.33301 -6 11.666 -10.5 12.999 -13.5s0.333008 -6.16699 -3 -9.5c-5.33301 -4.66699 -24.5 -7.5 -57.5 -8.5
s-54.833 0.833008 -65.5 5.5c-6 2 -8.5 4.33301 -7.5 7s6.16699 9 15.5 19l21 22v159c0 65.333 0.666992 109.5 2 132.5s4 38.5 8 46.5c4.66699 8.66699 7 14.334 7 17.001s-2.33301 5 -7 7c-8.66699 3.33301 -35 2 -79 -4s-70 -11.667 -78 -17
c-9.33301 -6 -15.666 -7.83301 -18.999 -5.5s-5 9.83301 -5 22.5c0 9.33301 3.33301 17.666 10 24.999s18.667 15.666 36 24.999c10 4.66699 23.333 7.66699 40 9s51.667 1.66602 105 0.999023c81.333 -1.33301 125 0.333984 131 5.00098z" />
    <glyph glyph-name="U" unicode="U" horiz-adv-x="422" 
d="M59 489c13.333 10 27.835 16.667 43.502 20s25.167 2 28.5 -4c2.66699 -4 -2 -13.333 -14 -28l-18 -22v-162c0 -30 0.166992 -52.667 0.5 -68s0.5 -31.333 0.5 -48s0.833008 -28.667 2.5 -36s3.16699 -14.833 4.5 -22.5s4 -13.167 8 -16.5s7.66699 -6.66602 11 -9.99902
s8.33301 -7 15 -11c16 -10 38 -15 66 -15c25.333 0 46.166 4 62.499 12s30.166 20.667 41.499 38c8 11.333 12.5 24.5 13.5 39.5s1.16699 58.833 0.5 131.5c-0.666992 73.333 -2.33398 120.333 -5.00098 141s-9.66699 39.667 -21 57c-8 11.333 -10.667 18.333 -8 21
c4 4 14.333 5.5 31 4.5s25.667 -3.83301 27 -8.5c2.66699 -6 13.667 -16.333 33 -31l30 -21l-13 -14c-6 -7.33301 -9.66699 -18.833 -11 -34.5s-2 -58.834 -2 -129.501c0 -60.667 -0.666992 -102.334 -2 -125.001s-4.33301 -39 -9 -49c-12 -28.667 -29.5 -49.667 -52.5 -63
s-54.833 -21 -95.5 -23c-65.333 -3.33301 -114.666 9.66699 -147.999 39c-19.333 17.333 -31.5 38.5 -36.5 63.5s-7.83301 80.167 -8.5 165.5c-0.666992 72 -1.66699 116 -3 132s-5 26.333 -11 31c-6.66699 4.66699 -10 7.83398 -10 9.50098s3 4.16699 9 7.5
c8.66699 5.33301 22 15 40 29z" />
    <glyph glyph-name="V" unicode="V" horiz-adv-x="471" 
d="M10 448c0 1.33301 3.82812 4.17383 11.4951 8.50684s17 10 28 17s19.5 13.5 25.5 19.5c8.66699 9.33301 19.334 15.166 32.001 17.499s21 0.166016 25 -6.50098c2.66699 -4.66699 0.666992 -12.334 -6 -23.001c-0.666992 -0.666992 -1 -1.33398 -1 -2.00098
c-2 -2 -3.33301 -4 -4 -6s-0.833984 -7.33301 -0.500977 -16s2.33301 -19.667 6 -33s9.83398 -33.166 18.501 -59.499s19.667 -57.5 33 -93.5c6.66699 -16.667 12.334 -32.334 17.001 -47.001s8.16699 -26.667 10.5 -36s4.33301 -17.833 6 -25.5s3 -13.5 4 -17.5
s1.83301 -7.5 2.5 -10.5s1.83398 -5 3.50098 -6s3.5 -1.66699 5.5 -2s5.33301 -0.5 10 -0.5c9.33301 0 15.166 1.66699 17.499 5s4.83301 13.333 7.5 30c1.33301 10.667 3.33301 20.334 6 29.001s5.83398 17.5 9.50098 26.5s10 25.667 19 50s18.5 52.5 28.5 84.5
c17.333 52.667 27 84.667 29 96s0.333008 22.333 -5 33c-6.66699 15.333 -9.5 24.333 -8.5 27s8.5 4 22.5 4c12.667 0 22.5 -2.5 29.5 -7.5s14.833 -12 23.5 -21s18.334 -16.167 29.001 -21.5c11.333 -6 16.666 -11.833 15.999 -17.5s-7 -9.16699 -19 -10.5s-20 -7 -24 -17
l-32 -80l-48 -128c-20.667 -56 -34.667 -92.333 -42 -109c-7.33301 -15.333 -11.166 -25.5 -11.499 -30.5s2.16699 -11.5 7.5 -19.5c6.66699 -12 8.33398 -19.667 5.00098 -23s-22.333 -5 -57 -5c-43.333 -0.666992 -64.666 4.33301 -63.999 15
c0 3.33301 2.33301 7.66602 7 12.999c6.66699 7.33301 10.167 13.833 10.5 19.5s-2.83398 13.5 -9.50098 23.5c-5.33301 8 -21.833 51.167 -49.5 129.5s-44.5 123.166 -50.5 134.499c-5.33301 11.333 -10 23.166 -14 35.499s-7.83301 20.666 -11.5 24.999
s-11.167 9.5 -22.5 15.5c-17.333 8.66699 -26 14 -26 16z" />
    <glyph glyph-name="W" unicode="W" horiz-adv-x="643" 
d="M83 520c2 2.66699 8.83789 4.5 20.5049 5.5s20.834 0.5 27.501 -1.5c1.33301 0 0.333008 -4 -3 -12s-6.83301 -18.5 -10.5 -31.5s-5.5 -24.167 -5.5 -33.5c1.33301 -24.667 12 -75.834 32 -153.501s30 -118.5 30 -122.5c0 -6 4.5 -15.667 13.5 -29s15.833 -20 20.5 -20
c4 0 6 12.333 6 37c0 17.333 8.16699 61.833 24.5 133.5s27.833 113.834 34.5 126.501c6.66699 14 8.16699 24.667 4.5 32s-7.66699 13.833 -12 19.5s-5.16602 9.83398 -2.49902 12.501c3.33301 3.33301 20.666 4.83301 51.999 4.5s51 -2.16602 59 -5.49902
c6 -2.66699 9 -4.83398 9 -6.50098s-3.66699 -6.16699 -11 -13.5l-14 -16l13 -32c12.667 -30.667 25.834 -77.5 39.501 -140.5s20.167 -104.833 19.5 -125.5l-3 -38l15 14c9.33301 8 16.5 19.333 21.5 34s13.5 47.667 25.5 99c22.667 97.333 35.667 158.666 39 183.999
s0.666016 46 -8.00098 62c-6 11.333 -7.66699 18.666 -5 21.999s10.667 5 24 5c9.33301 0 16 -1.5 20 -4.5s6.5 -7 7.5 -12s4.83301 -13.167 11.5 -24.5s16 -23.333 28 -36l14.5 -15l10 -11c2.33301 -2.66699 3.16602 -4 2.49902 -4
c-11.333 -5.33301 -20.333 -11.166 -27 -17.499s-12.334 -13 -17.001 -20s-9.33398 -18.167 -14.001 -33.5s-9.16699 -31 -13.5 -47l-19.5 -73.5c-8.66699 -33 -18.334 -66.167 -29.001 -99.5c-10.667 -34.667 -13.667 -54.334 -9 -59.001
c5.33301 -5.33301 6.16602 -10.333 2.49902 -15s-15.834 -13.667 -36.501 -27c-27.333 -18 -49.333 -27 -66 -27c-17.333 0 -26.666 2.33301 -27.999 7s5 12.667 19 24c11.333 8.66699 18 15.667 20 21s1.5 9.66602 -1.5 12.999s-7.5 9.66602 -13.5 18.999
s-10 20.333 -12 33c-2 11.333 -9 41.666 -21 90.999s-20 86.333 -24 111c-3.33301 19.333 -6.33301 31.833 -9 37.5s-6.66699 8.5 -12 8.5s-9 -2.16699 -11 -6.5s-5.33301 -17.166 -10 -38.499l-21 -96l-28 -117c-4.66699 -19.333 -10 -30 -16 -32
c-7.33301 -3.33301 -10 -9.16602 -8 -17.499s8.33301 -16.166 19 -23.499c21.333 -16 23.666 -25.333 6.99902 -28c-21.333 -3.33301 -47 2.66699 -77 18c-2 0.666992 -4 1.66699 -6 3c-12.667 7.33301 -20.334 11.833 -23.001 13.5s-5.16699 5.83398 -7.5 12.501
s-3.33301 13.5 -3 20.5s-1.66699 21.667 -6 44s-10.833 47.833 -19.5 76.5c-36 124.667 -59 194.334 -69 209.001c-5.33301 7.33301 -12.666 11 -21.999 11c-12 0 -14.667 5 -8 15c4 5.33301 10.333 10.666 19 15.999c8.66699 6 16.5 13.833 23.5 23.5
s12.833 19.5 17.5 29.5s8 16 10 18z" />
    <glyph glyph-name="X" unicode="X" horiz-adv-x="470" 
d="M198 273c0 4 -7.66797 16.9971 -23.001 38.9971s-23 34 -23 36c0 0.666992 -4.5 8.33398 -13.5 23.001s-19.667 29.5 -32 44.5s-22.166 22.5 -29.499 22.5c-10.667 0.666992 -20.5 2.33398 -29.5 5.00098s-13.5 6 -13.5 10c0 2.66699 12 10 36 22s37 19.333 39 22
c2.66699 4.66699 11.667 7 27 7c12.667 0 21.334 -3 26.001 -9s3.66699 -13 -3 -21c-1.33301 -1.33301 -2.33301 -2.5 -3 -3.5s-1 -2.33301 -1 -4s0.166992 -3.16699 0.5 -4.5s1 -3.16602 2 -5.49902s2.33301 -4.83301 4 -7.5s3.66699 -6.33398 6 -11.001
s5 -9.33398 8 -14.001s6.5 -10.834 10.5 -18.501s8.33301 -15.5 13 -23.5c13.333 -25.333 24.333 -40 33 -44s17 2 25 18l18.5 35c6.33301 12 11.5 21 15.5 27s8.16699 12.833 12.5 20.5s7 13.167 8 16.5s1.83301 7.83301 2.5 13.5s-0.333008 10.167 -3 13.5
c-4.66699 10.667 -6 17.667 -4 21c2.66699 5.33301 11 6.83301 25 4.5s24.667 -7.16602 32 -14.499c10 -9.33301 24.333 -17.666 43 -24.999s28 -14.666 28 -21.999c0 -5.33301 -6.33301 -8 -19 -8c-16 0 -28 -3 -36 -9s-20.333 -21.333 -37 -46
c-7.33301 -11.333 -14.166 -21.166 -20.499 -29.499l-14.5 -19c-3.33301 -4.33301 -6.33301 -7.83301 -9 -10.5s-4.5 -4.66699 -5.5 -6s-1.83301 -2.5 -2.5 -3.5s-1 -2.5 -1 -4.5c0 -6 -3.33301 -11.667 -10 -17c-9.33301 -8 -10 -20.333 -2 -37s32.333 -51.667 73 -105
c16.667 -22 25 -35.333 25 -40c0 -6.66699 7.33301 -14.167 22 -22.5s28 -12.5 40 -12.5c27.333 0 28.333 -7.66699 3 -23l-28 -16c-20.667 -11.333 -33 -19 -37 -23c-4 -3.33301 -10.833 -6 -20.5 -8s-18.5 -2.66699 -26.5 -2s-12 3 -12 7s2.33301 10 7 18
c3.33301 4.66699 3.83301 11 1.5 19s-8.83301 22 -19.5 42l-43 87c-10.667 20.667 -19.5 32.5 -26.5 35.5s-13.5 -2.16699 -19.5 -15.5c-7.33301 -16.667 -18.333 -37.167 -33 -61.5s-25.834 -45 -33.501 -62s-10.5 -31.833 -8.5 -44.5s2.16699 -20 0.5 -22
s-7.83398 -3 -18.501 -3c-9.33301 0 -17.333 1.5 -24 4.5s-15.5 8 -26.5 15s-22.833 13.167 -35.5 18.5c-18 8 -27.333 15.167 -28 21.5s8 10.166 26 11.499c15.333 1.33301 30.333 10 45 26l33 36c8 8 12 13.333 12 16c0 1.33301 12 20.833 36 58.5s36 58.167 36 61.5z
M371.999 54.9971c2 3.33301 1.33301 8.16797 -2 14.501s-6.33301 5.5 -9 -2.5c-2.66699 -6.66699 -1.66699 -11.334 3 -14.001c3.33301 -2 6 -1.33301 8 2zM102.999 56.999c6 0 8.16895 2.16699 6.50195 6.5s-3.83398 6.5 -6.50098 6.5s-4.83398 -2.16699 -6.50098 -6.5
s0.5 -6.5 6.5 -6.5z" />
    <glyph glyph-name="Y" unicode="Y" horiz-adv-x="455" 
d="M33 468c12.667 5.33301 23.3311 12.0029 31.998 20.0029s15.834 13.833 21.501 17.5s13.167 4.83398 22.5 3.50098c10 -0.666992 15.833 -2.33398 17.5 -5.00098s1.83398 -10.667 0.500977 -24c-0.666992 -10.667 0.666016 -21.334 3.99902 -32.001
s10.666 -26.334 21.999 -47.001l43 -83c10.667 -20 17.667 -31.333 21 -34c5.33301 -3.33301 12.5 2 21.5 16s18 29.667 27 47s15.167 27 18.5 29c4 2.66699 6 7 6 13c0 4.66699 6.5 18.334 19.5 41.001s17.5 40 13.5 52c-4.66699 12.667 -6.16699 20.667 -4.5 24
s8.5 5 20.5 5c10 0 18.167 -2.33301 24.5 -7s14.166 -11.167 23.499 -19.5s21 -15.833 35 -22.5c14.667 -6.66699 22.334 -11.334 23.001 -14.001c0.666992 -1.33301 -1.66602 -4 -6.99902 -8c-8 -5.33301 -17 -8 -27 -8s-24 -11.667 -42 -35
c-13.333 -17.333 -30.833 -42.166 -52.5 -74.499s-32.5 -49.833 -32.5 -52.5c0 -2 -5.66699 -11.667 -17 -29c-7.33301 -12 -11.666 -23 -12.999 -33s-1.66602 -32 -0.999023 -66c1.33301 -34.667 3 -56.334 5 -65.001s7.33301 -17.667 16 -27
c4.66699 -4.66699 8 -8.16699 10 -10.5s3.16699 -4.5 3.5 -6.5s0 -3.33301 -1 -4s-3.16699 -1.66699 -6.5 -3c-8 -3.33301 -27.667 -5 -59 -5s-51 1.66699 -59 5c-7.33301 3.33301 -10 6.33301 -8 9c2 2 6.66699 6 14 12c9.33301 7.33301 15 15 17 23s3.66699 30.333 5 67
l4 75l-22 39c-14.667 26 -38.334 63.667 -71.001 113c-21.333 32 -36 52.333 -44 61s-16.333 13.667 -25 15c-14.667 1.33301 -22 4.66602 -22 9.99902s7.66699 11.333 23 18z" />
    <glyph glyph-name="Z" unicode="Z" horiz-adv-x="442" 
d="M340 497c3.33301 4.66699 6.83008 6.1709 10.4971 4.50391s16.5 -9.83398 38.5 -24.501c11.333 -7.33301 20.833 -14.333 28.5 -21s11.167 -11.334 10.5 -14.001c-2 -4 -12.667 -7.33301 -32 -10s-29.666 -8.33398 -30.999 -17.001c-1.33301 -6.66699 -7 -17.667 -17 -33
s-35.667 -52.666 -77 -111.999l-75 -108c-18.667 -29.333 -36 -48 -52 -56c-6.66699 -3.33301 -11.834 -6.66602 -15.501 -9.99902s-5.16699 -5.66602 -4.5 -6.99902c7.33301 -12 49.5 -17.167 126.5 -15.5s127.5 8.83398 151.5 21.501c17.333 9.33301 27 13 29 11
s2 -10.667 0 -26c-1.33301 -10 -4.16602 -17.667 -8.49902 -23s-14.5 -12.333 -30.5 -21l-35 -20h-272l-38 21c-14 7.33301 -23.833 13.5 -29.5 18.5s-8.16699 9.5 -7.5 13.5c1.33301 6 8 9 20 9s23.5 0.833008 34.5 2.5s16.5 7.16699 16.5 16.5
c0 7.33301 11 25.666 33 54.999s33.667 45.666 35 48.999c2 5.33301 9.83301 17.5 23.5 36.5l47 65.5c17.667 24.667 30.834 44 39.501 58c14 20.667 22.333 31 25 31s9.66699 4.33301 21 13l16 13l-26 11c-18 6 -42.5 8.5 -73.5 7.5s-60.5 -3.16699 -88.5 -6.5
s-44.667 -6 -50 -8c-12.667 -5.33301 -20.5 -6.83301 -23.5 -4.5s-4.5 10.166 -4.5 23.499c0 9.33301 1.66699 16 5 20s12 9.33301 26 16c14.667 7.33301 29 11.666 43 12.999s46.667 1.66602 98 0.999023c72.667 -0.666992 110.334 1.33301 113.001 6z" />
    <glyph glyph-name="bracketleft" unicode="[" horiz-adv-x="270" 
d="M57 446c-12 16 -12.3301 25.667 -0.99707 29c1.33301 0 25.333 1.66699 72 5c8.66699 0.666992 16.667 1.33398 24 2.00098c4.66699 0.666992 18 -3 40 -11c14.667 -4.66699 23.834 -8.66699 27.501 -12s5.5 -9.33301 5.5 -18c0 -10.667 -2.33301 -16.334 -7 -17.001
s-21.334 2 -50.001 8c-24.667 5.33301 -40.667 6.66602 -48 3.99902c-5.33301 -2 -8 -4.16699 -8 -6.5s2.33301 -8.16602 7 -17.499c7.33301 -14 10.833 -69.667 10.5 -167s0.5 -152.666 2.5 -165.999c2.66699 -13.333 5.5 -26.333 8.5 -39s5.33301 -22 7 -28
s3.16699 -12 4.5 -18s2 -10.333 2 -13s-0.5 -5.16699 -1.5 -7.5s-2.83301 -4.83301 -5.5 -7.5c-4.66699 -4.66699 -8.33398 -7 -11.001 -7s-7 2.66699 -13 8c-8.66699 8 -13 15.667 -13 23c0 22 -3 34 -9 36c-4.66699 1.33301 -8.66699 -5 -12 -19
c-1.33301 -7.33301 -4.33301 -17 -9 -29l-12 -30c-3.33301 -8 -4 -12.667 -2 -14c3.33301 -4 22.333 -5 57 -3s61 5.33301 79 10c24.667 6.66699 40 10.667 46 12c4 0.666992 7.16699 -1.66602 9.5 -6.99902s3.16602 -11.333 2.49902 -18s-3 -11.334 -7 -14.001
c-8.66699 -7.33301 -33.667 -14 -75 -20s-74.333 -8 -99 -6c-50.667 4.66699 -73.334 11 -68.001 19c1.33301 3.33301 7 6.66602 17 9.99902c8 2.66699 13 6.66699 15 12s3.33301 19 4 41c1.33301 32 4.83301 51.333 10.5 58s9.5 74.667 11.5 204
c1.33301 96.667 1.5 154 0.5 172s-5.16699 32 -12.5 42z" />
    <glyph glyph-name="backslash" unicode="\" horiz-adv-x="332" 
d="M10 467c2 5.33301 19.3301 13.999 51.9971 25.999s52.334 14.333 59.001 7c2.66699 -2.66699 2 -11 -2 -25c-6.66699 -25.333 11.833 -87.5 55.5 -186.5s76.834 -165.833 99.501 -200.5c2.66699 -4.66699 6.5 -8.83398 11.5 -12.501s9.66699 -6.16699 14 -7.5
s8.33301 -2.66602 12 -3.99902s6.5 -2.66602 8.5 -3.99902s2.66699 -3 2 -5c-1.33301 -4 -17 -12.667 -47 -26c-44.667 -18.667 -70 -22.667 -76 -12c-1.33301 2 -1.66602 4.33301 -0.999023 7c4 13.333 6.16699 24 6.5 32s-0.333984 13.5 -2.00098 16.5
s-3.83398 7.83301 -6.50098 14.5s-5 14 -7 22c-5.33301 28.667 -28.333 89.667 -69 183s-71.667 146 -93 158c-5.33301 3.33301 -9.66602 6.5 -12.999 9.5s-4.66602 5.5 -3.99902 7.5zM251.997 53.999c4 4.66699 3 10.998 -3 18.998c-4.66699 6.66699 -7.66699 10 -9 10
s-3 -3 -5 -9c-2 -4.66699 -2.16699 -9.16699 -0.5 -13.5s4 -7.16602 7 -8.49902s6.5 -0.666016 10.5 2.00098z" />
    <glyph glyph-name="bracketright" unicode="]" horiz-adv-x="266" 
d="M96 477c20 2.66699 41.668 3.33496 65.001 2.00195s41.666 -4.33301 54.999 -9l15 -6l-14 -15c-6.66699 -7.33301 -11 -17.5 -13 -30.5s-4 -44.5 -6 -94.5c-2 -55.333 -0.833008 -116.833 3.5 -184.5s9.5 -105.5 15.5 -113.5c4 -5.33301 6.66699 -22.666 8 -51.999
c0.666992 -19.333 2 -31.833 4 -37.5s6 -9.83398 12 -12.501c10 -3.33301 15 -8 15 -14c0 -8 -19.5 -14.333 -58.5 -19s-73.833 -4.66699 -104.5 0c-37.333 5.33301 -60.833 10.166 -70.5 14.499s-13.5 11.833 -11.5 22.5c1.33301 8.66699 3.5 13.667 6.5 15
s9.83301 1 20.5 -1c22 -4 49.167 -6.83301 81.5 -8.5s54.5 -1.5 66.5 0.5c12 2.66699 19.5 6.66699 22.5 12s0.5 11 -7.5 17c-3.33301 3.33301 -7.16602 11.166 -11.499 23.499l-12 34.5c-3.66699 10.667 -6.16699 16 -7.5 16c-4 0 -7.16699 -3.83301 -9.5 -11.5
s-3.5 -16.834 -3.5 -27.501c0 -12 -3.16699 -22 -9.5 -30s-13.166 -10.667 -20.499 -8c-4.66699 2 -7.33398 5.16699 -8.00098 9.5s0 13.166 2 26.499c2.66699 20.667 6.66699 35.334 12 44.001c4 8 7.66699 72 11 192s5.66602 183.333 6.99902 190
c1.33301 5.33301 0.666016 8.83301 -2.00098 10.5s-10 2.5 -22 2.5s-23.5 -0.666992 -34.5 -2s-18.833 -2.66602 -23.5 -3.99902s-9.16699 -2 -13.5 -2s-7.16602 1 -8.49902 3s-2.33301 5.66699 -3 11c-2 11.333 0.333008 19.333 7 24s21.667 8.66699 45 12z" />
    <glyph glyph-name="a" unicode="a" horiz-adv-x="351" 
d="M100 344c14.667 5.33301 36.165 6.99707 64.498 4.99707s48.5 -6.66699 60.5 -14c18.667 -10.667 30.834 -25.167 36.501 -43.5s8.5 -51.166 8.5 -98.499c0 -35.333 -0.833008 -60 -2.5 -74s-5.16699 -26.333 -10.5 -37c-12 -25.333 -13 -35.333 -3 -30
c2 1.33301 4.33301 3 7 5c6 4.66699 16.667 10.167 32 16.5s27.333 10.166 36 11.499c6.66699 0.666992 10.667 -4.66602 12 -15.999c0.666992 -7.33301 -1.5 -13.166 -6.5 -17.499s-18.167 -12.166 -39.5 -23.499l-48 -24l-11 14c-6 6 -11 9.33301 -15 10
s-13.333 -1 -28 -5c-23.333 -6 -48.333 -8.66699 -75 -8s-46.334 5 -59.001 13c-16 8.66699 -28.667 23 -38 43s-12.666 39 -9.99902 57c4 24.667 11.167 42 21.5 52s32.833 20.333 67.5 31c70.667 21.333 107.667 39.333 111 54c1.33301 7.33301 -3 15.666 -13 24.999
c-16 14.667 -36.167 18.667 -60.5 12s-42.166 -21 -53.499 -43c-6.66699 -13.333 -12 -20.833 -16 -22.5s-12 -0.166992 -24 4.5c-6.66699 2.66699 -11.167 5.83398 -13.5 9.50098s-3.5 9.5 -3.5 17.5c0 12.667 7.66699 27 23 43s32 27 50 33zM220.998 169.997
c2.66699 18 1.66504 27.6689 -3.00195 29.002s-24.667 -5 -60 -19h-2c-40 -16 -63.333 -26.667 -70 -32s-10.667 -16.333 -12 -33v-1c-0.666992 -12.667 -0.166992 -21.5 1.5 -26.5s5.83398 -9.83301 12.501 -14.5c12.667 -8 29.5 -12 50.5 -12s37.833 4.66699 50.5 14
c10.667 7.33301 17.334 15.166 20.001 23.499s6.66699 32.166 12 71.499z" />
    <glyph glyph-name="b" unicode="b" horiz-adv-x="332" 
d="M55 485c14.667 8 29.8301 13.6699 45.4971 17.0029s25.5 2.66602 29.5 -2.00098c2.66699 -2.66699 -1 -11 -11 -25c-7.33301 -10.667 -13.5 -29.667 -18.5 -57s-8.16699 -52 -9.5 -74s-1.33301 -33.667 0 -35c2 -2.66699 8 1 18 11
c17.333 17.333 38.833 27.666 64.5 30.999s50.5 -1 74.5 -13c50 -26 74.667 -81.333 74 -166c-0.666992 -60 -16 -104 -46 -132c-12.667 -11.333 -31.167 -19.333 -55.5 -24s-48.166 -4.66699 -71.499 0c-15.333 3.33301 -26.5 4.66602 -33.5 3.99902s-11.167 -2 -12.5 -4
s-5.66602 -2.33301 -12.999 -1s-19.666 5.33301 -36.999 12c-28.667 12 -43 19 -43 21s5.33301 9.66699 16 23l17 20v170c0 82 -0.666992 131.5 -2 148.5s-5.33301 28.833 -12 35.5c-8 8 -10.833 13.667 -8.5 17s13.833 11 34.5 23zM229.996 283.003
c-13.333 12.667 -30.333 18.668 -51 18.001s-37.667 -7.33398 -51 -20.001c-21.333 -21.333 -32 -57.333 -32 -108c0 -35.333 6.66699 -61.333 20 -78s34 -25 62 -25c31.333 0 54 8.5 68 25.5s21 44.5 21 82.5c0 47.333 -12.333 82.333 -37 105zM66.4961 49.5039
c7 -5.66699 10.167 -5.83203 9.5 -0.499023c-2 8.66699 -6 15 -12 19c-5.33301 2 -8 1 -8 -3c0 -4.66699 3.5 -9.83398 10.5 -15.501z" />
    <glyph glyph-name="c" unicode="c" horiz-adv-x="314" 
d="M103 348c35.333 6.66699 67.167 5.83008 95.5 -2.50293s49.833 -23.166 64.5 -44.499c8.66699 -12.667 13.834 -26.834 15.501 -42.501s-0.833008 -24.834 -7.5 -27.501c-20 -6 -32.333 -8.16699 -37 -6.5s-7.66699 9.5 -9 23.5c-2.66699 16 -7 27.833 -13 35.5
s-16 14.834 -30 21.501c-12.667 4.66699 -27.5 5.33398 -44.5 2.00098s-29.5 -9.66602 -37.5 -18.999c-18.667 -20.667 -29.5 -52.667 -32.5 -96s3.5 -77 19.5 -101c6 -9.33301 15.167 -17.333 27.5 -24s23.833 -10 34.5 -10c13.333 0 27.666 2.66699 42.999 8s24 11 26 17
c2.66699 7.33301 8.16699 16.333 16.5 27s16.666 19.334 24.999 26.001s13.5 9 15.5 7c4.66699 -4 11 -6 19 -6c11.333 0 13 -8.33301 5 -25c-2.66699 -6.66699 -7.66699 -16 -15 -28c-14.667 -24.667 -32.5 -42.334 -53.5 -53.001s-48.833 -16 -83.5 -16
c-22 0 -37.333 1 -46 3s-18.667 7 -30 15c-19.333 13.333 -33.666 29.833 -42.999 49.5s-15 45.5 -17 77.5c-4.66699 70.667 11.333 123.334 48 158.001c19.333 18.667 34 29 44 31z" />
    <glyph glyph-name="d" unicode="d" horiz-adv-x="337" 
d="M201 499.5c0 3 6.66699 4.5 20 4.5c15.333 0 43.333 -12.667 84 -38l14 -9l-13 -18c-5.33301 -8 -8.83301 -21.333 -10.5 -40s-2.83398 -66.334 -3.50098 -143.001l-2 -167l37 -38l-32 -16c-38.667 -16.667 -59 -21.667 -61 -15c0 8 -3.66699 10.667 -11 8
c-39.333 -15.333 -75.166 -19.833 -107.499 -13.5s-57.833 22.833 -76.5 49.5c-10.667 16 -18.167 32.333 -22.5 49s-6.5 39 -6.5 67c0 52 12.333 93.833 37 125.5s57.667 47.5 99 47.5c14 0 28.833 -3.5 44.5 -10.5s26.167 -14.833 31.5 -23.5
c9.33301 -14.667 14.666 -13.667 15.999 3c0.666992 10.667 0.333984 29.334 -0.999023 56.001c-2 29.333 -4.16699 49.833 -6.5 61.5s-6.83301 22.167 -13.5 31.5c-10.667 16 -16 25.5 -16 28.5zM199 289c-8.66699 5.33301 -19.833 9.33398 -33.5 12.001
s-24.834 3 -33.501 1c-10 -2.66699 -20.167 -9 -30.5 -19s-18.166 -21.333 -23.499 -34s-8.16602 -35.834 -8.49902 -69.501s2.16699 -55.5 7.5 -65.5c9.33301 -18 18.833 -29.833 28.5 -35.5s24.834 -8.5 45.501 -8.5c18 0 30.167 1 36.5 3s13.5 7 21.5 15
c21.333 22.667 30.666 58 27.999 106s-15.334 79.667 -38.001 95zM280.001 68.001c0 5.33301 -1.83496 8 -5.50195 8s-8.16699 -2.66699 -13.5 -8c-2.66699 -2.66699 -4.66699 -6 -6 -10s-1.66602 -7.5 -0.999023 -10.5s2.33398 -4.5 5.00098 -4.5c4 0 8.5 3 13.5 9
s7.5 11.333 7.5 16z" />
    <glyph glyph-name="e" unicode="e" horiz-adv-x="314" 
d="M92 342c15.333 7.33301 36.334 10.332 63.001 8.99902c34 -2 61.333 -13 82 -33s36 -50.667 46 -92c3.33301 -13.333 4.66602 -22.666 3.99902 -27.999s-3.66699 -12 -9 -20l-13 -18l-87 1c-58.667 0.666992 -93 3.33398 -103 8.00098c-12.667 4.66699 -19 3 -19 -5
c0 -6.66699 5 -21.334 15 -44.001c12 -26 24 -43.333 36 -52s28.667 -12 50 -10c14 1.33301 24.833 4.16602 32.5 8.49902s18.834 13.833 33.501 28.5s25 23.667 31 27s14 4 24 2c14 -2.66699 22.667 -5.33398 26 -8.00098c2.66699 -2 -0.666016 -9.16699 -9.99902 -21.5
s-20.833 -25.166 -34.5 -38.499s-24.834 -22 -33.501 -26c-29.333 -14.667 -59.833 -20.5 -91.5 -17.5s-58.167 13.833 -79.5 32.5c-18.667 16 -30.834 31.833 -36.501 47.5s-8.5 40.834 -8.5 75.501c-0.666992 49.333 5.33301 87.333 18 114s34 46.667 64 60z
M194.001 284.999c-9.33301 8.66699 -17.168 14.502 -23.501 17.502s-15 4.5 -26 4.5s-19.667 -1.33301 -26 -4s-13.166 -8.33398 -20.499 -17.001c-9.33301 -10 -16.5 -22.667 -21.5 -38s-5.5 -26.333 -1.5 -33c2.66699 -4.66699 27 -7 73 -7c28 0 46.833 0.666992 56.5 2
s15.167 4 16.5 8c3.33301 8.66699 2.5 19.167 -2.5 31.5s-13.167 24.166 -24.5 35.499z" />
    <glyph glyph-name="f" unicode="f" horiz-adv-x="209" 
d="M59 472c6 10 19.9971 16.835 41.9971 20.502s43.333 2.16699 64 -4.5s31.667 -17 33 -31c1.33301 -10.667 -0.166992 -16.667 -4.5 -18s-16.166 0.666992 -35.499 6c-17.333 5.33301 -28.333 4.83301 -33 -1.5s-7 -23.833 -7 -52.5v-48l23 -2
c14.667 -1.33301 24.834 -4.66602 30.501 -9.99902s8.16699 -13.333 7.5 -24c-1.33301 -8.66699 -4.5 -13.667 -9.5 -15s-15.833 0 -32.5 4l-18 5l3 -115c0.666992 -54.667 1.83398 -88.334 3.50098 -101.001s6.16699 -22.667 13.5 -30c10 -10.667 15 -18.334 15 -23.001
c0 -6.66699 -14.5 -11.167 -43.5 -13.5s-50.833 -0.5 -65.5 5.5l-18 6l18 21c8.66699 10.667 13.834 23.334 15.501 38.001s2.83398 59.667 3.50098 135v9c0.666992 32.667 -0.333008 51.5 -3 56.5s-12 6.16699 -28 3.5h-4c-6.66699 -1.33301 -11.334 -1 -14.001 1
s-4.33398 6.33301 -5.00098 13c-0.666992 10.667 1.83301 18.667 7.5 24s15.834 8.66602 30.501 9.99902c12.667 0.666992 19.667 3.16699 21 7.5s0.333008 17.5 -3 39.5c-2 12 -3.66699 21.667 -5 29c-4.66699 31.333 -5.33398 49.666 -2.00098 54.999z" />
    <glyph glyph-name="g" unicode="g" horiz-adv-x="304" 
d="M102 345c28 8 51.666 9.00391 70.999 3.00391s33.833 -12.833 43.5 -20.5s14.5 -12.5 14.5 -14.5c0 -4 2.33301 -6 7 -6s6.33398 7 5.00098 21c-0.666992 10 0 16.167 2 18.5s9 3.83301 21 4.5c10.667 1.33301 17.5 1.16602 20.5 -0.500977s4.5 -5.83398 4.5 -12.501
c0 -15.333 0.5 -61.166 1.5 -137.499s1.5 -141.5 1.5 -195.5s-1.33301 -83.333 -4 -88c-4 -6.66699 -14.167 -14.334 -30.5 -23.001s-32.166 -14.667 -47.499 -18s-39 -4.66602 -71 -3.99902c-36 0 -65 6.83301 -87 20.5s-33 31.167 -33 52.5
c0 11.333 -2.66699 24.333 -8 39c-6 18 -4.66699 28.667 4 32c3.33301 1.33301 7.33301 0 12 -4c3.33301 -2 7.5 -4.16699 12.5 -6.5s9.16699 -4.16602 12.5 -5.49902l15 -6c8.66699 -2.66699 14.834 -4.83398 18.501 -6.50098s7.5 -4 11.5 -7s5.33301 -6.33301 4 -10
s-5 -7.83398 -11 -12.501l-15 -13l15 -14c6 -6.66699 12.667 -10.834 20 -12.501s21.166 -2.33398 41.499 -2.00098s36.166 1.83301 47.499 4.5s19.333 7.5 24 14.5s7.5 14 8.5 21l4.5 30.5c2 13.333 5 25.333 9 36c8 22 9.33301 33.333 4 34
c-2.66699 0 -7.33398 -2 -14.001 -6c-27.333 -17.333 -48 -28.5 -62 -33.5s-28.667 -6.5 -44 -4.5c-70.667 8 -109 57.667 -115 149c-3.33301 44 3.33398 83.5 20.001 118.5s38.667 56.5 66 64.5zM201.999 286.004c-16.667 16 -33.502 23.332 -50.502 21.999
s-32 -7.66602 -45 -18.999s-23.167 -28.166 -30.5 -50.499s-9.33301 -46.5 -6 -72.5c4.66699 -47.333 20.334 -79.833 47.001 -97.5s55 -14.5 85 9.5c24 18.667 36 51.334 36 98.001c0 29.333 -2.66699 52.166 -8 68.499s-14.666 30.166 -27.999 41.499z" />
    <glyph glyph-name="h" unicode="h" horiz-adv-x="327" 
d="M55 488c40 16.667 64.3311 20.3281 72.998 10.9951c2.66699 -2.66699 -1.33301 -9.66699 -12 -21c-7.33301 -8 -12.333 -17.167 -15 -27.5s-5.66699 -31.5 -9 -63.5c-4.66699 -50 -5.66699 -76.333 -3 -79s10 1.66602 22 12.999c13.333 12 25.166 20.333 35.499 25
s23.833 7 40.5 7c19.333 0 36.333 -5 51 -15c18.667 -12 30.834 -27.667 36.501 -47s9.5 -56.666 11.5 -111.999c1.33301 -45.333 2.83301 -73.666 4.5 -84.999s5.83398 -19.666 12.501 -24.999c9.33301 -7.33301 14 -12.666 14 -15.999
c-0.666992 -5.33301 -15.334 -13.833 -44.001 -25.5s-48.667 -17.5 -60 -17.5c-12.667 0 -19.5 1.5 -20.5 4.5s3.5 9.5 13.5 19.5c5.33301 6.66699 9.33301 15.334 12 26.001s5.33398 30.667 8.00098 60c8 90 3 144.667 -15 164c-9.33301 10 -21.666 15.333 -36.999 16
s-30.333 -3.66602 -45 -12.999c-16 -10 -26.167 -23.333 -30.5 -40s-5.83301 -50.334 -4.5 -101.001c1.33301 -43.333 2.83301 -69.833 4.5 -79.5s6.83398 -19.167 15.501 -28.5c12 -12 18 -19.667 18 -23s-4.16699 -5 -12.5 -5s-18.833 1.33301 -31.5 4
s-24.334 6.33398 -35.001 11.001c-24.667 9.33301 -38.5 16.166 -41.5 20.499s0.166992 11.5 9.5 21.5l16 17v173c0 78 -0.666992 127.167 -2 147.5s-4.66602 34.5 -9.99902 42.5c-6.66699 11.333 -8.83398 18.833 -6.50098 22.5s14.5 9.83398 36.5 18.501z" />
    <glyph glyph-name="i" unicode="i" horiz-adv-x="150" 
d="M52.5 341.5c0.333008 3.66699 9.49805 4.83203 27.498 3.49902l27 -2l2 -102v-8c0.666992 -80 1.83398 -127.667 3.50098 -143s6.83398 -28 15.501 -38l1 -1c11.333 -13.333 14.666 -21.333 9.99902 -24c-6.66699 -4 -24.167 -6.5 -52.5 -7.5
s-47.166 0.166992 -56.499 3.5l-20 8l15 11c11.333 8.66699 18.833 24.667 22.5 48s5.16699 67 4.5 131c0 76.667 0.166992 116.834 0.5 120.501zM37.998 473.998c6.66699 2 23.165 2.16602 49.498 0.499023s40.5 -3.83398 42.5 -6.50098c1.33301 -1.33301 1 -4.33301 -1 -9
s-4.16699 -11.167 -6.5 -19.5s-3.16602 -16.5 -2.49902 -24.5c1.33301 -13.333 -0.833984 -19.666 -6.50098 -18.999s-20.167 1.33398 -43.5 2.00098l-36 1l4 25c2 16.667 0.666992 26.667 -4 30c-5.33301 3.33301 -7.66602 7 -6.99902 11s4.33398 7 11.001 9z" />
    <glyph glyph-name="j" unicode="j" horiz-adv-x="191" 
d="M110 184l1 162.999l52 -4l3 -208c2 -139.333 5.66699 -213.666 11 -222.999c10.667 -20 -2 -33 -38 -39c-38 -6.66699 -74.333 -5.66699 -109 3c-5.33301 1.33301 -9.33301 2.66602 -12 3.99902c-4.66699 2 -7.33398 7.33301 -8.00098 16s0.5 16.667 3.5 24
s6.83301 10.333 11.5 9c34.667 -10 61 -11.667 79 -5c12 4 14.667 12.333 8 25c-2 4.66699 -3.16699 11.834 -3.5 21.501s-0.166016 32.5 0.500977 68.5c0.666992 52.667 1 101 1 145zM103 473.999c2 2.66699 13.5 3.16699 34.5 1.5s34.5 -4.5 40.5 -8.5
c3.33301 -3.33301 4 -5.5 2 -6.5s-4.16699 -5.16699 -6.5 -12.5s-2.83301 -16 -1.5 -26c2.66699 -15.333 2.5 -23.833 -0.5 -25.5s-14.5 -1.16699 -34.5 1.5l-29 4l-4 33c-2.66699 22 -3 35 -1 39z" />
    <glyph glyph-name="k" unicode="k" horiz-adv-x="346" 
d="M57 487c14.667 5.33301 29.668 8.49805 45.001 9.49805s24.333 -0.833008 27 -5.5c2 -3.33301 -2.33301 -12.333 -13 -27c-7.33301 -10.667 -11.833 -22.167 -13.5 -34.5s-3.16699 -42.833 -4.5 -91.5c-1.33301 -69.333 0.166992 -103.5 4.5 -102.5
s24.166 20.167 59.499 57.5c31.333 34 54.5 54 69.5 60s28.5 1 40.5 -15c5.33301 -8 8.33301 -13.667 9 -17s-0.666016 -6.33301 -3.99902 -9c-6.66699 -3.33301 -13.334 -5.33301 -20.001 -6c-5.33301 0 -16.5 -8 -33.5 -24s-25.5 -27 -25.5 -33s10.333 -28.167 31 -66.5
s36.334 -64.5 47.001 -78.5c7.33301 -10 16.166 -18.167 26.499 -24.5s18.5 -11 24.5 -14s9 -5.5 9 -7.5c0 -4 -16.5 -14 -49.5 -30s-53.5 -24 -61.5 -24c-4.66699 0 -7.83398 0.333008 -9.50098 1s-2.5 2.16699 -2.5 4.5s0.333008 5.5 1 9.5s1 9.66699 1 17
s-0.666992 15.5 -2 24.5s-4.16602 20.667 -8.49902 35s-10.5 29.833 -18.5 46.5c-4 9.33301 -7.5 18 -10.5 26s-5 13.833 -6 17.5s-2.33301 7.16699 -4 10.5s-4.5 6 -8.5 8c-4 2.66699 -8.5 2.83398 -13.5 0.500977s-13.167 -8.83301 -24.5 -19.5
c-7.33301 -7.33301 -12.5 -12.666 -15.5 -15.999s-5.16699 -7.66602 -6.5 -12.999s-1.83301 -9.5 -1.5 -12.5s1.33301 -9.66699 3 -20s3.16699 -20.5 4.5 -30.5c2 -22 7.33301 -39 16 -51c8.66699 -11.333 12.834 -19.333 12.501 -24s-5.16602 -7 -14.499 -7
c-8 0 -24 3.33301 -48 10s-40.667 12.334 -50 17.001c-4.66699 2.66699 -7.5 4.66699 -8.5 6s-0.833008 3 0.5 5s4.66602 6 9.99902 12c9.33301 10 15.5 32.667 18.5 68s3.83301 95.666 2.5 180.999c-0.666992 57.333 -1.83398 93.166 -3.50098 107.499
s-5.5 24.833 -11.5 31.5c-8 8 -10 14.5 -6 19.5s16 11.167 36 18.5zM262.001 51.998c2.66699 3.33301 1.66699 9.66797 -3 19.001c-3.33301 7.33301 -5.5 11.166 -6.5 11.499s-2.83301 -2.5 -5.5 -8.5c-3.33301 -8.66699 -1.33301 -16 6 -22
c2.66699 -2.66699 5.66699 -2.66699 9 0z" />
    <glyph glyph-name="l" unicode="l" horiz-adv-x="152" 
d="M30 484c2.66699 4.66699 15.999 6.83301 39.999 6.5s41.333 -2.5 52 -6.5l18 -7l-31 -34v-375l19 -16c12.667 -10.667 17 -18 13 -22c-5.33301 -4.66699 -22.5 -8 -51.5 -10s-48.833 -1 -59.5 3l-20 8l14 11c9.33301 7.33301 16.166 15.5 20.499 24.5
s6.83301 72.5 7.5 190.5c0.666992 84.667 0.333984 136.5 -0.999023 155.5s-5 33.833 -11 44.5c-9.33301 14 -12.666 23 -9.99902 27z" />
    <glyph glyph-name="m" unicode="m" horiz-adv-x="494" 
d="M40 210c0.666992 68.667 3.16699 112.833 7.5 132.5s14.833 27.834 31.5 24.501c8 -1.33301 12.667 -3.5 14 -6.5s1 -11.167 -1 -24.5c-2.66699 -19.333 -2.33398 -29 0.999023 -29s12.333 7.66699 27 23c10 10 18.167 16.333 24.5 19s17.5 4 33.5 4
c16.667 0 28.334 -1.33301 35.001 -4s16.334 -10 29.001 -22l29 -26l24 29c12 14 20.833 22.333 26.5 25s18.167 4 37.5 4c17.333 0 29.5 -1.16699 36.5 -3.5s15.5 -8.16602 25.5 -17.499c15.333 -14 25.166 -30.833 29.499 -50.5s6.5 -56.5 6.5 -110.5
c0 -40 0.666992 -64.833 2 -74.5s5.33301 -16.167 12 -19.5c8.66699 -4.66699 13 -9 13 -13c0 -4.66699 -15 -17.834 -45 -39.501s-50 -33.834 -60 -36.501c-12 -2.66699 -18.333 -2.16699 -19 1.5s4.66602 13.167 15.999 28.5c7.33301 10.667 12.166 22.5 14.499 35.5
s4.83301 40.833 7.5 83.5c4.66699 66 4 109.833 -2 131.5s-20.667 32.5 -44 32.5c-16 0 -30.667 -6.16699 -44 -18.5s-22.666 -28.166 -27.999 -47.499c-6 -21.333 -6.66699 -55.333 -2 -102s11.334 -76.334 20.001 -89.001c10 -12.667 12.667 -20.334 8 -23.001
c-6.66699 -4 -24 -6.5 -52 -7.5s-46.667 0.166992 -56 3.5l-20 8l21 16c5.33301 4 9 7.33301 11 10s3.83301 5.33398 5.5 8.00098s2.66699 7.16699 3 13.5l1 19c0.333008 6.33301 0.666016 17 0.999023 32s0.833008 30.167 1.5 45.5c2 38.667 1.83301 65 -0.5 79
s-8.16602 26 -17.499 36c-23.333 25.333 -51 22.333 -83 -9l-25 -26v-85c0 -44 1.83301 -76 5.5 -96s10.834 -36 21.501 -48c17.333 -19.333 14.666 -29 -8.00098 -29c-12.667 0 -33.334 11.667 -62.001 35l-43 34l15 16c6.66699 7.33301 10.834 17 12.501 29s2.5 45 2.5 99
z" />
    <glyph glyph-name="n" unicode="n" horiz-adv-x="336" 
d="M49 340.5c4.66699 8.33301 12.9941 12.502 24.9941 12.502s19.167 -1.66699 21.5 -5s1.83301 -10.666 -1.5 -21.999s-3.5 -17.5 -0.5 -18.5s8.83301 3.16699 17.5 12.5c22 24 50.833 34.833 86.5 32.5s62.167 -16.833 79.5 -43.5c4.66699 -7.33301 8 -18.833 10 -34.5
s3.66699 -44.5 5 -86.5c1.33301 -49.333 3 -79.833 5 -91.5s6.66699 -21.5 14 -29.5l15 -16l-40 -21c-11.333 -5.33301 -24 -10 -38 -14s-25.167 -6 -33.5 -6s-13.166 1.33301 -14.499 4c0 2.66699 4.33301 10 13 22c5.33301 7.33301 9.33301 17.666 12 30.999
s5 37.666 7 72.999c4.66699 70.667 1.5 117.667 -9.5 141s-32.5 29.666 -64.5 18.999c-24 -8 -40.667 -21.833 -50 -41.5s-12.666 -49.5 -9.99902 -89.5c2.66699 -48.667 5.66699 -80.834 9 -96.501s9 -27.5 17 -35.5c18.667 -18 16.334 -26.667 -6.99902 -26
c-16.667 0.666992 -36.667 5.33398 -60 14.001c-31.333 11.333 -47 19.666 -47 24.999c0 2.66699 2 5.66699 6 9c10.667 7.33301 17.334 19.833 20.001 37.5s4.33398 55.834 5.00098 114.501c0.666992 78 3.33398 121.167 8.00098 129.5z" />
    <glyph glyph-name="o" unicode="o" horiz-adv-x="309" 
d="M98 340c28 13.333 57.8311 16.3311 89.498 8.99805s56.834 -22.666 75.501 -45.999c13.333 -17.333 22.5 -34.5 27.5 -51.5s7.83301 -40.5 8.5 -70.5c1.33301 -59.333 -11.167 -103.166 -37.5 -131.499s-66.5 -40.833 -120.5 -37.5c-38 2 -66.667 12.333 -86 31
s-32.666 49 -39.999 91c-8.66699 46.667 -5.5 88.667 9.5 126s39.5 64 73.5 80zM238.998 182.998c0 29.333 -4.16797 53.832 -12.501 73.499s-18.666 33 -30.999 40s-25.5 10.333 -39.5 10s-27.333 -5 -40 -14s-22.667 -20.833 -30 -35.5
c-13.333 -26.667 -18 -60.167 -14 -100.5s14.667 -69.166 32 -86.499c7.33301 -7.33301 14.333 -11.833 21 -13.5s18 -2.16699 34 -1.5c15.333 0 26.333 1.16699 33 3.5s13 6.83301 19 13.5c18.667 22 28 59 28 111z" />
    <glyph glyph-name="p" unicode="p" horiz-adv-x="333" 
d="M49 345c2.66699 3.33301 6.16797 4.99902 10.501 4.99902s9.83301 -0.666992 16.5 -2s11.667 -2 15 -2c5.33301 0 6.66602 -6.66699 3.99902 -20c-2 -11.333 -1 -17.5 3 -18.5s10.333 3.16699 19 12.5c14 16 33.833 26.333 59.5 31s48.167 2 67.5 -8
c28 -14.667 49.167 -40.5 63.5 -77.5s18.833 -76 13.5 -117s-19.666 -74.167 -42.999 -99.5c-20.667 -21.333 -44.667 -33.5 -72 -36.5s-53.333 3.83301 -78 20.5c-21.333 14.667 -36.666 20.334 -45.999 17.001c-1.33301 -0.666992 -2 -2 -2 -4
c0 -0.666992 1.5 -4.66699 4.5 -12s6.5 -18.166 10.5 -32.499s7 -29.833 9 -46.5c1.33301 -15.333 3.66602 -27.666 6.99902 -36.999s6.5 -15.333 9.5 -18s5.66699 -5.33398 8 -8.00098s3.5 -6 3.5 -10c0 -5.33301 -5.83301 -8.5 -17.5 -9.5s-26.667 0.166992 -45 3.5
s-36.5 8 -54.5 14c-6.66699 2 -5.33398 7.66699 3.99902 17c11.333 12 18.166 53 20.499 123s3.33301 138.667 3 206s1.83398 103.666 6.50098 108.999zM267.001 200.999c-2 18.667 -6.33398 34.835 -13.001 48.502s-13.667 23.5 -21 29.5s-15.166 10.667 -23.499 14
s-14.333 5.16602 -18 5.49902s-6.16699 0.5 -7.5 0.5c-44.667 -4.66699 -72.334 -34 -83.001 -88c-8 -40.667 -4.16699 -75.5 11.5 -104.5s38.5 -43.5 68.5 -43.5c28.667 0 51.334 13.167 68.001 39.5s22.667 59.166 18 98.499z" />
    <glyph glyph-name="q" unicode="q" horiz-adv-x="327" 
d="M82 339c22 11.333 47.498 14.834 76.498 10.501s48.5 -14.5 58.5 -30.5c6 -8.66699 10.5 -12.334 13.5 -11.001s4.83301 8 5.5 20c1.33301 10 3.33301 16 6 18s9 3 19 3h23l5 -209c2 -101.333 3.83301 -162.333 5.5 -183s6.16699 -34.667 13.5 -42
c8 -8.66699 10.167 -14.834 6.5 -18.501s-18.167 -10.167 -43.5 -19.5c-16 -5.33301 -30.833 -8.83301 -44.5 -10.5s-22.167 -0.5 -25.5 3.5c-2 2 -0.833008 5.83301 3.5 11.5s9.5 13.667 15.5 24s9 20.833 9 31.5c0 18 5.33301 49.667 16 95c2.66699 12 1 17.667 -5 17
c-5.33301 -0.666992 -16.333 -6.33398 -33 -17.001c-19.333 -12 -41.666 -18.167 -66.999 -18.5s-47.666 5.83398 -66.999 18.501c-42 26.667 -63 75.334 -63 146.001c0 82 24 135.667 72 161zM189.998 285.001c-26 17.333 -52 18.001 -78 2.00098
c-16 -10 -27.333 -21.667 -34 -35s-11 -33.666 -13 -60.999c-1.33301 -20 -1.33301 -34.833 0 -44.5s5.33301 -20.834 12 -33.501c17.333 -36 45.333 -52 84 -48c25.333 2.66699 44 13.167 56 31.5s18 46.166 18 83.499c0 26.667 -3.5 48.167 -10.5 64.5
s-18.5 29.833 -34.5 40.5z" />
    <glyph glyph-name="r" unicode="r" horiz-adv-x="232" 
d="M166 355c14.667 2.66699 24.6689 3.33301 30.002 2s10.666 -6 15.999 -14c4 -6.66699 7 -15 9 -25s2.16699 -18.833 0.5 -26.5s-4.5 -11.5 -8.5 -11.5c-6.66699 0 -11.334 2.33301 -14.001 7c-3.33301 5.33301 -12.666 7.33301 -27.999 6s-27 -5.66602 -35 -12.999
c-14.667 -10.667 -23.834 -24.5 -27.501 -41.5s-4.5 -47.167 -2.5 -90.5c1.33301 -34 3 -56.833 5 -68.5s6 -21.834 12 -30.501c6.66699 -8 10.334 -13.833 11.001 -17.5s-1 -6.5 -5 -8.5c-5.33301 -4 -21.666 -5 -48.999 -3s-46 5.33301 -56 10l-14 8l14 11
c8.66699 6.66699 14.5 22.167 17.5 46.5s4.83301 72.833 5.5 145.5l1 102h26c12.667 0 20.167 -1 22.5 -3s3.16602 -7.33301 2.49902 -16c-1.33301 -11.333 -0.333008 -17 3 -17s13.666 8.33301 30.999 25c14 13.333 25 21 33 23z" />
    <glyph glyph-name="s" unicode="s" horiz-adv-x="322" 
d="M98 342c15.333 7.33301 36.834 10.835 64.501 10.502s49.5 -4.5 65.5 -12.5c25.333 -13.333 42.166 -30.333 50.499 -51s3.83301 -35 -13.5 -43c-21.333 -9.33301 -34 -3 -38 19c-2.66699 11.333 -8.5 20.666 -17.5 27.999s-19.333 11.833 -31 13.5
s-23.167 1.66699 -34.5 0s-20.833 -5.83398 -28.5 -12.501s-11.5 -14.667 -11.5 -24c0 -8 6.16699 -17.167 18.5 -27.5s25.833 -17.5 40.5 -21.5c50 -13.333 84 -24.833 102 -34.5s31 -23.5 39 -41.5c15.333 -32 10.833 -61.333 -13.5 -88s-60.833 -41.667 -109.5 -45
c-75.333 -5.33301 -128.333 23 -159 85c-8.66699 16.667 -12.5 27 -11.5 31s7.83301 6.66699 20.5 8c8.66699 1.33301 21.834 -4 39.501 -16s26.5 -21.333 26.5 -28c0 -14 12.667 -24.167 38 -30.5s50.5 -5.33301 75.5 3s37.5 23.166 37.5 44.499
c0 13.333 -5.5 23.833 -16.5 31.5s-32.5 15.5 -64.5 23.5c-62.667 16.667 -99.334 39.334 -110.001 68.001c-8 21.333 -8 42.5 0 63.5s21.667 36.5 41 46.5z" />
    <glyph glyph-name="t" unicode="t" horiz-adv-x="217" 
d="M132 477c12.667 7.33301 20.501 8.83105 23.501 4.49805s0 -12.666 -9 -24.999s-16.333 -32.166 -22 -59.499s-6.16699 -44 -1.5 -50c4 -4 11.167 -5.5 21.5 -4.5s18.833 -1.83301 25.5 -8.5c4.66699 -5.33301 7.66699 -11.5 9 -18.5s0.833008 -13 -1.5 -18
s-5.83301 -7.16699 -10.5 -6.5c-6.66699 0.666992 -15.334 1.66699 -26.001 3l-16 3v-118c0 -78.667 2.16699 -118.667 6.5 -120s16.833 1 37.5 7c17.333 4.66699 28 6.16699 32 4.5s6 -8.83398 6 -21.501c0 -8.66699 -2.33301 -14.334 -7 -17.001s-18.667 -6.66699 -42 -12
c-32 -6.66699 -57 -7.66699 -75 -3s-28.333 9 -31 13c-1.33301 2 -0.833008 9.33301 1.5 22s5.16602 34.167 8.49902 64.5s4.66602 62.833 3.99902 97.5c-0.666992 46.667 -2.66699 72.334 -6 77.001c-2.66699 4 -13 4.66699 -31 2
c-6.66699 -1.33301 -11.167 -1.16602 -13.5 0.500977s-4.16602 5.5 -5.49902 11.5c-1.33301 10.667 0.833984 19 6.50098 25s14.167 9 25.5 9s19.333 2.33301 24 7c4 4 4.66699 17 2 39s-6.66699 36.333 -12 43s-3 16.334 7 29.001c7.33301 10 15 15.667 23 17
s15.167 0.666016 21.5 -2.00098s14.5 -1 24.5 5z" />
    <glyph glyph-name="u" unicode="u" horiz-adv-x="309" 
d="M202.5 355.5c3 3 10.834 3.83008 23.501 2.49707c9.33301 -1.33301 16.166 -3.5 20.499 -6.5s7.83301 -10.5 10.5 -22.5s4.33398 -27 5.00098 -45s0.666992 -45 0 -81l-1 -121l38 -31l-45 -20c-14.667 -6.66699 -25.5 -11.167 -32.5 -13.5s-11.333 -3.16602 -13 -2.49902
s-3.5 1.66699 -5.5 3s-5.66699 2.33301 -11 3s-15 -0.666016 -29 -3.99902c-56.667 -12 -99.667 -4.33301 -129 23l-24 22l2 133c2 89.333 5 138 9 146s13 12 27 12h21v-135c0 -81.333 2.66699 -128.333 8 -141c5.33301 -10.667 17.333 -16.334 36 -17.001h15
c40.667 0 66 18.333 76 55c4 14.667 6.16699 52.334 6.5 113.001s-1.83398 96.334 -6.50098 107.001c-4 10.667 -4.5 17.5 -1.5 20.5zM250.001 56.9971c0 7.33301 -4.00098 8.33301 -12.001 3c-2 -1.33301 -4 -3 -6 -5c-9.33301 -8.66699 -11.333 -13.667 -6 -15
c2.66699 0 6.33398 1.33301 11.001 4c8.66699 4.66699 13 9 13 13z" />
    <glyph glyph-name="v" unicode="v" horiz-adv-x="265" 
d="M201 353.5c2 1.66699 10.6641 2.83496 25.9971 3.50195c10.667 0.666992 17.334 0 20.001 -2s5 -7.66699 7 -17c0 -8.66699 0.5 -13.834 1.5 -15.501s0.333008 -6.83398 -2 -15.501s-4.33301 -15.334 -6 -20.001s-4.83398 -14.167 -9.50098 -28.5l-13 -40.5l-19.5 -59
c-6.33301 -18.667 -11.166 -32.5 -14.499 -41.5s-6.33301 -17.5 -9 -25.5s-4.16699 -13.833 -4.5 -17.5s-0.166016 -7.16699 0.500977 -10.5s2.33398 -7 5.00098 -11c6.66699 -10 8.66699 -17.333 6 -22c-3.33301 -5.33301 -19 -9 -47 -11s-47.333 -0.666992 -58 4l-19 7
l14 15c7.33301 8 11.666 15.833 12.999 23.5s-0.666992 13.167 -6 16.5c-2.66699 1.33301 -6 8.16602 -10 20.499l-21.5 68.5c-10.333 33.333 -19.833 62.666 -28.5 87.999c-12 36.667 -17.167 61 -15.5 73s11.167 17 28.5 15c6.66699 0 11.334 -0.5 14.001 -1.5
s5 -2.16699 7 -3.5s3.33301 -4.16602 4 -8.49902s1.66699 -9.33301 3 -15l6 -25.5c2.66699 -11.333 6.33398 -23.333 11.001 -36c6.66699 -19.333 12.167 -37.666 16.5 -54.999s7.16602 -30 8.49902 -38s3 -15.167 5 -21.5s4.16699 -10.333 6.5 -12
s6.16602 -2.5 11.499 -2.5c4 0 7 0.333008 9 1s3.83301 2.33398 5.5 5.00098s3 5.66699 4 9s2.33301 8.5 4 15.5l5.5 23c2 8.33301 4.83301 19.333 8.5 33s7.83398 28.167 12.501 43.5c11.333 37.333 17 61.5 17 72.5s1 17.333 3 19z" />
    <glyph glyph-name="w" unicode="w" horiz-adv-x="407" 
d="M267 89c0 2.66699 7.66699 13.3359 23 32.0029s23 31.334 23 38.001c0 4 5.66699 33 17 87s15.666 86.333 12.999 97c-2 13.333 -1.66699 21.666 1 24.999c4 3.33301 10.833 4.5 20.5 3.5s16.167 -3.5 19.5 -7.5c5.33301 -6.66699 9.16602 -20.334 11.499 -41.001
s1.5 -33.334 -2.5 -38.001c-3.33301 -4.66699 -12.333 -35 -27 -91s-23.667 -87.667 -27 -95c-3.33301 -8.66699 -4.5 -15.167 -3.5 -19.5s3 -9.33301 6 -15s4.5 -10.167 4.5 -13.5c0 -4.66699 -14 -12.5 -42 -23.5s-48.333 -16.5 -61 -16.5s-19.5 1.33301 -20.5 4
s3.16699 9 12.5 19c5.33301 6 8.5 11.167 9.5 15.5s0.833008 8.33301 -0.5 12s-3.5 11.5 -6.5 23.5s-5.16699 25.667 -6.5 41c-3.33301 34 -8 65 -14 93s-11 42 -15 42c-2.66699 0 -6.16699 -11 -10.5 -33s-9.16602 -48 -14.499 -78s-9.66602 -50.667 -12.999 -62
c-4.66699 -15.333 -6.83398 -25.333 -6.50098 -30s4.16602 -10.667 11.499 -18c7.33301 -8.66699 10.5 -13.834 9.5 -15.501s-9.83301 -5.16699 -26.5 -10.5c-4 -1.33301 -19.667 2 -47 10s-43.333 13.667 -48 17c-1.33301 1.33301 1 7.66602 7 18.999
c3.33301 7.33301 4.66602 14.5 3.99902 21.5s-4 19.833 -10 38.5c-21.333 66.667 -35.666 121.5 -42.999 164.5s-6.66602 68.5 2.00098 76.5c3.33301 4 11.333 5.33301 24 4c8.66699 -1.33301 14 -3.5 16 -6.5s3.66699 -10.5 5 -22.5
c1.33301 -22.667 8.16602 -60.5 20.499 -113.5s20.833 -82.5 25.5 -88.5c18.667 -22 28 -14.333 28 23c0 20 5 54.333 15 103s17.333 75.334 22 80.001s15.334 6.33398 32.001 5.00098l26 -2l18 -73c8.66699 -36 14.334 -70.333 17.001 -103s1 -50.667 -5 -54
c-4.66699 -2.66699 -7 -8.33398 -7 -17.001s2.16699 -13 6.5 -13s6.5 2 6.5 6zM149 102.502c0 4.33301 -2.16699 6.5 -6.5 6.5s-6.5 -2.16699 -6.5 -6.5s2.16699 -6.5 6.5 -6.5s6.5 2.16699 6.5 6.5z" />
    <glyph glyph-name="x" unicode="x" horiz-adv-x="335" 
d="M193 189c0 -2 7.83301 -11.165 23.5 -27.498s23.5 -26.5 23.5 -30.5c0 -7.33301 10 -20.5 30 -39.5s33.667 -28.5 41 -28.5c9.33301 0 14 -2.66699 14 -8c0 -6 -15.5 -15 -46.5 -27s-51.833 -17.333 -62.5 -16c-8 0.666992 -12.833 3.5 -14.5 8.5
s-3.16699 20.5 -4.5 46.5c-1.33301 36 -3.5 56.5 -6.5 61.5s-11.167 7.5 -24.5 7.5c-12 0 -20.333 -5.83301 -25 -17.5s-7.33398 -32.834 -8.00098 -63.501c-0.666992 -8 -1 -13.833 -1 -17.5s-0.5 -7.83398 -1.5 -12.501s-1.66699 -7.66699 -2 -9
s-2.33301 -2.66602 -6 -3.99902s-6.5 -1.83301 -8.5 -1.5s-6.5 1.16602 -13.5 2.49902s-13 2.83301 -18 4.5s-13.167 4.16699 -24.5 7.5c-34.667 10.667 -50.667 19.667 -48 27c1.33301 4 7.66602 7 18.999 9c8.66699 2 15.667 5.83301 21 11.5s14 17.667 26 36
s24.333 35.166 37 50.499l27 34l-32 55c-22 36.667 -36.667 59 -44 67c-5.33301 5.33301 -8 9.33301 -8 12s3.33301 7 10 13c8.66699 8.66699 19.334 11.667 32.001 9c8 -2 14.667 -5.83301 20 -11.5s12 -16.834 20 -33.501c12.667 -26.667 22 -40 28 -40
c6.66699 0 22.334 25 47.001 75c4.66699 9.33301 18.334 16 41.001 20c2.66699 0 7.66699 -5.66699 15 -17c5.33301 -8 8 -13.5 8 -16.5s-3 -7.83301 -9 -14.5c-6.66699 -7.33301 -20.834 -28.666 -42.501 -63.999s-32.5 -54.666 -32.5 -57.999zM236.5 57.002
c7 0 8.83301 2.33301 5.5 7c-2 4 -5.16699 6 -9.5 6s-6.5 -2.16699 -6.5 -6.5s3.5 -6.5 10.5 -6.5z" />
    <glyph glyph-name="y" unicode="y" horiz-adv-x="288" 
d="M30 349c3.33301 2.66699 12.6709 3.33105 28.0039 1.99805l22 -2l-2 -252l17 -18c7.33301 -7.33301 13.833 -11.833 19.5 -13.5s14.834 -1.83398 27.501 -0.500977s23.5 4.16602 32.5 8.49902s16.167 10.666 21.5 18.999s9.66602 16.166 12.999 23.499
s5.66602 17.833 6.99902 31.5s2.16602 24.834 2.49902 33.501s0.5 22 0.5 40v19l1 109l21 2c14 1.33301 23 -2 27 -10c4 -6.66699 7.16699 -77.334 9.5 -212.001s-0.166992 -207.667 -7.5 -219c-6 -7.33301 -19.333 -16 -40 -26c-30.667 -14.667 -70.667 -19 -120 -13
s-79.333 19.333 -90 40c-4.66699 8 -7.83398 25.667 -9.50098 53s-0.5 42 3.5 44c4 0.666992 6.5 0.833984 7.5 0.500977s5.66699 -2.33301 14 -6s17.5 -7.16699 27.5 -10.5c27.333 -8 40 -16.333 38 -25c-0.666992 -3.33301 -3.66699 -6.33301 -9 -9
c-8.66699 -4.66699 -13 -11.334 -13 -20.001s4.33301 -15 13 -19c9.33301 -5.33301 27.833 -7.66602 55.5 -6.99902s45.5 4 53.5 10c7.33301 4.66699 12 12.834 14 24.501s3.66699 26.334 5 44.001s4 32.5 8 44.5c5.33301 14.667 6.16602 22.834 2.49902 24.501
s-16.167 -4.83301 -37.5 -19.5c-14 -10 -25 -16.333 -33 -19s-20 -4 -36 -4c-20.667 0 -39 4.16699 -55 12.5s-27.667 19.5 -35 33.5c-4.66699 8.66699 -7.5 57.334 -8.5 146.001s0.5 135.334 4.5 140.001z" />
    <glyph glyph-name="z" unicode="z" horiz-adv-x="316" 
d="M100 152c0 2 5.49902 10.4971 16.499 25.4971s16.5 23.833 16.5 26.5c0 1.33301 8.66699 16 26 44s24.666 43.667 21.999 47c-1.33301 2.66699 -18.5 3.83398 -51.5 3.50098s-56.167 -2.16602 -69.5 -5.49902c-4 -1.33301 -7.16699 0.833984 -9.5 6.50098
s-3 12.5 -2 20.5s3.5 14 7.5 18c4.66699 4.66699 13.5 7.66699 26.5 9s39.833 2 80.5 2c45.333 -0.666992 73.166 -1.66699 83.499 -3s16.833 -5 19.5 -11c4 -8.66699 -0.333008 -22.667 -13 -42c-18.667 -26.667 -36.167 -53.5 -52.5 -80.5s-28.333 -47.333 -36 -61
s-15.667 -26.5 -24 -38.5s-15.833 -20 -22.5 -24s-15 -6 -25 -6c-8.66699 0 -13 -1.66699 -13 -5c0 -4.66699 6 -8.33398 18 -11.001c16 -4.66699 44.333 -6.16699 85 -4.5s68.334 5.16699 83.001 10.5c20.667 7.33301 32.667 10.833 36 10.5s4.33301 -6.16602 3 -17.499
c-1.33301 -12.667 -2.66602 -19.667 -3.99902 -21s-14.333 -6.33301 -39 -15s-58.667 -13 -102 -13c-30 0 -60.5 2.66699 -91.5 8s-49.833 11.333 -56.5 18c-4 4 -3.16699 10.5 2.5 19.5s11.834 13.5 18.501 13.5c5.33301 0 17.833 11.167 37.5 33.5s29.5 36.5 29.5 42.5z
" />
    <glyph glyph-name="braceleft" unicode="{" horiz-adv-x="248" 
d="M76 476c10 6.66699 18.498 10.833 25.498 12.5s17.5 1.83398 31.5 0.500977c47.333 -4.66699 71 -17.334 71 -38.001v-6c0 -1.33301 -0.333008 -2.66602 -1 -3.99902s-1.33398 -2.16602 -2.00098 -2.49902s-1.83398 -0.666016 -3.50098 -0.999023s-3.5 -0.333008 -5.5 0
s-4.5 0.666016 -7.5 0.999023s-6.33301 0.666016 -10 0.999023s-8.16699 0.666016 -13.5 0.999023s-10.666 0.5 -15.999 0.5h-33l-6 -219l-38 -40l20 -17c6.66699 -5.33301 11.667 -11.166 15 -17.499s5.5 -12.666 6.5 -18.999l6.5 -42.5c3.33301 -22 7 -43.333 11 -64
c6.66699 -38 8.66699 -60.667 6 -68c-2 -3.33301 -3.66699 -5.5 -5 -6.5s-3 -0.666992 -5 1l-11 9.5c-10.667 10 -16 23 -16 39c0 19.333 -4.66699 33.333 -14 42c-4 4 -7 3.33301 -9 -2c-2 -6.66699 -5.33301 -25.334 -10 -56.001
c-3.33301 -22.667 -4.66602 -36.5 -3.99902 -41.5s4.33398 -10.5 11.001 -16.5c5.33301 -4 10.333 -6.5 15 -7.5s9.16699 -1.33301 13.5 -1s13.666 1.83301 27.999 4.5s28.166 4.66699 41.499 6c6.66699 1.33301 12.834 2.33301 18.501 3s10.5 1.5 14.5 2.5
s7.66699 1.83301 11 2.5s6 1.16699 8 1.5s4 0.5 6 0.5s3.33301 -0.166992 4 -0.5s1.5 -1 2.5 -2s1.66699 -2.16699 2 -3.5s0.833008 -3 1.5 -5c2.66699 -10.667 1.33398 -17.667 -3.99902 -21s-21 -7.66602 -47 -12.999c-44.667 -9.33301 -73.5 -14.166 -86.5 -14.499
s-27.167 3.5 -42.5 11.5c-10 5.33301 -16.5 9.16602 -19.5 11.499s-6.16699 8 -9.5 17s-4 21.667 -2 38s6 39.166 12 68.499c13.333 64 18.666 100.333 15.999 109c-1.33301 5.33301 -7.66602 12.333 -18.999 21c-14.667 10.667 -22.667 21.5 -24 32.5
s4.33398 18.833 17.001 23.5c10 3.33301 16.833 9 20.5 17s6.16699 20.667 7.5 38s1.33301 46.666 0 87.999l-2 110z" />
    <glyph glyph-name="bar" unicode="|" horiz-adv-x="187" 
d="M40 475c0 1.33301 7.5 2.16504 22.5 2.49805s30.667 0 47 -1s25.833 -2.5 28.5 -4.5c4.66699 -3.33301 2.66699 -13.666 -6 -30.999c-6 -11.333 -9.66699 -26.166 -11 -44.499s-2 -60.5 -2 -126.5s1 -112.833 3 -140.5s6.33301 -55.5 13 -83.5s11.667 -54 15 -78
c2 -10.667 5.5 -21.334 10.5 -32.001s9.16699 -18.834 12.5 -24.501s4.33301 -9.16699 3 -10.5c-6.66699 -7.33301 -31.5 -12.166 -74.5 -14.499s-70.167 -0.5 -81.5 5.5c-6.66699 4 -10 7 -10 9s3.33301 7 10 15c9.33301 12 14 22.5 14 31.5s5.66699 40.833 17 95.5
c8.66699 38 13.834 68.833 15.501 92.5s2.5 68.834 2.5 135.501c0 68.667 -0.833008 111.5 -2.5 128.5s-5.83398 31.833 -12.501 44.5c-9.33301 18.667 -14 29 -14 31zM104 26.999c-2 4 -3.49707 7.66504 -4.49707 10.998s-1.5 5.83301 -1.5 7.5
s-0.333008 2.83398 -1 3.50098s-1.66699 1 -3 1c-6.66699 0 -15.667 -27.333 -27 -82c-6 -27.333 -8.16699 -43 -6.5 -47s12.167 -6.66699 31.5 -8c21.333 -1.33301 33.666 1.33398 36.999 8.00098s1 23 -7 49c-2.66699 8 -4.83398 15.667 -6.50098 23
s-2.83398 12.333 -3.50098 15s-1.66699 5.5 -3 8.5s-3 6.5 -5 10.5z" />
    <glyph glyph-name="braceright" unicode="}" horiz-adv-x="247" 
d="M68 483c29.333 6.66699 55.1699 7.8252 77.5029 3.49219s37.166 -13.5 44.499 -27.5c4.66699 -8 5.66699 -46 3 -114c-2 -35.333 -2.33301 -62.666 -1 -81.999s3.83301 -32.166 7.5 -38.499s10.167 -10.166 19.5 -11.499c12.667 -2 18.5 -8.66699 17.5 -20
s-8.5 -24 -22.5 -38l-26 -26l12 -58c12.667 -58.667 19.834 -97.167 21.501 -115.5s0.166992 -32.166 -4.5 -41.499c-8 -14 -20.5 -23.5 -37.5 -28.5s-41.833 -6.5 -74.5 -4.5c-38.667 3.33301 -64.167 7 -76.5 11s-18.5 10.667 -18.5 20c0 8.66699 2.66699 13.5 8 14.5
s21.333 0.5 48 -1.5c13.333 -1.33301 24.333 -2.33301 33 -3c37.333 -2.66699 62.333 -1.66699 75 3c8.66699 3.33301 13.667 6.66602 15 9.99902s1 12.333 -1 27c-3.33301 25.333 -6.33301 42 -9 50s-6.33398 12 -11.001 12s-9.66699 -6.33301 -15 -19
s-8 -24.334 -8 -35.001c0 -6 -4 -11.833 -12 -17.5s-13.833 -6.66699 -17.5 -3s-4.83398 13.334 -3.50098 29.001s4.66602 30.5 9.99902 44.5c6 18 9.33301 40.667 10 68c1.33301 28 3.5 45.833 6.5 53.5s10.833 15.834 23.5 24.501l23 14l-43 37l-4 219l-17 6
c-14 5.33301 -27 5.83301 -39 1.5s-22 -6.16602 -30 -5.49902s-12 7.33398 -12 20.001c0 6.66699 1.66699 11.334 5 14.001s11 5.33398 23 8.00098z" />
    <glyph glyph-name="asciitilde" unicode="~" horiz-adv-x="412" 
d="M137 511c0.666992 0 6.16406 -2.50098 16.4971 -7.50098l39 -18.5c15.667 -7.33301 32 -14.5 49 -21.5s33.167 -13 48.5 -18s26.333 -7.5 33 -7.5c7.33301 0 15.5 4.16699 24.5 12.5s10.167 16.166 3.5 23.499c-10.667 13.333 -21.667 13.333 -33 0
s-17.666 -7.66602 -18.999 17.001c-0.666992 3.33301 -1 6.66602 -1 9.99902c0 18.667 3.33301 28 10 28s23.334 -8.66699 50.001 -26c23.333 -16 37.333 -27.833 42 -35.5s2 -15.167 -8 -22.5l-39 -28c-16 -12 -31 -18 -45 -18c-11.333 0 -36.833 7 -76.5 21
s-67.834 25.667 -84.501 35c-8 4.66699 -14 7 -18 7s-10.667 -2.33301 -20 -7c-10.667 -5.33301 -22.667 -15.5 -36 -30.5s-24.666 -27.167 -33.999 -36.5s-16.333 -12.333 -21 -9c-7.33301 6.66699 -9.66602 14.834 -6.99902 24.501s10.667 24.167 24 43.5
c11.333 14.667 21 25.334 29 32.001s19.333 12.667 34 18c24.667 9.33301 37.667 14 39 14z" />
    <glyph glyph-name="cent" unicode="&#xa2;" 
d="M121 30c6.66699 3.33301 23.834 4.83203 51.501 4.49902s43.5 -2.5 47.5 -6.5c5.33301 -5.33301 1.33301 -9.66602 -12 -12.999c-12 -2.66699 -28.667 -4 -50 -4c-32.667 0 -48.334 3 -47.001 9c0 2.66699 3.33301 6 10 10zM131 414.999
c23.333 6 40.6631 9.33008 51.9961 9.99707c12.667 0 28.5 -3.66699 47.5 -11s34.833 -15.666 47.5 -24.999c12 -9.33301 23.167 -24.166 33.5 -44.499s15.5 -37.5 15.5 -51.5c0 -6 -0.166992 -10.333 -0.5 -13s-1.66602 -4.16699 -3.99902 -4.5
s-4.66602 -0.166016 -6.99902 0.500977s-6.33301 1.5 -12 2.5s-11.5 1.5 -17.5 1.5c-5.33301 0 -11 5.16699 -17 15.5s-13.167 21.833 -21.5 34.5s-17.166 21.667 -26.499 27c-7.33301 4 -14.166 6.16699 -20.499 6.5s-10.833 -0.833984 -13.5 -3.50098s-3 -7 -1 -13
c4 -13.333 6 -49 6 -107s-2 -92 -6 -102c-5.33301 -13.333 -6.83301 -21.333 -4.5 -24s9.83301 -2 22.5 2c12 3.33301 24.667 10.833 38 22.5s20 20.834 20 27.501c0 8.66699 5.33301 18.834 16 30.501s19.667 17.5 27 17.5c10 0 16.333 2.33301 19 7
c5.33301 8.66699 9.66602 8 12.999 -2c1.33301 -6.66699 1 -14.334 -1 -23.001c-5.33301 -31.333 -16 -57.333 -32 -78s-38.333 -37 -67 -49s-59.667 -14.333 -93 -7s-62.333 23 -87 47c-18.667 18 -31.334 36.667 -38.001 56s-9.66699 46.333 -9 81
c0.666992 44 11.334 80.5 32.001 109.5s50.334 48.833 89.001 59.5zM151.997 347.996c1.33301 6.66699 -1.33203 9.66699 -7.99902 9c-9.33301 0 -20 -6.33301 -32 -19c-13.333 -14 -22.5 -28 -27.5 -42s-7.5 -34.333 -7.5 -61c0 -27.333 4.5 -51 13.5 -71
s20.833 -32.333 35.5 -37c12 -4 20.167 -4 24.5 0s4.5 11.667 0.5 23c-2.66699 6.66699 -3.83398 38 -3.50098 94s1.83301 90.667 4.5 104zM113.999 471.996c2.66699 4.66699 19.165 6.66895 49.498 6.00195s46.833 -3.33398 49.5 -8.00098
c3.33301 -6 0.833008 -12 -7.5 -18s-19.166 -9.66699 -32.499 -11c-8 -0.666992 -17.167 0.833008 -27.5 4.5s-18.666 8.16699 -24.999 13.5s-8.5 9.66602 -6.5 12.999z" />
    <glyph glyph-name="sterling" unicode="&#xa3;" horiz-adv-x="461" 
d="M105 400.5c4.66699 18.333 11.3369 33.9961 20.0039 46.9961s17.5 23 26.5 30s20.333 12.5 34 16.5s25.667 6.5 36 7.5s22.833 1.5 37.5 1.5c62.667 1.33301 106.667 -18.667 132 -60c8 -11.333 17 -33.833 27 -67.5s13.667 -52.5 11 -56.5
c-1.33301 -2 -10.333 -2.33301 -27 -1c-12.667 1.33301 -20.667 4 -24 8s-8 15.667 -14 35c-7.33301 24.667 -15.666 42.5 -24.999 53.5s-23.333 20.167 -42 27.5c-24.667 9.33301 -50 10.166 -76 2.49902s-43 -20.834 -51 -39.501
c-4.66699 -11.333 -6.33398 -27.666 -5.00098 -48.999s5.33301 -39 12 -53c4.66699 -9.33301 9.66699 -15 15 -17s21 -3 47 -3h53l4 -48l-45 -2c-8.66699 -0.666992 -15.667 -1.16699 -21 -1.5s-9.83301 -1 -13.5 -2s-6 -2.16699 -7 -3.5s-1.5 -2.66602 -1.5 -3.99902
c5.33301 -24.667 7.66602 -42.334 6.99902 -53.001s-4.66699 -19 -12 -25c-7.33301 -6.66699 -11.5 -12.167 -12.5 -16.5s1.33301 -8 7 -11s12.334 -5.83301 20.001 -8.5s17.5 -6.5 29.5 -11.5s22.333 -10.833 31 -17.5c16 -10.667 28.333 -16 37 -16
c10.667 0 23.834 6 39.501 18s27.834 25.333 36.501 40c6.66699 11.333 12.167 18.5 16.5 21.5s10.833 4.16699 19.5 3.5c12.667 -1.33301 20.334 -3 23.001 -5c2.66699 -2.66699 0.166992 -12.5 -7.5 -29.5s-16.5 -32.167 -26.5 -45.5
c-10.667 -13.333 -27.167 -27 -49.5 -41s-39.5 -21 -51.5 -21c-6.66699 0 -24.334 7 -53.001 21s-56.667 26.167 -84 36.5s-45 12.5 -53 6.5c-4.66699 -4 -6.83398 -12 -6.50098 -24s3.16602 -23.667 8.49902 -35c3.33301 -8 1 -11.667 -7 -11
c-18.667 1.33301 -44.667 15 -78 41c-6.66699 5.33301 -12.667 10.666 -18 15.999c-20 18.667 -18.667 28 4 28c10.667 0 22.334 8 35.001 24c9.33301 11.333 16.166 17.833 20.499 19.5s14.166 0.833984 29.499 -2.49902c14 -3.33301 23 -4.66602 27 -3.99902
s7.66699 3.66699 11 9c6.66699 12.667 7.5 32.334 2.5 59.001s-12.833 43.334 -23.5 50.001c-4.66699 2.66699 -16 -0.666016 -34 -9.99902c-18.667 -10 -30.667 -13.167 -36 -9.5s-8 16.5 -8 38.5c0 24 1.66699 37 5 39s11.166 -1.16699 23.499 -9.5
s21.166 -12.5 26.499 -12.5c3.33301 0 5.66602 1 6.99902 3s2 5.83301 2 11.5s-1 12.834 -3 21.501l-8 35c-4.66699 18.667 -4.66699 37.167 0 55.5zM101.003 59.9961c0 8.66699 -5.33301 13.6689 -16 15.002c-6 1.33301 -9.83301 1.16602 -11.5 -0.500977
s-2.16699 -5.83398 -1.5 -12.501c0.666992 -6 3.5 -10.5 8.5 -13.5s9.66699 -3.33301 14 -1s6.5 6.5 6.5 12.5z" />
    <glyph glyph-name="section" unicode="&#xa7;" horiz-adv-x="357" 
d="M291 50c2.66699 4.66699 9.33594 6.83105 20.0029 6.49805s17.667 -2.83301 21 -7.5c4 -5.33301 5.66699 -16.833 5 -34.5s-3.33398 -32.167 -8.00098 -43.5c-9.33301 -23.333 -29 -41.166 -59 -53.499s-61 -18.166 -93 -17.499s-61.5 6.66699 -88.5 18
s-42.833 26.333 -47.5 45c-1.33301 7.33301 -5.33301 18 -12 32s-11.834 25.667 -15.501 35s-4.16699 15 -1.5 17c2.66699 1.33301 10 -0.333984 22 -5.00098l41.5 -16c15.667 -6 28.167 -9 37.5 -9c14.667 0 23 -1.66699 25 -5s-1.33301 -10.666 -10 -21.999
c-6 -8.66699 -10.5 -13.334 -13.5 -14.001s-8.16699 1.33301 -15.5 6c-12.667 8.66699 -19.667 10 -21 4c-0.666992 -6 4 -12 14 -18c4.66699 -2.66699 9.33398 -4 14.001 -4c9.33301 0 18.333 -3.33301 27 -10c9.33301 -6.66699 24.166 -9.66699 44.499 -9
s40.166 5.33398 59.499 14.001c26 10.667 42.167 19.667 48.5 27s8.5 18.333 6.5 33c-2.66699 16.667 -3 27 -1 31zM51.002 388.997c0 29.333 10.832 52.833 32.499 70.5s46.667 27.667 75 30s56.5 -1.83398 84.5 -12.501s48 -27 60 -49c5.33301 -10.667 10.333 -26 15 -46
s5.66699 -31 3 -33c-6.66699 -4 -20.5 2.16699 -41.5 18.5s-31.5 29.166 -31.5 38.499c0 10.667 -6.83301 19.834 -20.5 27.501s-30.167 11.5 -49.5 11.5c-15.333 0 -26.333 -1.16699 -33 -3.5s-14.334 -7.83301 -23.001 -16.5c-7.33301 -8 -12 -14.333 -14 -19
s-2 -10.667 0 -18c2.66699 -12.667 6 -21.667 10 -27c6.66699 -8 61.334 -38.667 164.001 -92c12 -6 25.667 -17.667 41 -35c10.667 -11.333 17.334 -20.5 20.001 -27.5s4 -17.5 4 -31.5c0 -14.667 -1.33301 -25.334 -4 -32.001s-9.33398 -16 -20.001 -28
c-16 -17.333 -33.667 -31.666 -53 -42.999l-29 -17l14 -15c12.667 -13.333 15.667 -28.666 9 -45.999c-6 -15.333 -13.667 -10 -23 16c-0.666992 2 -1.66699 4.33301 -3 7c-6 19.333 -15.333 34.5 -28 45.5s-37 25.5 -73 43.5c-32.667 16 -56.5 29.833 -71.5 41.5
s-26.5 25.167 -34.5 40.5c-11.333 22.667 -14.5 44.5 -9.5 65.5s17.833 39.5 38.5 55.5c13.333 9.33301 20.833 17 22.5 23s-0.166016 10.333 -5.49902 13s-11 8 -17 16s-9 17.333 -9 28zM115.001 299.997c-1.33301 0 -5.49902 -3.16504 -12.499 -9.49805
s-14 -14.5 -21 -24.5s-10.5 -19 -10.5 -27c0 -12.667 8 -27.334 24 -44.001s35.667 -31 59 -43c25.333 -13.333 45.666 -25.333 60.999 -36l22 -15l23 12c14 8 24.333 19 31 33s7.66699 26.667 3 38c-4.66699 9.33301 -21.667 23.666 -51 42.999s-57.5 36.333 -84.5 51
s-41.5 22 -43.5 22z" />
    <glyph glyph-name="guillemotleft" unicode="&#xab;" horiz-adv-x="249" 
d="M109 156c0 -2.66699 0.667969 -5.83496 2.00098 -9.50195s2.66602 -6.5 3.99902 -8.5l6 -9c4.66699 -6 7 -10.833 7 -14.5s-4.33301 -5.5 -13 -5.5c-18 0 -42.667 15 -74 45c-14.667 14 -23.5 24.167 -26.5 30.5s-4.5 17.5 -4.5 33.5c0 16.667 1.83301 28 5.5 34
s16.5 18 38.5 36c30 24.667 47 36.334 51 35.001c3.33301 -0.666992 5 -10.167 5 -28.5s-1.66699 -30.166 -5 -35.499c-1.33301 -2 -11 -8 -29 -18s-27 -17.333 -27 -22c0 -4 10 -14 30 -30s30 -27 30 -33zM198.001 320.999c14 26 23.001 18.333 27.001 -23
c2 -15.333 0.666992 -26.666 -4 -33.999s-16.667 -18 -36 -32c-12.667 -8.66699 -17.834 -16.167 -15.501 -22.5s12.5 -12.833 30.5 -19.5c13.333 -4.66699 22.5 -8.83398 27.5 -12.501s8.16699 -9.5 9.5 -17.5c2 -8 1.66699 -14.5 -1 -19.5s-9 -12.167 -19 -21.5
c-20.667 -17.333 -32 -23.333 -34 -18c-1.33301 2 -2 6.33301 -2 13c0 11.333 -8.66699 25.333 -26 42c-12 11.333 -19.5 20.166 -22.5 26.499s-4.5 17.5 -4.5 33.5c0 16.667 1.5 27.834 4.5 33.501s11.5 14.5 25.5 26.5c20 16.667 33.333 31.667 40 45z" />
    <glyph glyph-name="guillemotright" unicode="&#xbb;" horiz-adv-x="251" 
d="M139 299c0 18 1.33203 27.002 3.99902 27.002c2 0 8 -4 18 -12l34 -26.5c12.667 -9.66699 21.667 -16.167 27 -19.5c6 -2.66699 10.167 -7 12.5 -13s3.83301 -15.667 4.5 -29c2 -16.667 1.66699 -28 -1 -34s-11.334 -17 -26.001 -33c-21.333 -22 -44.666 -39 -69.999 -51
c-16.667 -7.33301 -24 -6 -22 4c0.666992 4.66699 3.33398 10.667 8.00098 18c7.33301 13.333 11 22.333 11 27s10.333 16.667 31 36c15.333 13.333 23.833 21.666 25.5 24.999s-0.833008 7 -7.5 11c-32.667 21.333 -49 44.666 -49 69.999zM28.999 325.002
c5.33301 5.33301 9.50195 7.50293 12.502 6.50293s6.5 -5.83301 10.5 -14.5c5.33301 -10.667 17.666 -24.334 36.999 -41.001c14 -11.333 22.5 -20 25.5 -26s4.5 -16.333 4.5 -31s-1.33301 -25.334 -4 -32.001s-10 -16.334 -22 -29.001c-17.333 -19.333 -26 -33.333 -26 -42
s-3 -13 -9 -13s-13 4.33301 -21 13s-14.833 13 -20.5 13s-7.5 8 -5.5 24c0.666992 11.333 2.66699 18.833 6 22.5s12.666 8.16699 27.999 13.5c21.333 6.66699 32.333 13.834 33 21.501s-8.33301 18.167 -27 31.5c-14 9.33301 -22.5 16.666 -25.5 21.999s-4.5 14 -4.5 26
c0 18 2.66699 29.667 8 35z" />
    <glyph glyph-name="questiondown" unicode="&#xbf;" horiz-adv-x="295" 
d="M140 375c5.33301 2 14.6699 1.66895 28.0029 -0.998047s22.333 -6.33398 27 -11.001s5 -20 1 -46c-2.66699 -18.667 -6.66699 -32.334 -12 -41.001s-21.666 -26.667 -48.999 -54c-36.667 -38 -57.667 -61.667 -63 -71c-8 -16.667 -8.83301 -35.167 -2.5 -55.5
s17.166 -33.5 32.499 -39.5c16 -6 33 -8 51 -6s32.333 7.66699 43 17c20 16.667 24.667 35 14 55c-2.66699 5.33301 -3.33398 9.83301 -2.00098 13.5s5.33301 8.83398 12 15.501c6.66699 7.33301 12.5 11.666 17.5 12.999s12.167 1.33301 21.5 0
c15.333 -2.66699 24 -5.33398 26 -8.00098c2 -3.33301 -0.166992 -18.666 -6.5 -45.999s-11.833 -46.333 -16.5 -57c-6.66699 -12.667 -19.667 -24 -39 -34s-40.833 -15.833 -64.5 -17.5s-46.834 0.333008 -69.501 6s-41.5 18.5 -56.5 38.5s-22.5 45.333 -22.5 76
c0 23.333 4 42.333 12 57s23.667 33 47 55c31.333 28.667 50.666 49.167 57.999 61.5s10 27.5 8 45.5c-2.66699 20 -1 31.333 5 34zM108.004 478.002c2.66699 4.66699 17.002 6.16602 43.002 4.49902s46.667 -5.5 62 -11.5l20 -7l-16 -12
c-7.33301 -6 -11.5 -10.667 -12.5 -14s0.5 -9 4.5 -17c5.33301 -11.333 6 -19.166 2 -23.499s-11.833 -4.16602 -23.5 0.500977s-25.167 7 -40.5 7c-12.667 0 -20.834 2.16699 -24.501 6.5s-2.5 11.166 3.5 20.499c3.33301 6 4.66602 10.333 3.99902 13
s-4.66699 6.66699 -12 12c-10 8 -13.333 15 -10 21z" />
    <glyph glyph-name="Agrave" unicode="&#xc0;" horiz-adv-x="510" 
d="M197 471c2.66699 4.66699 19.999 6.83496 51.999 6.50195s50.333 -2.83301 55 -7.5c4 -4 5.16699 -7.83301 3.5 -11.5s-3.66699 -7.83398 -6 -12.501s-0.5 -14 5.5 -28c6 -13.333 21.167 -51 45.5 -113s38.166 -98.667 41.499 -110c4 -12.667 22.667 -47.334 56 -104.001
c7.33301 -12 17 -19 29 -21c14 -2.66699 21 -6.5 21 -11.5s-6.66699 -10.5 -20 -16.5c-15.333 -7.33301 -31.666 -18.666 -48.999 -33.999c-11.333 -10.667 -23.166 -17.834 -35.499 -21.501s-21.166 -2.83398 -26.499 2.49902c-2.66699 2.66699 -0.666992 10.334 6 23.001
c6 16 8 27.5 6 34.5l-9.5 33c-4.33301 15 -6.16602 29.167 -5.49902 42.5c0.666992 10.667 0.166992 17 -1.5 19s-6.16699 2.33301 -13.5 1c-10.667 -2 -42.5 -3 -95.5 -3s-85.5 1 -97.5 3c-10 2 -15.833 1.5 -17.5 -1.5s-2.5 -13.5 -2.5 -31.5
c-0.666992 -16 -2.33398 -29.667 -5.00098 -41s-5 -19.166 -7 -23.499s-2.83301 -8.83301 -2.5 -13.5s2.5 -10.334 6.5 -17.001c8 -12 11.167 -20 9.5 -24s-8.5 -6 -20.5 -6c-10 0 -18.833 2.66699 -26.5 8s-16.5 12.833 -26.5 22.5s-20.667 17.5 -32 23.5
c-28.667 14.667 -30.334 24.334 -5.00098 29.001c13.333 2.66699 24 10.667 32 24c26.667 45.333 52 100.666 76 165.999l37 102c6 15.333 12 29 18 41s10.167 19.833 12.5 23.5s3.5 7.5 3.5 11.5s-2 9 -6 15c-6 9.33301 -7.66699 16.333 -5 21zM275.999 349.001
c-5.33301 22 -12.332 33.667 -20.999 35c-8 1.33301 -13.667 0.333008 -17 -3s-5 -10 -5 -20c0 -8.66699 -6.66699 -31 -20 -67s-24 -60 -32 -72c-10 -15.333 -9.33301 -25 2 -29c9.33301 -3.33301 32.333 -5 69 -5c48 0 74.667 3.33301 80 10
c3.33301 4 4.83301 7.33301 4.5 10s-2.83301 6.66699 -7.5 12c-6.66699 7.33301 -15.834 25.333 -27.501 54s-20.167 53.667 -25.5 75zM423 51.001c4.66699 -1.33301 7 -0.333008 7 3c-1.33301 6.66699 -5.33301 11.667 -12 15c-4 1.33301 -6.33301 0.333008 -7 -3
c1.33301 -6.66699 5.33301 -11.667 12 -15zM85 50.001c6.66699 0 8.66699 2.33301 6 7c-2.66699 4 -6 6 -10 6s-6 -2.16699 -6 -6.5s3.33301 -6.5 10 -6.5zM206 625.001c27.333 4 56.3291 3.33203 86.9961 -2.00098c25.333 -4 38 -8.66699 38 -14
c0 -2 -1.66699 -4.66699 -5 -8c-4 -4 -6.5 -8.33301 -7.5 -13s-0.5 -10 1.5 -16s4 -10.833 6 -14.5s5 -8.5 9 -14.5c6.66699 -9.33301 9.5 -16.166 8.5 -20.499s-8.83301 -4.83301 -23.5 -1.5c-11.333 2 -23.166 3.83301 -35.499 5.5s-22.166 2.83398 -29.499 3.50098
s-14.166 1.5 -20.499 2.5s-11.166 2.66699 -14.499 5s-5.33301 5.5 -6 9.5c-2 12 -8.66699 22.333 -20 31s-22 15.167 -32 19.5s-15 8.16602 -15 11.499c0 2.66699 3.5 5 10.5 7s23.167 5 48.5 9zM274.996 596c-11.333 4.66699 -17.333 6.66602 -18 5.99902
c-20.667 -7.33301 -31 -14.333 -31 -21c0 -16 13.667 -24 41 -24c11.333 0 18.333 0.833008 21 2.5s4 6.16699 4 13.5c0 10.667 -5.66699 18.334 -17 23.001z" />
    <glyph glyph-name="Aacute" unicode="&#xc1;" horiz-adv-x="510" 
d="M196 470c3.33301 5.33301 20.9971 8.00195 52.9971 8.00195c40.667 0 61 -6.33301 61 -19c0 -3.33301 -1 -7.33301 -3 -12c-2 -2.66699 -3.16699 -5.5 -3.5 -8.5s0 -6.83301 1 -11.5s2.33301 -9.5 4 -14.5s4.33398 -11.833 8.00098 -20.5l11 -26.5l15 -36l18.5 -45.5
c35.333 -88.667 60.333 -146.334 75 -173.001s30 -40.667 46 -42c18.667 -2.66699 23 -8.66699 13 -18c-4 -3.33301 -10 -6.66602 -18 -9.99902c-12.667 -6 -24.334 -14 -35.001 -24s-20 -18 -28 -24s-17.333 -9 -28 -9s-17.167 1 -19.5 3s-2 5.16699 1 9.5
s6.16699 10 9.5 17s5.33301 15.333 6 25s-2.33301 20.834 -9 33.501c-6 12.667 -8.66699 28 -8 46c0.666992 13.333 0.333984 21.166 -0.999023 23.499s-7 2.5 -17 0.5c-13.333 -2 -45.166 -3 -95.499 -3s-82.166 1 -95.499 3c-10 2 -15.833 1.66699 -17.5 -1
s-2.5 -12.334 -2.5 -29.001c-0.666992 -8.66699 -1.5 -18.334 -2.5 -29.001l-2.5 -27.5l-2 -22c-0.666992 -7 -0.666992 -12.667 0 -17s2 -7.16602 4 -8.49902c7.33301 -4.66699 9.33301 -9.83398 6 -15.501s-10.333 -8.5 -21 -8.5c-10 0 -18.667 2.66699 -26 8
s-16 12.833 -26 22.5s-21 17.5 -33 23.5c-10.667 5.33301 -17.667 9.66602 -21 12.999s-3.66602 6.33301 -0.999023 9s8.66699 5.33398 18 8.00098c14.667 4 28.667 17.5 42 40.5s29.5 59.333 48.5 109s33.5 85.167 43.5 106.5c8 17.333 14.667 34.333 20 51s10 28 14 34
c7.33301 12 10.166 21.5 8.49902 28.5s-4.16699 13.5 -7.5 19.5s-4.33301 10.333 -3 13zM275.997 369.002c-1.33301 6 -3.5 10.334 -6.5 13.001s-7.5 4 -13.5 4c-8.66699 0 -14.334 -2 -17.001 -6s-5.66699 -15.333 -9 -34c-2 -12.667 -9.66699 -35.667 -23 -69
s-22.666 -53.666 -27.999 -60.999c-4.66699 -5.33301 -4 -11.333 2 -18c6 -7.33301 31.5 -10.833 76.5 -10.5s69.167 4.16602 72.5 11.499c2.66699 7.33301 1.66699 14.666 -3 21.999c-5.33301 8 -13.5 26.167 -24.5 54.5s-17.5 47.833 -19.5 58.5zM94.9971 60.0029
c0 6.66699 -2.16699 10 -6.5 10s-6.5 -3.33301 -6.5 -10s2.16699 -10 6.5 -10s6.5 3.33301 6.5 10zM416.997 47.0029c2.66699 -1.33301 5.16699 -1.33203 7.5 0.000976562s3.5 3.33301 3.5 6s-1.33301 5 -4 7c-2.66699 1.33301 -5.16699 1.16602 -7.5 -0.500977
s-3.5 -3.66699 -3.5 -6s1.33301 -4.5 4 -6.5zM206.997 625.004c22.667 3.33301 54 2.66992 94 -1.99707s60 -10.334 60 -17.001c0 -4.66699 -7 -9.33398 -21 -14.001c-16 -4.66699 -27.333 -11.167 -34 -19.5s-10 -15.666 -10 -21.999s-2.5 -11.833 -7.5 -16.5
s-13.833 -6.33398 -26.5 -5.00098c-10 0.666992 -34.333 -2 -73 -8c-16 -2.66699 -24 -1 -24 5c0 3.33301 2.66699 8.66602 8 15.999c18.667 27.333 22 47.666 10 60.999c-3.33301 4 -5.5 6.83301 -6.5 8.5s-0.5 3.33398 1.5 5.00098s5 3 9 4s10.667 2.5 20 4.5z
M281.997 590.008c-2 2.66699 -8.5 4.66504 -19.5 5.99805s-22 0 -33 -4s-16.5 -12 -16.5 -24c0 -5.33301 4.16699 -9.16602 12.5 -11.499s17.5 -2.16602 27.5 0.500977s17.333 7 22 13c6.66699 10 9 16.667 7 20z" />
    <glyph glyph-name="Acircumflex" unicode="&#xc2;" horiz-adv-x="513" 
d="M336 357c0 -2.66699 9.83398 -27.3359 29.501 -74.0029s29.5 -71.667 29.5 -75c0 -2.66699 6 -17.167 18 -43.5s22 -46.166 30 -59.499c7.33301 -12.667 14 -21.667 20 -27s13 -8 21 -8c12 0 18.333 -2.66699 19 -8s-5 -11 -17 -17c-14.667 -7.33301 -31 -19.333 -49 -36
c-12 -11.333 -24.167 -19 -36.5 -23s-21.166 -3.33301 -26.499 2c-2.66699 2.66699 -0.666992 10.334 6 23.001c4.66699 7.33301 7.16699 14 7.5 20s-0.5 11.5 -2.5 16.5s-4.33301 13.5 -7 25.5s-4.33398 25.167 -5.00098 39.5s-1.83398 23.333 -3.50098 27
s-5.16699 4.83398 -10.5 3.50098c-9.33301 -2 -47.666 -3.33301 -114.999 -4l-101 -1l-2 -35c-0.666992 -14 -2.33398 -25.833 -5.00098 -35.5s-4.83398 -16 -6.50098 -19s-2.33398 -7 -2.00098 -12s2.5 -11.833 6.5 -20.5c7.33301 -14 10.333 -22.833 9 -26.5
s-7.66602 -5.5 -18.999 -5.5c-12.667 0 -28.667 8.16699 -48 24.5s-35.333 27.166 -48 32.499c-9.33301 4 -15 7.16699 -17 9.5s-1.33301 5.5 2 9.5c4.66699 6 13 9.66699 25 11c7.33301 0.666992 13.833 4.33398 19.5 11.001s13.5 20 23.5 40c9.33301 18 22 46 38 84
l41.5 101.5c11.667 29.667 17.5 45.5 17.5 47.5c0 2.66699 3.5 11.667 10.5 27s12.5 28.833 16.5 40.5s3.66699 22.5 -1 32.5c-5.33301 6 -6.66602 11 -3.99902 15c2.66699 4.66699 20 7 52 7s50.333 -2.33301 55 -7c4.66699 -4 6 -8 4 -12s-3.83301 -9.66699 -5.5 -17
s2.5 -22 12.5 -44c12 -24 18 -37.333 18 -40zM278.001 358.998c-4 15.333 -10.332 23.667 -18.999 25s-14.167 0.333008 -16.5 -3s-5.16602 -12.666 -8.49902 -27.999c-2.66699 -14.667 -10.667 -39.667 -24 -75s-22.333 -56 -27 -62
c-4.66699 -5.33301 -4.33398 -11.333 0.999023 -18s29.666 -9.66699 72.999 -9c48.667 1.33301 74 6.66602 76 15.999c0.666992 4 -1.33301 9.66699 -6 17c-5.33301 8 -13.5 27.833 -24.5 59.5s-19.167 57.5 -24.5 77.5zM92.002 56.499c0 4.33301 -1 6.5 -3 6.5
c-2.66699 0 -5 -2.33301 -7 -7c-1.33301 -4 -0.333008 -6 3 -6c4.66699 0 7 2.16699 7 6.5zM434.002 52.999c0 6.66699 -2.16699 10 -6.5 10s-6.5 -3.33301 -6.5 -10s2.16699 -10 6.5 -10s6.5 3.33301 6.5 10zM194.002 623.999c10 2 33.166 2.33203 69.499 0.999023
s58.5 -3.33301 66.5 -6c6 -2.66699 9 -11.667 9 -27c0 -8.66699 1.83301 -16.167 5.5 -22.5s11.167 -14.166 22.5 -23.499c30.667 -26 35 -37.667 13 -35c-10 1.33301 -25.667 5.66602 -47 12.999c-47.333 16.667 -103 15.334 -167 -3.99902
c-24 -7.33301 -37.667 -8.83301 -41 -4.5s3.33398 14.833 20.001 31.5c19.333 20 29 37 29 51c0 8.66699 1.33301 14.667 4 18s8 6 16 8zM218.001 571.998c-4.66699 5.33301 -9.83301 8.66602 -15.5 9.99902s-10.167 0 -13.5 -4
c-7.33301 -7.33301 -4.33301 -14.666 9 -21.999c9.33301 -4.66699 16.5 -5 21.5 -1s4.5 9.66699 -1.5 17zM326.002 568.998c0 12 -5.33398 15.334 -16.001 10.001c-9.33301 -4.66699 -14 -10 -14 -16c0.666992 -4.66699 5.83398 -6.33398 15.501 -5.00098s14.5 5 14.5 11z
" />
    <glyph glyph-name="Adieresis" unicode="&#xc4;" horiz-adv-x="513" 
d="M204 470c2.66699 5.33301 19.833 7.99316 51.5 7.99316s50.167 -2.66699 55.5 -8c4 -4 5.16699 -8.16699 3.5 -12.5s-3.33398 -9.83301 -5.00098 -16.5s1.16602 -18.667 8.49902 -36c13.333 -29.333 31.166 -74 53.499 -134s39.5 -100 51.5 -120
c6 -9.33301 12 -20.333 18 -33l13 -27.5c2.66699 -5.66699 6.83398 -10.5 12.501 -14.5s12.834 -6 21.501 -6c11.333 0 16.333 -3.33301 15 -10c-0.666992 -7.33301 -7.66699 -13.666 -21 -18.999c-12 -5.33301 -26.333 -16.166 -43 -32.499s-31.667 -24.5 -45 -24.5
c-12.667 0 -19.667 1.5 -21 4.5s1.66699 9.83301 9 20.5c4.66699 4.66699 6.83398 11.834 6.50098 21.501s-1.83301 18.334 -4.5 26.001s-5.16699 17.834 -7.5 30.501s-3.16602 24.5 -2.49902 35.5s0.166992 17.333 -1.5 19s-7.5 1.83398 -17.5 0.500977
c-12.667 -2 -43.167 -3 -91.5 -3s-80.166 1 -95.499 3l-23 3l2 -31c0.666992 -13.333 -0.5 -25.666 -3.5 -36.999s-6.16699 -20 -9.5 -26s-5 -12.667 -5 -20s3 -15 9 -23c11.333 -14.667 9 -22.667 -7 -24c-16.667 -0.666992 -30 4 -40 14
c-5.33301 6.66699 -14.833 14.334 -28.5 23.001s-25.834 16 -36.501 22s-16 9.66699 -16 11c0 2 8.66699 6.33301 26 13c10.667 4 19 9.5 25 16.5s14 20.5 24 40.5c13.333 26 35.666 78.5 66.999 157.5s48.666 121.833 51.999 128.5c8 16 11 27 9 33
s-4.66699 11.167 -8 15.5s-3.66602 8.16602 -0.999023 11.499zM309.999 273.993c-7.33301 16 -13.334 31.166 -18.001 45.499s-7.83398 25 -9.50098 32s-3.33398 13.167 -5.00098 18.5s-3.5 8.83301 -5.5 10.5s-5 2.83398 -9 3.50098
c-8.66699 1.33301 -14.667 0.333008 -18 -3s-5 -10 -5 -20c0 -8 -7.16699 -31.5 -21.5 -70.5s-25.166 -64.5 -32.499 -76.5c-8 -12 -2.66699 -19.667 16 -23c12.667 -1.33301 34.334 -1.66602 65.001 -0.999023h7h23.5c5 0 10.5 0.666992 16.5 2s10 2.16602 12 2.49902
s3.83301 2.33301 5.5 6s2.33398 6.5 2.00098 8.5s-1.5 6.66699 -3.5 14s-4.16699 13.5 -6.5 18.5s-5.83301 13.167 -10.5 24.5c-1.33301 3.33301 -2.33301 6 -3 8zM437.998 52.9922c0 5.33301 -1.83203 9.5 -5.49902 12.5s-7.16699 2.83301 -10.5 -0.5
c-4 -4 -5.33301 -8.66699 -4 -14s4.66602 -8 9.99902 -8c2.66699 0 5 1 7 3s3 4.33301 3 7zM177.999 598.992c37.333 7.33301 78.999 8.83203 124.999 4.49902s75.333 -12.5 88 -24.5c5.33301 -5.33301 4.33301 -9.66602 -3 -12.999s-14 -6.5 -20 -9.5
s-3.66699 -9.5 7 -19.5c4 -3.33301 6.83301 -7.16602 8.5 -11.499s1.83398 -7.83301 0.500977 -10.5s-4 -4 -8 -4c-0.666992 0 -7.33398 1.66699 -20.001 5s-26.5 6.5 -41.5 9.5s-35 4.5 -60 4.5s-50.5 -3.33301 -76.5 -10c-28.667 -6.66699 -43 -7.33398 -43 -2.00098
c0 2.66699 1.66699 6.66699 5 12c10.667 17.333 8.33398 31.333 -6.99902 42c-9.33301 6.66699 -12.833 11.167 -10.5 13.5s20.833 6.83301 55.5 13.5zM223.998 565.991c0 8.66699 -3.33496 13.667 -10.002 15s-14 -1 -22 -7c-5.33301 -3.33301 -8.16602 -6 -8.49902 -8
s1.83398 -4.66699 6.50098 -8c7.33301 -6 14.833 -8 22.5 -6s11.5 6.66699 11.5 14zM321.996 556.991c9.33301 7.33301 8.66699 14.667 -2 22c-10.667 6.66699 -18.667 6 -24 -2c-2 -3.33301 -3 -7.33301 -3 -12c0 -6 3.5 -10 10.5 -12s13.167 -0.666992 18.5 4z" />
    <glyph glyph-name="Ccedilla" unicode="&#xc7;" horiz-adv-x="432" 
d="M140 -47c0 4 7.16992 9.00195 21.5029 15.002s24.666 7.66699 30.999 5s18.666 -4 36.999 -4s33.166 -2.5 44.499 -7.5s17 -15.167 17 -30.5s-6.83301 -26 -20.5 -32s-38.5 -9 -74.5 -9c-42 -0.666992 -64.333 0.666016 -67 3.99902c-6 6 -2 12.333 12 19
c8.66699 4.66699 17.667 6.66699 27 6c48.667 -4 77.667 -2 87 6c15.333 12.667 12.666 19 -8.00098 19c-5.33301 0 -12 -0.333008 -20 -1c-21.333 -2.66699 -41.166 -2.83398 -59.499 -0.500977s-27.5 5.83301 -27.5 10.5zM156.003 482.002c18 6 44.5 8.33203 79.5 6.99902
s59.5 -5.66602 73.5 -12.999c14.667 -8 30.334 -19.5 47.001 -34.5s30.667 -30.167 42 -45.5c20.667 -28.667 22.334 -43 5.00098 -43c-6 0 -11.333 -3.16699 -16 -9.5s-8 -12.166 -10 -17.499s-5 -6.83301 -9 -4.5s-9.33301 10.833 -16 25.5c-6.66699 15.333 -18 31 -34 47
s-31 26.333 -45 31c-14 6 -32.5 8.16699 -55.5 6.5s-42.167 -6.5 -57.5 -14.5c-28.667 -14.667 -50.667 -40.334 -66 -77.001s-21 -77 -17 -121c6 -58.667 21.333 -100.834 46 -126.501s60.667 -37.167 108 -34.5c30 1.33301 54.167 8.16602 72.5 20.499
s34.833 32.166 49.5 59.499c13.333 24.667 21.666 37 24.999 37c2 0 5.16699 -4.66699 9.5 -14s10.833 -15.666 19.5 -18.999c7.33301 -2.66699 11.833 -5.5 13.5 -8.5s1.16699 -7.33301 -1.5 -13s-8.33398 -15.167 -17.001 -28.5c-13.333 -20 -32.333 -38.667 -57 -56
s-49.334 -29.666 -74.001 -36.999c-15.333 -4 -27.666 -6.16699 -36.999 -6.5s-23 1.16699 -41 4.5c-28.667 6 -50 11.667 -64 17c-15.333 6 -32.166 17.833 -50.499 35.5s-31.833 35.5 -40.5 53.5c-15.333 30.667 -24.333 69.834 -27 117.501
s1.66602 90.834 12.999 129.501c9.33301 29.333 26 56.166 50 80.499s51.333 41.5 82 51.5z" />
    <glyph glyph-name="Egrave" unicode="&#xc8;" horiz-adv-x="370" 
d="M56 469c14 5.33301 29.334 8.66309 46.001 9.99609s45.667 2 87 2c46.667 -0.666992 76.5 -1.83398 89.5 -3.50098s27.5 -6.83398 43.5 -15.501c16 -8 25.833 -14 29.5 -18s5.5 -11.333 5.5 -22c0 -13.333 -2.83301 -20.833 -8.5 -22.5s-16.5 1.5 -32.5 9.5
c-12.667 6.66699 -44.167 11.334 -94.5 14.001s-84.166 1.66699 -101.499 -3c-5.33301 -1.33301 -9.33301 -2.66602 -12 -3.99902s-4.83398 -2.66602 -6.50098 -3.99902s-2.33398 -3.83301 -2.00098 -7.5s0.5 -7.33398 0.5 -11.001s0.333008 -9.66699 1 -18l2 -25.5v-39
l82 2c54.667 0.666992 85.667 3 93 7c14.667 8 24 -1 28 -27c3.33301 -21.333 2.66602 -36.333 -2.00098 -45c-3.33301 -6.66699 -6.16602 -10.167 -8.49902 -10.5s-6.5 1.83398 -12.5 6.50098c-10 6.66699 -41.667 10 -95 10h-81v-73c0 -48 -2.33301 -76.667 -7 -86
c-6.66699 -12.667 -3.66699 -20.334 9 -23.001c12.667 -3.33301 43.667 -4.66602 93 -3.99902c39.333 0 66.666 0.833008 81.999 2.5s29.333 5.5 42 11.5c5.33301 2.66699 10.5 4.83398 15.5 6.50098s8.83301 3 11.5 4l4 1.5c0 -0.666992 0.666992 -9.66699 2 -27
c1.33301 -12 0.333008 -20 -3 -24s-14.333 -10.333 -33 -19c-18 -8.66699 -33.333 -14 -46 -16s-41 -3.33301 -85 -4c-89.333 -0.666992 -147.333 9 -174 29c-6 4 -8.66699 7 -8 9s6 5.33301 16 10l20 10v179c0.666992 84.667 0.333984 136.167 -0.999023 154.5
s-5 30.5 -11 36.5c-8.66699 8.66699 -13 14.834 -13 18.501s11.667 9.83398 35 18.501zM111.001 622.997c34 6 72.6699 5.33105 116.003 -2.00195c28 -5.33301 38.667 -12 32 -20c-5.33301 -5.33301 -7.66602 -13.333 -6.99902 -24s4 -20.667 10 -30
c6.66699 -10 8.66699 -17.667 6 -23s-9 -6.33301 -19 -3c-12.667 4 -27.334 6.33301 -44.001 7s-29.334 2.5 -38.001 5.5s-15.334 9.5 -20.001 19.5c-6.66699 14.667 -13.5 25.334 -20.5 32.001s-16.167 11.334 -27.5 14.001c-16.667 3.33301 -21.334 8.33301 -14.001 15
c4 4 12.667 7 26 9zM215.004 583.995c-6.66699 6.66699 -16.165 10.667 -28.498 12s-20.5 -1 -24.5 -7c-3.33301 -5.33301 0.166992 -12 10.5 -20s20.166 -12 29.499 -12c10.667 0 17.167 2.5 19.5 7.5s0.166016 11.5 -6.50098 19.5z" />
    <glyph glyph-name="Eacute" unicode="&#xc9;" horiz-adv-x="370" 
d="M55 469c14.667 5.33301 30.4951 8.66699 47.4951 10s46.833 2 89.5 2c48.667 -0.666992 79.167 -1.83398 91.5 -3.50098s25.833 -6.83398 40.5 -15.501c13.333 -7.33301 21.666 -13.333 24.999 -18s5 -12 5 -22c-0.666992 -13.333 -2.5 -20.666 -5.5 -21.999
s-11.5 1.66699 -25.5 9c-12.667 6 -45.5 10.5 -98.5 13.5s-87.833 2.16699 -104.5 -2.5c-6 -1.33301 -10.167 -2.66602 -12.5 -3.99902s-4.33301 -2.66602 -6 -3.99902s-2.5 -3.83301 -2.5 -7.5s0.166992 -7.33398 0.5 -11.001s0.833008 -9.66699 1.5 -18s1 -16.833 1 -25.5
l1 -39l86 1c56.667 1.33301 88 4.33301 94 9c10.667 9.33301 18 2 22 -22c1.33301 -6 2.33301 -13.333 3 -22l4 -38l-19 5c-14.667 3.33301 -48.667 6.16602 -102 8.49902s-81 2.16602 -83 -0.500977c-1.33301 -2 -1.66602 -25.833 -0.999023 -71.5
s-1.66602 -73.5 -6.99902 -83.5c-7.33301 -13.333 -5.16602 -21.666 6.50098 -24.999s42.834 -5 93.501 -5c40.667 0.666992 68.334 1.83398 83.001 3.50098s28.667 5.5 42 11.5c6 2 11.333 4 16 6s8.5 3.5 11.5 4.5l4.5 1.5c0 -0.666992 0.666992 -9.66699 2 -27
c0.666992 -12 -0.5 -20 -3.5 -24s-13.833 -10.333 -32.5 -19c-18 -8.66699 -33.5 -14 -46.5 -16s-40.167 -3 -81.5 -3c-98 -1.33301 -158 8.33398 -180 29.001c-3.33301 4 -4.83301 6.66699 -4.5 8s2 2.83301 5 4.5s6.16699 3 9.5 4s6.83301 3.16699 10.5 6.5
s6.16699 7 7.5 11c2 8 2.66699 69.667 2 185c-0.666992 78.667 -1.66699 127.5 -3 146.5s-4.66602 29.833 -9.99902 32.5c-20 11.333 -12.333 23.666 23 36.999zM120.995 622.001c14 6.66699 46.8359 7.00293 98.5029 1.00293s77.5 -12.667 77.5 -20
c0 -4 -8.33301 -8.66699 -25 -14c-15.333 -4.66699 -25.333 -9.33398 -30 -14.001s-9.33398 -13.334 -14.001 -26.001l-6 -21l-61 -1c-40.667 -0.666992 -61 0.666016 -61 3.99902s4.66699 13 14 29c6 10.667 9.16699 18 9.5 22s-1.83398 9.66699 -6.50098 17
c-5.33301 8 -7.83301 13.167 -7.5 15.5s4.16602 4.83301 11.499 7.5zM211.998 592.004c-4.66699 5.33301 -8.83301 8.33496 -12.5 9.00195s-12.167 -0.333008 -25.5 -3c-11.333 -2.66699 -19.333 -7.33398 -24 -14.001s-4.66699 -12.834 0 -18.501s12.667 -8.5 24 -8.5
c14 0 25.333 4 34 12s10 15.667 4 23z" />
    <glyph glyph-name="Ecircumflex" unicode="&#xca;" horiz-adv-x="364" 
d="M53 469c14 5.33301 29.5029 8.66211 46.5029 9.99512s45.833 2 86.5 2c46.667 -0.666992 76.5 -1.83398 89.5 -3.50098s27.5 -6.5 43.5 -14.5c16 -8.66699 25.5 -15 28.5 -19s3.83301 -12 2.5 -24c-0.666992 -16.667 -1.33398 -25.334 -2.00098 -26.001
c0 -0.666992 -1.16699 -0.5 -3.5 0.5l-9 4c-3.66699 1.66699 -7.83398 3.83398 -12.501 6.50098c-16.667 8.66699 -52.334 14.334 -107.001 17.001c-23.333 0.666992 -42.833 1 -58.5 1s-28.167 -0.833008 -37.5 -2.5s-15.833 -4 -19.5 -7s-4.83398 -7.16699 -3.50098 -12.5
c1.33301 -8 2.33301 -25.333 3 -52l1 -39l82 2c54.667 1.33301 85.667 4 93 8s13.666 2.66699 18.999 -4s9 -18 11 -34c2 -18 0.666992 -29.5 -4 -34.5s-15 -5.16699 -31 -0.5c-16.667 4 -48.334 6.66699 -95.001 8l-69 1l-1 -72c-1.33301 -48 -4.66602 -77 -9.99902 -87
c-6.66699 -13.333 -3.66699 -21.666 9 -24.999c11.333 -4 41.333 -6 90 -6c60 0 99.333 4 118 12c19.333 8 31 11.333 35 10s6 -9.33301 6 -24c0 -11.333 -1.66699 -19.166 -5 -23.499s-13.666 -10.666 -30.999 -18.999s-32.166 -13.333 -44.499 -15s-40.5 -2.5 -84.5 -2.5
c-62 0 -105.333 3.66699 -130 11c-14 4 -24.5 7.16699 -31.5 9.5s-12 5 -15 8s-3.5 6 -1.5 9s5.66699 7.16699 11 12.5l19 14l-1 180c-0.666992 76.667 -1.66699 126.334 -3 149.001s-4.33301 35.667 -9 39c-8 6 -10.333 11.333 -7 16s14 10.334 32 17.001zM105.003 621.996
c8 3.33301 31.332 4.49805 69.999 3.49805s65 -3.5 79 -7.5c6 -1.33301 9.83301 -3.5 11.5 -6.5s1.5 -7.5 -0.5 -13.5c-2.66699 -10.667 4.83301 -26.334 22.5 -47.001s24.667 -32.667 21 -36s-19.167 -0.333008 -46.5 9c-33.333 10 -64.666 13.333 -93.999 10
s-56 -7.66602 -80 -12.999s-37 -7 -39 -5s6.66699 14 26 36c15.333 17.333 24.333 29.333 27 36s0.666992 13.334 -6 20.001c-4.66699 4.66699 -1.66699 9.33398 9 14.001zM150.002 572.994c-4.66699 6 -11.167 9.16699 -19.5 9.5s-14.166 -2.16699 -17.499 -7.5
c-2.66699 -4 -0.333984 -9.16699 6.99902 -15.5s14.333 -9.5 21 -9.5s11 2.5 13 7.5s0.666992 10.167 -4 15.5zM251.502 570.494c-2.33301 3.66699 -5.49902 5.5 -9.49902 5.5c-4.66699 0 -7.83398 -2.16699 -9.50098 -6.5s-0.5 -7.5 3.5 -9.5
c4 -2.66699 8.16699 -2.5 12.5 0.5s5.33301 6.33301 3 10z" />
    <glyph glyph-name="Edieresis" unicode="&#xcb;" horiz-adv-x="369" 
d="M77 477c8.66699 3.33301 46.0029 4.66895 112.003 4.00195c44 -0.666992 73.167 -1.83398 87.5 -3.50098s28.166 -6.16699 41.499 -13.5c13.333 -6 22 -11.333 26 -16s6.66699 -12 8 -22c2 -16 2 -25 0 -27c-1.33301 -1.33301 -5.83301 -0.166016 -13.5 3.50098
s-24.834 8.16699 -51.501 13.5s-59.334 8 -98.001 8c-36.667 0 -61.167 -1.66699 -73.5 -5s-17.833 -9.33301 -16.5 -18c1.33301 -8 2.33301 -25 3 -51l1 -39l83 1c54.667 1.33301 85.667 4 93 8c5.33301 2.66699 9.83301 2.5 13.5 -0.5s6.5 -8.66699 8.5 -17
s3 -18.5 3 -30.5c0 -18 -1.33301 -28.5 -4 -31.5s-9.66699 -1.5 -21 4.5c-12 6 -43.667 9 -95 9h-77v-72c0 -48.667 -3 -77.334 -9 -86.001c-8 -12.667 -5 -20.667 9 -24c13.333 -3.33301 44.666 -4.66602 93.999 -3.99902c38.667 0 65.834 0.833008 81.501 2.5
s29.834 5.5 42.501 11.5c20 8.66699 31 12.167 33 10.5s2 -11.167 0 -28.5c-1.33301 -12.667 -4 -20.834 -8 -24.501s-15.667 -9.5 -35 -17.5c-18 -7.33301 -34.167 -12 -48.5 -14s-40.5 -3.33301 -78.5 -4c-82.667 -0.666992 -138.334 7.33301 -167.001 24
c-18 9.33301 -15 18.666 9 27.999l15 6l-1 362l-33 27zM55.0029 586.003c10.667 11.333 42.168 17.999 94.501 19.999s96.166 -2.66699 131.499 -14c26 -8.66699 39.333 -15.334 40 -20.001c0 -2.66699 -4 -5.66699 -12 -9c-10 -3.33301 -15.5 -6.33301 -16.5 -9
s0.833008 -8.66699 5.5 -18c7.33301 -13.333 5.33301 -20.333 -6 -21c-6 0 -14.667 2 -26 6c-18 5.33301 -42.833 8.33301 -74.5 9s-59.834 -1.33301 -84.501 -6c-28.667 -5.33301 -43 -4.66602 -43 2.00098c0 3.33301 2 8 6 14
c6.66699 10.667 9.83398 17.334 9.50098 20.001s-5.83301 6 -16.5 10c-7.33301 2.66699 -11.5 5 -12.5 7s0.5 5 4.5 9zM151.004 568.002c-1.33301 7.33301 -5.5 11.667 -12.5 13s-12.833 -1 -17.5 -7c-7.33301 -8.66699 -5 -15.334 7 -20.001s19.667 -2.66699 23 6
c0.666992 2.66699 0.666992 5.33398 0 8.00098zM250.004 558.003c7.33301 7.33301 6 14.333 -4 21c-8.66699 6.66699 -15 5 -19 -5c-1.33301 -3.33301 -2 -7.33301 -2 -12c0 -7.33301 2.66699 -11.333 8 -12s11 2 17 8z" />
    <glyph glyph-name="Icircumflex" unicode="&#xce;" horiz-adv-x="288" 
d="M87 471c3.33301 4.66699 18.667 7 46 7c45.333 0 68.333 -5 69 -15c0.666992 -4 -4 -10 -14 -18c-6.66699 -6 -10.667 -16 -12 -30c-2 -16.667 -3 -73.667 -3 -171v-189l20 -15c12.667 -10.667 17.667 -17.334 15 -20.001
c-5.33301 -5.33301 -18.833 -9.16602 -40.5 -11.499s-42 -2.5 -61 -0.5s-28.5 5.66699 -28.5 11c0 3.33301 5.5 11 16.5 23s16.5 24 16.5 36c1.33301 215.333 0.333008 330.666 -3 345.999c-1.33301 6.66699 -4.16602 13.334 -8.49902 20.001l-10.5 16.5
c-2.66699 4.33301 -3.33398 7.83301 -2.00098 10.5zM71.001 623c10 3.33301 34.832 4.33301 74.499 3s63.834 -3.66602 72.501 -6.99902c8 -3.33301 11.167 -8.66602 9.5 -15.999s-7.5 -13.333 -17.5 -18c-24.667 -12.667 -30.334 -21.334 -17.001 -26.001
c8 -2.66699 15 0 21 8c4 5.33301 7.83301 7.16602 11.5 5.49902s12.5 -10.5 26.5 -26.5c19.333 -21.333 28 -33.666 26 -36.999s-17.667 0.666992 -47 12c-19.333 7.33301 -34.666 11.833 -45.999 13.5s-28.5 1.66699 -51.5 0s-44.333 -4.66699 -64 -9
s-33.667 -7.66602 -42 -9.99902s-13.833 -2.83301 -16.5 -1.5c-1.33301 1.33301 -1.33301 3.5 0 6.5s3.83301 6.83301 7.5 11.5s8.16699 9.66699 13.5 15c11.333 11.333 18.666 20.166 21.999 26.499s4.5 14.166 3.5 23.499s-0.666992 15.5 1 18.5s5.83398 5.5 12.501 7.5z
M109 572c-2 6 -7.33301 9.66797 -16 11.001s-14.667 -0.333984 -18 -5.00098c-2.66699 -4 0.333008 -10 9 -18c8 -6.66699 15 -8.5 21 -5.5s7.33301 8.83301 4 17.5z" />
    <glyph glyph-name="Idieresis" unicode="&#xcf;" horiz-adv-x="282" 
d="M83 468c4.66699 6 20.999 9.16602 48.999 9.49902s47 -2.16699 57 -7.5c4.66699 -2.66699 7.5 -4.66699 8.5 -6s0.833008 -3.16602 -0.5 -5.49902s-5 -6.5 -11 -12.5l-16 -18l2 -154v-80c0.666992 -68 1.83398 -108.333 3.50098 -121s6.5 -22.667 14.5 -30l3 -3
c6.66699 -6.66699 10.667 -11.5 12 -14.5s0 -5.5 -4 -7.5c-11.333 -7.33301 -34.5 -11.166 -69.5 -11.499s-54.5 3.16699 -58.5 10.5c-2 3.33301 3.33301 10.666 16 21.999l20 18v373l-17 15c-10.667 10 -13.667 17.667 -9 23zM9.99902 578.999
c0 4 5.33496 7.66797 16.002 11.001s23.334 6.33301 38.001 9s24 5 28 7c13.333 4.66699 44.666 3.5 93.999 -3.5s78 -14.5 86 -22.5c2.66699 -2.66699 -1.33301 -8.33398 -12 -17.001c-7.33301 -5.33301 -11.166 -9.16602 -11.499 -11.499s1.83398 -6.5 6.50098 -12.5
c16.667 -18 15.667 -26.667 -3 -26c-10.667 0 -26.334 4 -47.001 12c-8.66699 3.33301 -31.334 4.5 -68.001 3.5s-68.334 -3.83301 -95.001 -8.5c-14 -2.66699 -22.333 -1.83398 -25 2.49902s0.666016 11.5 9.99902 21.5c6 6 8.16699 11.833 6.5 17.5s-6.5 8.5 -14.5 8.5
c-6 0 -9 3 -9 9zM105.001 566c0 8 -4.33203 13 -12.999 15s-16 -0.333008 -22 -7c-4.66699 -6 -4 -11.667 2 -17c7.33301 -5.33301 14.666 -7 21.999 -5s11 6.66699 11 14zM204.002 570c0 5.33301 -3.16602 9.16699 -9.49902 11.5s-11.5 1.5 -15.5 -2.5
c-5.33301 -5.33301 -6.83301 -10.5 -4.5 -15.5s7.16602 -6.83301 14.499 -5.5c10 1.33301 15 5.33301 15 12z" />
    <glyph glyph-name="Ntilde" unicode="&#xd1;" horiz-adv-x="461" 
d="M336 493c2.66699 2.66699 11.3281 4 25.9951 4c10.667 0 18.834 -2.5 24.501 -7.5s11.667 -11.5 18 -19.5s13.833 -14.333 22.5 -19c9.33301 -5.33301 14.5 -10 15.5 -14s-1.83301 -9.33301 -8.5 -16c-5.33301 -4.66699 -8.66602 -31.834 -9.99902 -81.501
s-2 -101.167 -2 -154.5s-1 -84.666 -3 -93.999c-1.33301 -6 -1.16602 -10.333 0.500977 -13s5.83398 -5.33398 12.501 -8.00098c8.66699 -3.33301 14.5 -6.5 17.5 -9.5s2.83301 -6.16699 -0.5 -9.5s-6.66602 -6.16602 -9.99902 -8.49902s-9.33301 -5.83301 -18 -10.5l-6 -3
c-1.33301 -0.666992 -3.33301 -1.83398 -6 -3.50098l-6.5 -4c-1.66699 -1 -3.5 -2.16699 -5.5 -3.5s-3.66699 -2.66602 -5 -3.99902l-4 -4c-1.33301 -1.33301 -2.33301 -2.66602 -3 -3.99902c-4 -6.66699 -17 -11 -39 -13s-35 0 -39 6c-2.66699 4.66699 3.33301 13 18 25
l23 19l-17 6c-10 4 -18.667 10.333 -26 19s-16.333 23.334 -27 44.001c-26.667 50.667 -51 94.5 -73 131.5l-45.5 77c-8.33301 14.333 -14.5 28.166 -18.5 41.499c-5.33301 18 -9.66602 28.667 -12.999 32c-2.66699 2.66699 -6.83398 1 -12.501 -5s-10.5 -13.333 -14.5 -22
s-5 -15.334 -3 -20.001c2.66699 -7.33301 5 -54.666 7 -141.999c1.33301 -78.667 3.33301 -127.167 6 -145.5s9.33398 -32.5 20.001 -42.5c18 -16.667 17.333 -25.667 -2 -27c-20 0 -37.333 5.33301 -52 16c-4 2.66699 -20.667 12.334 -50 29.001
c-17.333 10 -20.666 18 -9.99902 24c2 1.33301 4.66699 2.66602 8 3.99902l16 6l2 173c1.33301 82.667 1.5 132.667 0.5 150s-4.83301 28.666 -11.5 33.999c-5.33301 4.66699 -8.16602 8.33398 -8.49902 11.001s1.16699 6 4.5 10c6 7.33301 11.167 11 15.5 11
s12.5 4 24.5 12c8.66699 6.66699 26.167 11.667 52.5 15s41.166 2.66602 44.499 -2.00098c2 -4 -0.333008 -11 -7 -21c-4.66699 -6.66699 -6.83398 -12 -6.50098 -16s3.5 -10 9.5 -18l19 -29c2 -4 17.667 -30.5 47 -79.5s50 -82.5 62 -100.5s21 -35.167 27 -51.5
s9.16699 -29.833 9.5 -40.5s0 -20 -1 -28s-2.16699 -14.167 -3.5 -18.5s-1.66602 -7.16602 -0.999023 -8.49902c3.33301 -3.33301 7.16602 -2.83301 11.499 1.5s6.5 9.83301 6.5 16.5c0 8.66699 4.66699 19.667 14 33c6.66699 9.33301 10.667 19.166 12 29.499
s1.66602 34.833 0.999023 73.5c-1.33301 78 -3.5 134.167 -6.5 168.5s-7.83301 57.833 -14.5 70.5c-8 16 -10.667 25.333 -8 28zM185.994 591c9.33301 0.666992 19.8369 1.33594 31.5039 2.00293s19 1.16699 22 1.5s7.66699 0 14 -1s11.833 -2.5 16.5 -4.5l21 -9
c31.333 -14.667 46.666 -18.667 45.999 -12c0 1.33301 -0.333008 3 -1 5c-2.66699 6.66699 -0.666992 9.66699 6 9c5.33301 0 14.333 -2.33301 27 -7c13.333 -4.66699 20.333 -10 21 -16s-5.33301 -10.333 -18 -13c-6.66699 -1.33301 -16.834 -5.5 -30.501 -12.5
s-27.834 -9.16699 -42.501 -6.5l-34.5 4c-17 2 -41.333 3.5 -73 4.5s-53.167 -1.5 -64.5 -7.5c-22.667 -9.33301 -35.334 -10.833 -38.001 -4.5s4.66602 19.166 21.999 38.499c12 13.333 21.333 21.166 28 23.499s22.334 4.16602 47.001 5.49902z" />
    <glyph glyph-name="Oacute" unicode="&#xd3;" horiz-adv-x="450" 
d="M177 487c14.667 3.33301 37.3301 3.33203 67.9971 -0.000976562s53.334 -8.33301 68.001 -15c22.667 -10 43.667 -24.667 63 -44s34.333 -40.666 45 -63.999c9.33301 -19.333 14.833 -35 16.5 -47s2.5 -37.333 2.5 -76c0 -38 -0.833008 -63.167 -2.5 -75.5
s-6.83398 -27.833 -15.501 -46.5c-21.333 -45.333 -52.666 -79 -93.999 -101c-14.667 -8 -27.5 -12.833 -38.5 -14.5s-32.167 -2.5 -63.5 -2.5c-32 0 -53.167 1 -63.5 3s-24.166 7.66699 -41.499 17c-47.333 26 -80.166 69 -98.499 129s-17.5 121.667 2.5 185
c14 44 32.5 77.667 55.5 101s55.167 40.333 96.5 51zM291.996 418.999c-15.333 7.33301 -36.6689 11.5 -64.002 12.5s-48.666 -2.16699 -63.999 -9.5c-31.333 -14 -54.666 -42.333 -69.999 -85s-19.333 -90.667 -12 -144c4.66699 -32 13 -57.667 25 -77s30 -35.333 54 -48
c41.333 -22 86 -21.333 134 2c28.667 14 49.667 35.167 63 63.5s20 66.5 20 114.5c0 39.333 -7.66699 74.333 -23 105s-36.333 52.667 -63 66zM170.993 636.999c30.667 4.66699 64.668 3.99707 102.001 -2.00293c43.333 -6.66699 65.333 -13 66 -19
c-0.666992 -4 -10 -8.66699 -28 -14c-11.333 -4 -19.333 -8.16699 -24 -12.5s-9.33398 -12.166 -14.001 -23.499l-12 -28l-59 -2c-38.667 -2 -60 -1.33301 -64 2c-3.33301 2.66699 -2.33301 7.33398 3 14.001s10.833 14.834 16.5 24.501s5.5 24.167 -0.5 43.5
c-2 6 -2.16699 10 -0.5 12s6.5 3.66699 14.5 5zM252.994 598.996c-3.33301 4 -10.167 7.16699 -20.5 9.5s-20.5 1.16602 -30.5 -3.50098s-15 -14 -15 -28c0 -7.33301 1.33301 -11.666 4 -12.999s10.334 -1 23.001 1c17.333 2 29.666 6.33301 36.999 13s8 13.667 2 21z" />
    <glyph glyph-name="Ocircumflex" unicode="&#xd4;" horiz-adv-x="453" 
d="M159 482c20.667 6 46.999 8 78.999 6s57.333 -7.33301 76 -16c22.667 -10 43.5 -24.667 62.5 -44s33.833 -40.666 44.5 -63.999c8 -17.333 13.333 -32.666 16 -45.999s4.33398 -34.333 5.00098 -63c1.33301 -28.667 1.33301 -49.834 0 -63.501s-5.33301 -30.5 -12 -50.5
c-17.333 -56 -51 -97 -101 -123c-14.667 -8 -27.5 -12.833 -38.5 -14.5s-32.167 -2.5 -63.5 -2.5s-52.5 0.833008 -63.5 2.5s-24.167 6.5 -39.5 14.5c-59.333 31.333 -95.333 84.666 -108 159.999c-12.667 72 -5.5 136.833 21.5 194.5s67.5 94.167 121.5 109.5zM288.999 419
c-15.333 7.33301 -36.334 11.335 -63.001 12.002s-47.334 -2.33301 -62.001 -9c-55.333 -24 -83 -87.333 -83 -190c0 -62.667 13 -109 39 -139c8.66699 -9.33301 24.334 -18.833 47.001 -28.5s40.667 -14.5 54 -14.5c16.667 0 36.834 4.5 60.501 13.5
s40.167 18.167 49.5 27.5c15.333 16.667 26.333 36.667 33 60s10 53.333 10 90c0.666992 29.333 0 50.166 -2 62.499s-6 25.5 -12 39.5c-10 20.667 -20.167 36.667 -30.5 48s-23.833 20.666 -40.5 27.999zM161.998 638.002c36.667 4 72.3311 3.33496 106.998 -1.99805
c32 -5.33301 48 -12 48 -20c0 -2.66699 -1.66699 -6 -5 -10s-3.66602 -8.66699 -0.999023 -14s10.667 -15.333 24 -30c26.667 -30 36 -45 28 -45c-2 0 -20 5.66699 -54 17c-40.667 11.333 -74.667 15.333 -102 12s-51.833 -7.83301 -73.5 -13.5s-34.5 -7.5 -38.5 -5.5
c-1.33301 1.33301 -1.33301 3.5 0 6.5s4 7.16699 8 12.5s9 11 15 17c12.667 14 20.5 24 23.5 30s3.83301 13.333 2.5 22c-2 9.33301 -2.16699 15.166 -0.5 17.499s7.83398 4.16602 18.501 5.49902zM191.995 582.004c-1.33301 6 -6.50098 10.167 -15.501 12.5
s-15.167 0.666016 -18.5 -5.00098s-1.5 -11.667 5.5 -18s13.833 -8.16602 20.5 -5.49902s9.33398 8 8.00098 16zM294.994 584.004c-4.66699 7.33301 -11.667 8 -21 2c-8 -5.33301 -8.66699 -11.333 -2 -18c4 -4 9.66699 -3.66699 17 1s9.33301 9.66699 6 15z" />
    <glyph glyph-name="Odieresis" unicode="&#xd6;" horiz-adv-x="447" 
d="M158 482c20.667 6 46.667 7.83301 78 5.5s57.333 -7.83301 78 -16.5c22 -9.33301 43 -24.666 63 -45.999s34.667 -44.333 44 -69c6.66699 -16.667 11 -32 13 -46s3 -37 3 -69c0 -46.667 -4.33301 -83 -13 -109s-24.667 -51 -48 -75c-22 -22.667 -46 -38.5 -72 -47.5
s-57.333 -12.5 -94 -10.5c-35.333 2 -64.5 8.33301 -87.5 19s-43.833 28 -62.5 52c-19.333 24 -32.5 48.167 -39.5 72.5s-10.5 57.166 -10.5 98.499c0 132 49.333 212.333 148 241zM286 419c-17.333 8 -39.1709 12.166 -65.5039 12.499s-47.166 -3.5 -62.499 -11.5
c-14 -6.66699 -28.5 -19.5 -43.5 -38.5s-24.833 -36.833 -29.5 -53.5c-11.333 -40 -14.833 -81 -10.5 -123s15.5 -74.667 33.5 -98c14.667 -18.667 33.334 -33.167 56.001 -43.5s45 -14.5 67 -12.5c20 2 40.5 8.33301 61.5 19s36.5 22.334 46.5 35.001
c18.667 25.333 29.834 62.833 33.501 112.5s-1.83301 91.5 -16.5 125.5c-9.33301 20 -19.166 35.667 -29.499 47s-23.833 21 -40.5 29zM141.995 610.999c36.667 6.66699 71.333 8.49902 104 5.49902s60.167 -7.83301 82.5 -14.5s33.5 -12 33.5 -16c0 -2.66699 -1 -5 -3 -7
s-4.33301 -3 -7 -3c-8 0 -12.833 -3.66699 -14.5 -11s0.833008 -14.666 7.5 -21.999c12 -12.667 11 -18.667 -3 -18c-8 0.666992 -20.667 3 -38 7c-54 14 -108.333 14.667 -163 2c-30 -7.33301 -45 -7.33301 -45 0c-0.666992 3.33301 2 9 8 17
c7.33301 8.66699 9.83301 16.167 7.5 22.5s-8.5 9.5 -18.5 9.5c-6 0 -8.16699 2.66699 -6.5 8s20.167 12 55.5 20zM186.994 579.998c0 12.667 -5.66602 17 -16.999 13c-10.667 -2.66699 -16.334 -8 -17.001 -16c-0.666992 -2.66699 0.333008 -5.33398 3 -8.00098
c5.33301 -5.33301 11.833 -6.66602 19.5 -3.99902s11.5 7.66699 11.5 15zM275.995 562.998c10 0 15.667 2.83301 17 8.5s-0.166992 11.167 -4.5 16.5s-8.5 8 -12.5 8c-4.66699 0 -9.16699 -3.5 -13.5 -10.5s-5.5 -12.167 -3.5 -15.5c3.33301 -4.66699 9 -7 17 -7z" />
    <glyph glyph-name="Ugrave" unicode="&#xd9;" horiz-adv-x="417" 
d="M65 482c9.33301 7.33301 21.501 12.1719 36.501 14.5049s24.833 1.16602 29.5 -3.50098c2.66699 -2.66699 -2.33301 -12.334 -15 -29.001l-20 -25v-323l24 -26c8.66699 -10 17.167 -17.333 25.5 -22s19.166 -8.66699 32.499 -12c32 -7.33301 62.667 -3.83301 92 10.5
s47.333 34.166 54 59.499c2.66699 10 3 65.333 1 166c-0.666992 72.667 -1.83398 117 -3.50098 133s-6.16699 29 -13.5 39c-8.66699 12 -12.167 20.5 -10.5 25.5s9.5 7.5 23.5 7.5c12.667 0 31 -10.333 55 -31c18 -15.333 28 -24.833 30 -28.5
s-0.333008 -8.83398 -7 -15.501c-6 -6 -9.66699 -17.833 -11 -35.5s-2.66602 -63.167 -3.99902 -136.5l-2 -159l-18 -27c-13.333 -20.667 -33.333 -37 -60 -49s-55.667 -18 -87 -18c-80 0 -134.667 25.333 -164 76c-8 14.667 -12.833 29.667 -14.5 45
s-2.5 61.666 -2.5 138.999c0 72 -0.666992 116.5 -2 133.5s-5 29.5 -11 37.5l-13 16l18 12c12.667 7.33301 25 16 37 26zM103.001 610.006c0 2 4.00293 4.16602 12.0029 6.49902s17 4.33301 27 6s15.667 2.83398 17 3.50098c10 3.33301 32.167 3.33301 66.5 0
s54.166 -7.66602 59.499 -12.999c2.66699 -2.66699 1.16699 -7.33398 -4.5 -14.001s-5 -21.167 2 -43.5s9.83301 -34.5 8.5 -36.5c-1.33301 -1.33301 -5.33301 -1 -12 1s-16.667 4.16699 -30 6.5s-26.333 3.5 -39 3.5c-13.333 0 -22.833 2 -28.5 6
s-8.83398 8.83301 -9.50098 14.5s-4.33398 12.5 -11.001 20.5s-16.667 15 -30 21c-18.667 8.66699 -28 14.667 -28 18zM238.004 557.005c16 13.333 14 24.333 -6 33c-18 8 -32.333 9 -43 3c-2 -1.33301 -3.33301 -2.66602 -4 -3.99902
c-3.33301 -4.66699 -1.33301 -10.667 6 -18s15.5 -12.333 24.5 -15s16.5 -2.33398 22.5 0.999023z" />
    <glyph glyph-name="Uacute" unicode="&#xda;" horiz-adv-x="419" 
d="M29 458c10 4 18.667 9.49805 26 16.498s13.833 12.333 19.5 16s13.834 5.16699 24.501 4.5c16 -1.33301 24.833 -3.83301 26.5 -7.5s-2.5 -11.5 -12.5 -23.5l-17 -19l-1 -160c0 -40 0.333008 -70 1 -90s1.5 -38.667 2.5 -56s3.66699 -29.666 8 -36.999
s8.83301 -13.666 13.5 -18.999s12 -11 22 -17c25.333 -14.667 55.833 -18.167 91.5 -10.5s61.5 23.5 77.5 47.5c7.33301 10.667 11.666 23.667 12.999 39s1.66602 59 0.999023 131c0 64 -0.833008 106.333 -2.5 127s-5.16699 37 -10.5 49
c-7.33301 18 -13.666 28.333 -18.999 31c-8.66699 6 -7.33398 11 3.99902 15c5.33301 1.33301 11.333 2 18 2c9.33301 0 16.666 -1.5 21.999 -4.5s12.5 -8.66699 21.5 -17s18.833 -15.833 29.5 -22.5c12.667 -8.66699 19.5 -14 20.5 -16s-2 -5.33301 -9 -10
s-11.167 -14.167 -12.5 -28.5s-2 -58.5 -2 -132.5c0 -60.667 -1 -102.834 -3 -126.501s-5.66699 -42 -11 -55s-15.666 -27.5 -30.999 -43.5c-30 -30 -74.833 -44.667 -134.5 -44s-104.5 16.667 -134.5 48l-15.5 17c-3 3.33301 -6.5 9.5 -10.5 18.5s-6.5 16.167 -7.5 21.5
s-2.16699 17.166 -3.5 35.499s-2 35 -2 50s-0.333008 39.833 -1 74.5c-1.33301 66.667 -2.66602 110.834 -3.99902 132.501s-4 33.167 -8 34.5c-7.33301 3.33301 -10 7.83301 -8 13.5s8 10.834 18 15.501zM155 623.998c14.667 5.33301 44.834 5.16797 90.501 -0.499023
s69.5 -11.834 71.5 -18.501c0.666992 -2.66699 -0.833008 -5.16699 -4.5 -7.5s-8.83398 -3.83301 -15.501 -4.5c-26 -4.66699 -42.333 -20 -49 -46c-2.66699 -9.33301 -6.83398 -14.833 -12.501 -16.5s-23.5 -2.83398 -53.5 -3.50098c-40 -1.33301 -60 -0.5 -60 2.5
s4.66699 13.5 14 31.5c7.33301 13.333 11 21.833 11 25.5s-3 8.83398 -9 15.501l-5 6.5c-1.33301 1.66699 -2 3.16699 -2 4.5v2.5c0 0.333008 0.833008 1 2.5 2s3.33398 1.66699 5.00098 2s4.16699 1 7.5 2s6.33301 1.83301 9 2.5zM231 593
c-9.33301 6.66699 -19.001 9.33203 -29.001 7.99902s-18.667 -7 -26 -17c-14.667 -18 -9 -27 17 -27c16.667 0 29.334 4.33301 38.001 13c6 7.33301 9 11.833 9 13.5s-3 4.83398 -9 9.50098z" />
    <glyph glyph-name="Ucircumflex" unicode="&#xdb;" horiz-adv-x="421" 
d="M298 494c4.66699 4.66699 13.999 4.16797 27.999 -1.49902s30 -15.167 48 -28.5l37 -27l-13 -17c-6 -7.33301 -9.5 -19.166 -10.5 -35.499s-1.16699 -58.5 -0.5 -126.5c0 -68.667 -0.666992 -111.334 -2 -128.001s-5 -31.334 -11 -44.001c-16 -31.333 -37 -54 -63 -68
s-59.333 -21 -100 -21c-74.667 0 -128 25 -160 75l-18 27l-2 163c-1.33301 66.667 -2.66602 110.834 -3.99902 132.501s-4 33.167 -8 34.5c-14.667 6 -13.334 14.333 3.99902 25c4 2.66699 8.33301 5 13 7c18 8 29.333 15 34 21c4 5.33301 13.333 8.33301 28 9
s23.667 -1.33301 27 -6c2 -4 -2.33301 -12.667 -13 -26l-17 -20v-156c0 -68.667 0.666992 -113.334 2 -134.001s4.66602 -36 9.99902 -46c10.667 -20.667 29.334 -35.167 56.001 -43.5s54 -9 82 -2s49.333 20.5 64 40.5c6 8.66699 9.83301 21.667 11.5 39
s2.83398 62 3.50098 134c1.33301 77.333 1.33301 123.833 0 139.5s-6 31.5 -14 47.5c-10.667 20.667 -14.667 32.667 -12 36zM123.999 601.001c-2 13.333 1 21.3379 9 24.0049c8.66699 2 36.334 2.33301 83.001 1c53.333 -2 80 -8.33301 80 -19
c0 -2.66699 -1.33301 -5.33398 -4 -8.00098c-5.33301 -6.66699 0 -20.334 16 -41.001s24 -32.334 24 -35.001s-2.16699 -4.33398 -6.5 -5.00098s-10.5 -0.166992 -18.5 1.5s-17 4.16699 -27 7.5c-28.667 8.66699 -55.5 11.5 -80.5 8.5s-48.833 -6.83301 -71.5 -11.5
s-35.667 -6 -39 -4c-4.66699 2.66699 0.666016 13.667 15.999 33c9.33301 11.333 15.333 20.166 18 26.499s3 13.5 1 21.5zM174.999 572.006c-4.66699 6 -11.1689 9.33398 -19.502 10.001s-14.166 -1.33301 -17.499 -6c-1.33301 -2.66699 0.5 -6.33398 5.5 -11.001
s10.667 -8 17 -10s11.5 -2 15.5 0c4.66699 5.33301 4.33398 11 -0.999023 17zM279.997 570.007c0 4 -4.33203 6.00098 -12.999 6.00098s-14.334 -2 -17.001 -6c-2 -2.66699 -1.66699 -5.33398 1 -8.00098s6 -4.16699 10 -4.5s7.66699 0.166992 11 1.5
c5.33301 3.33301 8 7 8 11z" />
    <glyph glyph-name="Udieresis" unicode="&#xdc;" horiz-adv-x="411" 
d="M296 492c3.33301 3.33301 11.5039 4.00195 24.5039 2.00195s22.833 -5.33301 29.5 -10c8.66699 -6.66699 20 -16 34 -28c10 -8 15.5 -13.667 16.5 -17s-0.833008 -8.33301 -5.5 -15c-4 -6 -6.66699 -19.333 -8 -40s-2 -62.334 -2 -125.001
c0 -59.333 -1 -100.666 -3 -123.999s-5.66699 -41.333 -11 -54s-15.666 -26.667 -30.999 -42c-27.333 -27.333 -69.333 -41.166 -126 -41.499s-101.334 12.834 -134.001 39.501c-10 8.66699 -17.333 16 -22 22s-9.16699 13.167 -13.5 21.5s-7 21.166 -8 38.499
s-1.83301 35.666 -2.5 54.999s-1 48.666 -1 87.999c0 71.333 -0.666992 115.833 -2 133.5s-4.33301 28.5 -9 32.5c-8 5.33301 -12 9.33301 -12 12c0 4.66699 13.167 14.334 39.5 29.001s43.833 22 52.5 22c13.333 0 20.666 -2.33301 21.999 -7s-2.66699 -13.667 -12 -27
c-8 -10.667 -12.667 -23.5 -14 -38.5s-2 -61.833 -2 -140.5c0 -74.667 0.666992 -120.667 2 -138s5 -31.333 11 -42c18 -28.667 49.667 -43.334 95 -44.001c49.333 -0.666992 84.666 15.666 105.999 48.999l16 25l-2 157c-0.666992 74.667 -1.83398 120.5 -3.50098 137.5
s-5.83398 31.167 -12.501 42.5c-10 16 -14 25 -12 27zM76.0039 581.002c0 2 6.16602 5.16602 18.499 9.49902s28.333 8.33301 48 12s38.167 5.83398 55.5 6.50098c20 0 46 -3.33301 78 -10s52.333 -13.334 61 -20.001c5.33301 -4.66699 8 -7.5 8 -8.5
s-3.66699 -2.83301 -11 -5.5c-6 -1.33301 -10 -3.66602 -12 -6.99902s-2.33301 -9 -1 -17c0.666992 -10 0 -15.833 -2 -17.5s-8.66699 -2.16699 -20 -1.5c-52.667 4 -89.5 6.16699 -110.5 6.5s-38.833 -1.16699 -53.5 -4.5c-28.667 -6 -42.667 -4.66699 -42 4
c0 2.66699 1.33301 6.33398 4 11.001c3.33301 8.66699 3.33301 14.667 0 18s-7.66602 7.16602 -12.999 11.499s-8 8.5 -8 12.5zM172.003 572.001c-2 6.66699 -6.16797 10.168 -12.501 10.501s-12.166 -2.83398 -17.499 -9.50098c-3.33301 -4 -4.5 -7 -3.5 -9
s4.5 -4.66699 10.5 -8c8 -4 14.667 -4.33301 20 -1s6.33301 9 3 17zM273.002 573.002c-5.33301 6.66699 -9.66699 9.83301 -13 9.5s-8 -3.83301 -14 -10.5c-6 -7.33301 -6.5 -13 -1.5 -17s12.167 -3.66699 21.5 1c6 3.33301 9.33301 6 10 8s-0.333008 5 -3 9z" />
    <glyph glyph-name="germandbls" unicode="&#xdf;" horiz-adv-x="325" 
d="M91 474c20 7.33301 48.168 9.99707 84.501 7.99707s63.833 -7.66699 82.5 -17c16 -8 27.167 -17.833 33.5 -29.5s9.16602 -28.167 8.49902 -49.5c0 -16.667 -2.5 -27.5 -7.5 -32.5s-12.667 -7.66699 -23 -8s-18.166 -2.5 -23.499 -6.5
c-4 -2.66699 -4.66699 -6.16699 -2 -10.5s10 -12.166 22 -23.499c22 -19.333 35.667 -38.166 41 -56.499s8 -53.166 8 -104.499c0 -43.333 -0.833008 -69.5 -2.5 -78.5s-7.16699 -18.167 -16.5 -27.5c-16.667 -18 -40.5 -30.333 -71.5 -37s-54.167 -4.33398 -69.5 6.99902
c-6.66699 4.66699 -11.834 7 -15.501 7s-10.5 -2.33301 -20.5 -7c-10 -5.33301 -18.167 -7.66602 -24.5 -6.99902s-19.5 5 -39.5 13c-28.667 12 -43.667 18.667 -45 20s3 9 13 23c8 10 12.667 23.833 14 41.5s2.33301 71.167 3 160.5
c0.666992 104.667 3.33398 164.667 8.00098 180c4 13.333 13 23 27 29c1.33301 0.666992 6.66602 2.66699 15.999 6zM233.001 373.997c22.667 24 19.0029 42.335 -10.9971 55.002c-28 12 -58.667 13.333 -92 4c-19.333 -5.33301 -31.333 -13.666 -36 -24.999
c-2 -6 -2.33301 -49.333 -1 -130s-1 -139 -7 -175c-5.33301 -24 -7.83301 -38.833 -7.5 -44.5s3.5 -11.167 9.5 -16.5c8.66699 -6.66699 13 -12.5 13 -17.5s2.33301 -7.5 7 -7.5c1.33301 0 2.16602 0.666992 2.49902 2s0.166016 3.66602 -0.500977 6.99902
s-1.5 7.16602 -2.5 11.499s-1.83301 10.666 -2.5 18.999s-1 17.166 -1 26.499l1 36l45 2c11.333 0.666992 18.833 1 22.5 1s7.66699 -0.333008 12 -1s6.33301 -1.5 6 -2.5s-0.333008 -2.83301 0 -5.5s-0.166992 -5.66699 -1.5 -9s-2.5 -8.16602 -3.5 -14.499
s-1.5 -12.833 -1.5 -19.5c0 -11.333 1 -18 3 -20s8 -2.66699 18 -2c20.667 0.666992 34.667 5.66699 42 15s12 28 14 56c4.66699 61.333 -0.666016 108 -15.999 140c-14 28 -42.667 44 -86 48c-18.667 1.33301 -30.334 3 -35.001 5s-7.33398 6.33301 -8.00098 13
c-2 13.333 1 22.333 9 27s24.333 7 49 7c18.667 0 31.667 1 39 3s14 6 20 12zM134.004 44.999c2.66699 -1.33301 4.66699 0.666992 6 6c2.66699 12.667 0.666992 24 -6 34c-2 2.66699 -4.33301 4 -7 4s-4 -3.5 -4 -10.5s1 -14.167 3 -21.5s4.66699 -11.333 8 -12z" />
    <glyph glyph-name="agrave" unicode="&#xe0;" horiz-adv-x="352" 
d="M110 335c12.667 3.33301 32.3301 3.49219 58.9971 0.492188s45.667 -7.83301 57 -14.5c18.667 -10.667 30.667 -24.167 36 -40.5s8.33301 -48.166 9 -95.499c0.666992 -38 0.333984 -63.333 -0.999023 -76s-5 -25.667 -11 -39c-11.333 -23.333 -13.666 -34 -6.99902 -32
c2 0.666992 5.66699 3.33398 11 8.00098c8 7.33301 15.167 11 21.5 11s13.833 3 22.5 9c11.333 8.66699 20.333 12.167 27 10.5s9.33398 -7.5 8.00098 -17.5c-0.666992 -7.33301 -4.16699 -13.833 -10.5 -19.5s-18.5 -13.667 -36.5 -24s-30.667 -16.666 -38 -18.999
s-13 -1.83301 -17 1.5c-6 5.33301 -7.66699 12.333 -5 21c2 6.66699 1.33301 10 -2 10c-32 -15.333 -56.667 -24.666 -74 -27.999s-36.666 -2.66602 -57.999 2.00098c-39.333 8 -67.333 29 -84 63c-6 13.333 -7.83301 27.666 -5.5 42.999s6 29 11 41s8.5 19 10.5 21
c7.33301 5.33301 28.166 13.333 62.499 24s63.5 22 87.5 34s32 24.333 24 37c-6.66699 10.667 -18 18.334 -34 23.001s-33 3.33398 -51 -3.99902s-31.333 -21.666 -40 -42.999c-6 -14 -9.66699 -21 -11 -21c-6.66699 0 -15.667 3 -27 9s-17 11 -17 15
c0 16.667 8.66699 34.334 26 53.001s36.333 31 57 37zM220.996 146.992c2.66699 27.333 2.33301 41.667 -1 43c-2 1.33301 -6 0.5 -12 -2.5s-15.667 -7.5 -29 -13.5s-27.666 -11 -42.999 -15c-22.667 -6 -38.834 -13.5 -48.501 -22.5s-14.5 -21.5 -14.5 -37.5
c0 -32.667 20 -49 60 -49c31.333 0 53 6.5 65 19.5s19.667 38.833 23 77.5zM86.9951 474.993c4.66699 5.33301 25.166 8.50293 61.499 9.50293s56.166 -1.16699 59.499 -6.5c2.66699 -4 1.33398 -10.333 -3.99902 -19c-4.66699 -6.66699 -4.66699 -15.834 0 -27.501
s9.66699 -22.167 15 -31.5s7 -15.333 5 -18c-2.66699 -2.66699 -14.334 -1 -35.001 5c-13.333 3.33301 -22.666 7.16602 -27.999 11.499s-10.666 11.5 -15.999 21.5c-8.66699 16.667 -15.667 26 -21 28c-27.333 10 -41 16.667 -41 20c0 1.33301 1.33301 3.66602 4 6.99902z
" />
    <glyph glyph-name="aacute" unicode="&#xe1;" horiz-adv-x="350" 
d="M98 331c14 5.33301 34.5039 7.16504 61.5039 5.49805s47.5 -6.16699 61.5 -13.5c20.667 -10.667 33.667 -24.667 39 -42s7.33301 -52.666 6 -105.999c-0.666992 -38.667 -1.83398 -65.5 -3.50098 -80.5s-4.83398 -25.833 -9.50098 -32.5
c-8.66699 -13.333 -10.334 -21 -5.00098 -23c2.66699 -0.666992 6.33398 1.33301 11.001 6c6.66699 5.33301 18 10.666 34 15.999c28.667 10.667 44 14.667 46 12c0.666992 -1.33301 0.666992 -6 0 -14s-4 -14.667 -10 -20s-18.667 -13.333 -38 -24
c-30 -16 -48 -21.667 -54 -17s-9 9.83398 -9 15.501s-6 6.83398 -18 3.50098c-34 -10.667 -56.5 -16.834 -67.5 -18.501s-25.833 -0.5 -44.5 3.5c-34.667 7.33301 -59.667 23.5 -75 48.5s-17.666 54.167 -6.99902 87.5c5.33301 14.667 10.166 24.5 14.499 29.5
s14.166 10.833 29.499 17.5c9.33301 4 28.166 10.333 56.499 19s50.666 17 66.999 25s24.5 16.333 24.5 25c0 6.66699 -3.66699 13.5 -11 20.5s-16.5 12.333 -27.5 16s-23.5 3.83398 -37.5 0.500977s-26.333 -11 -37 -23c-12 -14 -18 -25.333 -18 -34
c0 -6 -1.16699 -9.66699 -3.5 -11s-7.16602 -1 -14.499 1c-31.333 8 -41 24.667 -29 50c11.333 23.333 32.333 41.666 63 54.999c1.33301 0.666992 3 1.33398 5 2.00098zM218.004 150.999c2 19.333 1.49902 31.166 -1.50098 35.499s-10.167 2.83301 -21.5 -4.5
c-6.66699 -4.66699 -25.334 -11.667 -56.001 -21c-29.333 -8.66699 -48.166 -16.667 -56.499 -24s-12.5 -20 -12.5 -38c0 -10.667 1.16699 -18.667 3.5 -24s6.83301 -10.333 13.5 -15c12.667 -8 29.334 -11.833 50.001 -11.5s37.334 4.83301 50.001 13.5
c10.667 7.33301 17.667 15.833 21 25.5s6.66602 30.834 9.99902 63.501zM133.003 485.999c10.667 2.66699 18.998 3.83496 24.998 3.50195s20 -2.5 42 -6.5c46.667 -8 51.667 -19.333 15 -34c-17.333 -6.66699 -29.666 -18.334 -36.999 -35.001
c-6 -11.333 -11.167 -18.5 -15.5 -21.5s-13.833 -5.5 -28.5 -7.5c-20.667 -2 -32.167 -1.33301 -34.5 2s1.16699 12.666 10.5 27.999c6.66699 10 10.334 17.5 11.001 22.5s-0.666016 11.167 -3.99902 18.5c-4.66699 9.33301 -5.83398 16 -3.50098 20
s8.83301 7.33301 19.5 10z" />
    <glyph glyph-name="acircumflex" unicode="&#xe2;" horiz-adv-x="346" 
d="M105 334c15.333 4.66699 33.833 6.16406 55.5 4.49707s39.5 -6.16699 53.5 -13.5c23.333 -12.667 38 -27.667 44 -45s8.33301 -52.333 7 -105c-1.33301 -59.333 -5.66602 -96.333 -12.999 -111c-9.33301 -18 -11 -26.667 -5 -26c2.66699 0 6.66699 2.66699 12 8
c8 7.33301 15.833 11 23.5 11s17.834 4.33301 30.501 13c10 6.66699 16.333 9.33398 19 8.00098s4 -8.33301 4 -21c0 -6.66699 -3 -12.667 -9 -18s-18 -13 -36 -23c-41.333 -22.667 -62 -26 -62 -10c0 2 0.333008 4.66699 1 8c2.66699 10 1.33398 15.333 -3.99902 16
c-2.66699 0.666992 -5.33398 -1.33301 -8.00098 -6c-4 -6 -19.333 -12 -46 -18s-47 -8 -61 -6c-36.667 4.66699 -62.667 15.334 -78 32.001s-23 41.667 -23 75c0 9.33301 0.166992 15.833 0.5 19.5s1.33301 9.16699 3 16.5s4.83398 13 9.50098 17s11.167 9 19.5 15
s19.5 11.667 33.5 17s30.667 11 50 17c27.333 8.66699 46.166 15.334 56.499 20.001s17.166 10 20.499 16c5.33301 12.667 2.66602 23.334 -8.00098 32.001s-26 13 -46 13c-15.333 0 -28.166 -2.5 -38.499 -7.5s-17.333 -11.167 -21 -18.5s-6.83398 -14.333 -9.50098 -21
s-6 -11.834 -10 -15.501s-9.33301 -4.5 -16 -2.5c-20.667 6 -31 16.667 -31 32c0 14 8.16699 28.5 24.5 43.5s35.5 26.167 57.5 33.5zM215 131.997c4 34.667 4.33105 53.332 0.998047 55.999c-2.66699 1.33301 -4.5 2 -5.5 2s-3.66699 -1.16699 -8 -3.5l-13.5 -7
c-4.66699 -2.33301 -11.667 -5.16602 -21 -8.49902s-19.666 -6.66602 -30.999 -9.99902c-27.333 -7.33301 -45.5 -15 -54.5 -23s-13.5 -20.333 -13.5 -37c0 -18.667 4.83301 -31.834 14.5 -39.501s26.5 -11.5 50.5 -11.5c28.667 0 48.334 5.33301 59.001 16s18 32.667 22 66
zM110.998 484.995c6.66699 2.66699 24.3311 3.33105 52.998 1.99805s45.667 -3.66602 51 -6.99902c4 -2 6 -8.5 6 -19.5s7.66699 -26.5 23 -46.5c18.667 -25.333 24.334 -38.666 17.001 -39.999c-2.66699 0 -7.66699 0.666992 -15 2
c-14.667 3.33301 -28.667 8.83301 -42 16.5s-19.5 13.834 -18.5 18.501s-3.5 9.66699 -13.5 15c-18.667 8.66699 -30.667 5.66699 -36 -9l-2 -6c-0.666992 -6 -3.66699 -10.667 -9 -14s-15.666 -7 -30.999 -11c-25.333 -6.66699 -39.333 -8.33398 -42 -5.00098
c-2 2 1.33301 7.83301 10 17.5s17.5 21 26.5 34s12.833 23.167 11.5 30.5c-2 10.667 1.66699 18 11 22z" />
    <glyph glyph-name="adieresis" unicode="&#xe4;" horiz-adv-x="352" 
d="M100 333c16 4.66699 37.665 5.83203 64.998 3.49902s47.333 -7.16602 60 -14.499c18.667 -10.667 30.834 -25 36.501 -43s8.5 -51 8.5 -99c0 -56 -2.33301 -88.333 -7 -97l-14 -27c-4.66699 -9.33301 -5.5 -15.166 -2.5 -17.499s8.16699 -0.166016 15.5 6.50098
c8 8 15.167 12 21.5 12s14.833 3.33301 25.5 10c8.66699 6.66699 16.334 9 23.001 7s10 -7.66699 10 -17c0 -8 -15.333 -21 -46 -39c-42.667 -24.667 -64 -28.667 -64 -12c0 2.66699 0.333008 5.66699 1 9c2 10 1.66699 14.667 -1 14
c-34.667 -16.667 -62 -26.334 -82 -29.001s-43.333 0 -70 8c-31.333 8.66699 -52.5 27 -63.5 55s-8.83301 57.333 6.5 88c6.66699 12.667 14 21.5 22 26.5s30 13.5 66 25.5c41.333 13.333 67.166 23 77.499 29s15.5 14.333 15.5 25c0 12 -6.33301 21.167 -19 27.5
s-27.334 8.33301 -44.001 6s-30.667 -8.83301 -42 -19.5c-7.33301 -7.33301 -12.833 -14.333 -16.5 -21s-5.66699 -11.667 -6 -15s-1.66602 -5.83301 -3.99902 -7.5s-6.5 -2.16699 -12.5 -1.5c-32.667 4 -42 19.667 -28 47c10.667 21.333 28.334 39 53.001 53
c5.33301 3.33301 10.333 5.66602 15 6.99902zM217.998 137.998c6 35.333 4.66895 53.001 -3.99805 53.001c-3.33301 0 -7.66602 -2 -12.999 -6c-8.66699 -6.66699 -27.334 -14.334 -56.001 -23.001c-30.667 -9.33301 -50.5 -17.666 -59.5 -24.999s-13.5 -20 -13.5 -38
c0 -19.333 5 -32.333 15 -39c9.33301 -6.66699 24.666 -10 45.999 -10s38.333 3.33301 51 10c10.667 5.33301 17.667 11.666 21 18.999s7.66602 27 12.999 59zM85 457.999c15.333 4.66699 41.6631 6.66797 78.9961 6.00098s62.333 -3.66699 75 -9
c26.667 -11.333 34.667 -20.333 24 -27c-4 -2 -5.83301 -10.667 -5.5 -26s0.166016 -23.333 -0.500977 -24c-2.66699 -1.33301 -16.334 1 -41.001 7c-18.667 4.66699 -29.5 8.33398 -32.5 11.001s-4.16699 10 -3.5 22c0.666992 11.333 0 18 -2 20s-7.66699 3 -17 3
s-14.833 -1.16699 -16.5 -3.5s-2.16699 -9.16602 -1.5 -20.499c0.666992 -12.667 -1.16602 -20.334 -5.49902 -23.001s-22.166 -6.66699 -53.499 -12c-14 -2.66699 -21.667 -3.16699 -23 -1.5s0.333984 9.16699 5.00098 22.5
c2.66699 9.33301 2.83398 16.666 0.500977 21.999s-5.16602 9.66602 -8.49902 12.999s-3.16602 6.5 0.500977 9.5s12.5 6.5 26.5 10.5z" />
    <glyph glyph-name="ccedilla" unicode="&#xe7;" horiz-adv-x="316" 
d="M97 -27c6.66699 3.33301 12.334 5.33008 17.001 5.99707s8.66699 0.666992 12 0s9.33301 -1.66699 18 -3s18.667 -2 30 -2c20 -0.666992 34.167 -4.5 42.5 -11.5s10.833 -17.167 7.5 -30.5c-4 -15.333 -10.833 -25.166 -20.5 -29.499s-30.834 -7.16602 -63.501 -8.49902
c-52 -2 -77.667 1.66699 -77 11c0 2.66699 1.66699 5.33398 5 8.00098c5.33301 5.33301 24.666 7.5 57.999 6.5s54.333 2.16699 63 9.5c12.667 12 13.334 18.333 2.00098 19c-6.66699 1.33301 -18.667 1 -36 -1c-50 -4.66699 -76.333 -1.66699 -79 9
c-0.666992 5.33301 6.33301 11 21 17zM96 331.997c10.667 4.66699 29.333 7.00195 56 7.00195c35.333 0.666992 65.833 -8.83301 91.5 -28.5s37.167 -42.5 34.5 -68.5c-0.666992 -9.33301 -2.5 -15.833 -5.5 -19.5s-9.83301 -7.5 -20.5 -11.5
c-14.667 -4.66699 -23.5 -5.83398 -26.5 -3.50098s-4.5 10.5 -4.5 24.5c0 14.667 -2.66699 26.5 -8 35.5s-14.333 16.833 -27 23.5c-17.333 9.33301 -36 10.166 -56 2.49902s-35 -21.167 -45 -40.5c-11.333 -22.667 -16.833 -52.834 -16.5 -90.501s6.5 -65.834 18.5 -84.501
c12 -17.333 29 -27.666 51 -30.999s41.333 -1.33301 58 6s25 15.666 25 24.999c0 3.33301 6.33301 11.5 19 24.5s19.667 21.5 21 25.5c2.66699 4.66699 7.33398 5.83398 14.001 3.50098s13.5 -6.16602 20.5 -11.499s10.5 -8.33301 10.5 -9c0 -8 -7.83301 -23 -23.5 -45
s-27.834 -35.667 -36.501 -41c-21.333 -12.667 -40.333 -20.5 -57 -23.5s-37.667 -2.16699 -63 2.5c-40 6.66699 -69.333 23 -88 49s-28 63.667 -28 113c0 39.333 7.83301 74.333 23.5 105s36.5 51 62.5 61z" />
    <glyph glyph-name="egrave" unicode="&#xe8;" horiz-adv-x="312" 
d="M88 329c13.333 7.33301 32.333 10.668 57 10.001s45.667 -4.66699 63 -12c33.333 -15.333 57 -50.333 71 -105c4.66699 -18.667 7 -31 7 -37s-2.33301 -12.333 -7 -19s-11.834 -10.667 -21.501 -12s-37.167 -1.33301 -82.5 0c-62 0.666992 -96.667 2.33398 -104 5.00098
c-10.667 3.33301 -15.667 0.333008 -15 -9c0.666992 -7.33301 4.66699 -20 12 -38c10.667 -26.667 21 -44.167 31 -52.5s25.667 -12.166 47 -11.499c19.333 0 34.833 2.33301 46.5 7s17.5 11 17.5 19c0 4 1.33301 7 4 9s7.33398 4.66699 14.001 8s12.667 7.66602 18 12.999
c7.33301 6 15.5 9 24.5 9s16.5 -1.66699 22.5 -5s9 -6 9 -8c0 -7.33301 -11.167 -22.333 -33.5 -45s-39.166 -36.334 -50.499 -41.001c-30 -12.667 -60.333 -17.334 -91 -14.001s-55.334 14 -74.001 32c-16.667 16.667 -28 33.5 -34 50.5s-9 42.5 -9 76.5
c0 46.667 6 83 18 109s32 46.333 60 61zM193 272.002c-8.66699 8.66699 -16.168 14.335 -22.501 17.002s-14.5 4 -24.5 4c-17.333 0 -31 -3.33301 -41 -10c-8.66699 -6 -17.667 -19.167 -27 -39.5s-12.666 -33.833 -9.99902 -40.5s28 -9.83398 76 -9.50098
s73.333 4.16602 76 11.499c3.33301 8.66699 2.5 19 -2.5 31s-13.167 24 -24.5 36zM88.999 485.003c10.667 2.66699 28.667 3.50195 54 2.50195s40.666 -3.16699 45.999 -6.5c4.66699 -2.66699 4.5 -9.33398 -0.5 -20.001s-3 -25.334 6 -44.001s12.833 -29 11.5 -31
c-2.66699 -5.33301 -14.5 -4.33301 -35.5 3s-33.5 14.666 -37.5 21.999c-11.333 22.667 -27.666 38.334 -48.999 47.001c-12 5.33301 -17.5 10.5 -16.5 15.5s8.16699 8.83301 21.5 11.5z" />
    <glyph glyph-name="eacute" unicode="&#xe9;" horiz-adv-x="316" 
d="M90 327c24 11.333 50.8311 14.8281 80.498 10.4951s53.834 -15.166 72.501 -32.499c8 -7.33301 16.333 -21.666 25 -42.999s14.667 -41.666 18 -60.999c2 -9.33301 2.16699 -16.666 0.5 -21.999s-5.5 -11.833 -11.5 -19.5s-10.833 -12.167 -14.5 -13.5
s-8.16699 -0.666016 -13.5 2.00098c-7.33301 3.33301 -38.666 5.5 -93.999 6.5s-84 1.5 -86 1.5c-4.66699 1.33301 -7.33398 -1.33398 -8.00098 -8.00098c-0.666992 -10.667 4.66602 -27.334 15.999 -50.001c10.667 -22 20.834 -36 30.501 -42s25.5 -9 47.5 -9
c19.333 0.666992 32.166 2.5 38.499 5.5s17.5 13.167 33.5 30.5c14.667 16 24.667 25.5 30 28.5s13.333 3.16699 24 0.5c14.667 -2.66699 23.667 -5.66699 27 -9s-8.66699 -19.333 -36 -48c-19.333 -20 -33.166 -32.667 -41.499 -38s-21.5 -9.66602 -39.5 -12.999
c-30.667 -6 -60 -5.16699 -88 2.5s-48.667 20.834 -62 39.501c-10.667 15.333 -18.667 35.833 -24 61.5s-6.66602 51.167 -3.99902 76.5c4 42 11.833 73.5 23.5 94.5s30.167 37.167 55.5 48.5zM189.998 279.995c-12.667 8 -27.0029 12.333 -43.0029 13
s-29 -2.66602 -39 -9.99902c-9.33301 -6 -18.666 -18.833 -27.999 -38.5s-12.666 -32.834 -9.99902 -39.501c2.66699 -8 28.167 -11.833 76.5 -11.5s73.833 4.16602 76.5 11.499c4 10 2.33301 23.333 -5 40s-16.666 28.334 -27.999 35.001zM106.995 484.995
c6 4 23.833 4.99805 53.5 2.99805s49.5 -5.66699 59.5 -11c6.66699 -4 10.167 -6.66699 10.5 -8s-2.5 -4.33301 -8.5 -9c-8.66699 -6 -16.667 -9 -24 -9c-5.33301 0 -12.5 -5 -21.5 -15s-15.167 -20.333 -18.5 -31c-2 -5.33301 -13 -10.5 -33 -15.5s-32 -5.5 -36 -1.5
c-2.66699 2.66699 0.666016 13.667 9.99902 33c6.66699 12.667 10.334 21.667 11.001 27s-0.833008 10.833 -4.5 16.5s-5.5 9.83398 -5.5 12.501s2.33301 5.33398 7 8.00098z" />
    <glyph glyph-name="ecircumflex" unicode="&#xea;" horiz-adv-x="315" 
d="M91 329c14.667 8 34.3291 11.502 58.9961 10.502s45.667 -5.83301 63 -14.5c16.667 -8.66699 31.334 -23 44.001 -43s22 -43.333 28 -70c4.66699 -20.667 3.66699 -36 -3 -46c-4.66699 -7.33301 -11.667 -11.5 -21 -12.5s-36 -1.16699 -80 -0.5
c-60.667 0.666992 -95.667 2.33398 -105 5.00098c-12 4 -17.667 1.33301 -17 -8c0.666992 -8 5.66699 -22.333 15 -43c11.333 -26 23.666 -43.333 36.999 -52s31.333 -11.334 54 -8.00098c12.667 2 22.834 5.33301 30.501 10s17.834 13.667 30.501 27
c14 15.333 23.667 24.5 29 27.5s14 3.16699 26 0.5c16 -2.66699 24 -7.33398 24 -14.001s-12.667 -22.667 -38 -48c-16 -15.333 -28.5 -25.833 -37.5 -31.5s-20.833 -10.167 -35.5 -13.5c-33.333 -7.33301 -60.666 -8.33301 -81.999 -3s-41.666 18 -60.999 38
c-17.333 18 -29 38.333 -35 61s-7.33301 51.667 -4 87c3.33301 38 11 67.667 23 89s30.667 38.666 56 51.999zM185.995 283.002c-12.667 7.33301 -26.833 10.668 -42.5 10.001s-28.167 -5 -37.5 -13c-9.33301 -7.33301 -18.333 -20.833 -27 -40.5
s-11.334 -32.167 -8.00098 -37.5c2.66699 -4.66699 28 -7 76 -7c32 0 52.167 0.666992 60.5 2s13.5 4.66602 15.5 9.99902c2.66699 10 -0.166016 23.833 -8.49902 41.5s-17.833 29.167 -28.5 34.5zM95.9961 483.004c3.33301 3.33301 13.834 5.82812 31.501 7.49512
s35.167 0.333984 52.5 -3.99902s26 -12.166 26 -23.499c0 -8 8.83301 -23.833 26.5 -47.5s26.5 -36.5 26.5 -38.5c0 -8.66699 -15 -5.66699 -45 9c-26 12.667 -40.333 23.334 -43 32.001c-2.66699 10 -9.5 14.5 -20.5 13.5s-19.167 -6.83301 -24.5 -17.5
c-6 -11.333 -18.667 -20 -38 -26c-27.333 -8 -42.333 -10.167 -45 -6.5s4.66602 15.834 21.999 36.501c15.333 18.667 23 32.834 23 42.501s2.66699 17.167 8 22.5z" />
    <glyph glyph-name="edieresis" unicode="&#xeb;" horiz-adv-x="312" 
d="M89 331c14.667 6.66699 34.002 9.5 58.002 8.5s44 -5.5 60 -13.5c18 -8.66699 32.333 -20.5 43 -35.5s19.667 -35.833 27 -62.5c5.33301 -18.667 8 -31.334 8 -38.001s-2 -13.667 -6 -21c-0.666992 -0.666992 -1.33398 -1.66699 -2.00098 -3
c-2 -4.66699 -5.83301 -7.83398 -11.5 -9.50098s-22.334 -3 -50.001 -4s-69.834 0.166992 -126.501 3.5c-15.333 0.666992 -24.666 0.5 -27.999 -0.5s-4.66602 -4.83301 -3.99902 -11.5c1.33301 -14 7.83301 -30.833 19.5 -50.5s22.834 -32.5 33.501 -38.5
c14 -8 31.333 -10.667 52 -8c15.333 2.66699 28.5 8 39.5 16s19 16 24 24s12 14.667 21 20s19.5 7 31.5 5c16 -3.33301 24 -7.83301 24 -13.5s-12.667 -21.5 -38 -47.5c-16.667 -17.333 -29.334 -28.666 -38.001 -33.999s-21.667 -9.66602 -39 -12.999
c-74.667 -15.333 -127.334 4.66699 -158.001 60c-8.66699 16 -14 29.167 -16 39.5s-3 28.833 -3 55.5c0 39.333 3 68.333 9 87c4.66699 16.667 14 33.5 28 50.5s28 28.5 42 34.5zM194.002 272c-8.66699 8.66699 -16.167 14.333 -22.5 17s-14.833 4 -25.5 4
c-31.333 0 -54.666 -17.333 -69.999 -52c-10 -21.333 -11.5 -34.333 -4.5 -39s31.5 -7 73.5 -7c28.667 0 48.167 0.666992 58.5 2s16.166 4 17.499 8c3.33301 8.66699 2.5 19 -2.5 31s-13.167 24 -24.5 36zM79.002 462.999c49.333 11.333 94.668 10.334 136.001 -2.99902
c17.333 -5.33301 28 -10.5 32 -15.5s2.66699 -10.833 -4 -17.5c-5.33301 -5.33301 -5.5 -14 -0.5 -26s6.5 -19 4.5 -21c-2.66699 -2 -17.334 0 -44.001 6s-41 10.667 -43 14c-2.66699 4 -1.33398 9 3.99902 15c6 7.33301 7 14.166 3 20.499s-11.333 9.5 -22 9.5
c-11.333 0 -19.166 -3.16699 -23.499 -9.5s-3.5 -12.833 2.5 -19.5c11.333 -11.333 7.33301 -19.333 -12 -24c-5.33301 -2 -12.333 -3.66699 -21 -5c-16 -2 -26.833 -3 -32.5 -3s-9.16699 2 -10.5 6c-2 4.66699 -0.166992 11 5.5 19s4.16699 15.667 -4.5 23
c-7.33301 8 -9 14.167 -5 18.5s15.667 8.5 35 12.5z" />
    <glyph glyph-name="icircumflex" unicode="&#xee;" horiz-adv-x="230" 
d="M89 223l0.99707 110.999l54 -4l-1 -99c-2 -107.333 6.33301 -171 25 -191c6 -6 9.16699 -10.333 9.5 -13s-1.5 -5.66699 -5.5 -9c-6 -4.66699 -23.833 -7.83398 -53.5 -9.50098s-49.167 -0.5 -58.5 3.5c-3.33301 1.33301 -5.66602 2.33301 -6.99902 3
s-1.66602 1.83398 -0.999023 3.50098s1.83398 3.5 3.50098 5.5s4.83398 5 9.50098 9c6.66699 6 11 10.5 13 13.5s4.16699 11.667 6.5 26s3.66602 31.333 3.99902 51s0.5 52.834 0.5 99.501zM78.9971 478.999c8 0.666992 19.001 1.33105 33.001 1.99805
s27.833 -1.33301 41.5 -6s20.5 -11.334 20.5 -20.001c0 -5.33301 7.66699 -18.666 23 -39.999c18 -25.333 25.5 -40.666 22.5 -45.999s-17.5 -2 -43.5 10c-19.333 9.33301 -31 19.333 -35 30c-4 11.333 -11.833 16.5 -23.5 15.5s-18.834 -7.16699 -21.501 -18.5
c-2.66699 -10.667 -13.667 -19 -33 -25c-35.333 -10 -53 -11 -53 -3c0 1.33301 7.5 11.833 22.5 31.5s23.167 34.834 24.5 45.501c0.666992 8 2.5 13.5 5.5 16.5s8.5 5.5 16.5 7.5z" />
    <glyph glyph-name="idieresis" unicode="&#xef;" horiz-adv-x="225" 
d="M85 332c0 1.33301 9 1.33496 27 0.00195312l27 -2v-96c0 -110.667 8.66699 -175.667 26 -195c5.33301 -5.33301 8.33301 -9.33301 9 -12s-0.666016 -5.33398 -3.99902 -8.00098c-7.33301 -6 -24.333 -10 -51 -12s-45.334 -1 -56.001 3l-19 8l38 39l2 136
c0.666992 91.333 1 137.666 1 138.999zM77 458.002l62 5c6.66699 0.666992 19.334 -2.33301 38.001 -9s30.667 -12 36 -16c2.66699 -4.66699 3.16699 -7.66699 1.5 -9s-3.83398 -5.66602 -6.50098 -12.999s-3.66699 -15.666 -3 -24.999
c1.33301 -10.667 1 -16.834 -1 -18.501s-7.66699 -2.16699 -17 -1.5c-12.667 1.33301 -25.334 4.66602 -38.001 9.99902c-7.33301 3.33301 -12 6.83301 -14 10.5s-2.66699 10.5 -2 20.5c0.666992 11.333 0 18 -2 20s-8.33301 3 -19 3c-9.33301 0 -15.5 -0.833008 -18.5 -2.5
s-4.16699 -4.83398 -3.5 -9.50098l4 -22c0 -4 -2.16699 -7.66699 -6.5 -11s-12.166 -6.66602 -23.499 -9.99902c-18.667 -5.33301 -31.667 -7.16602 -39 -5.49902s-10.333 5.66699 -9 12s2 13.166 2 20.499s-1.66699 14.333 -5 21c-8 10 0 18 24 24c10.667 2 24 4 40 6z" />
    <glyph glyph-name="oacute" unicode="&#xf3;" horiz-adv-x="308" 
d="M88 325c16 8 34.832 12.667 56.499 14s42.5 -0.666992 62.5 -6c27.333 -8 49.333 -28 66 -60s25 -70 25 -114c0 -115.333 -54.333 -168.666 -163 -159.999c-38.667 3.33301 -68 16.666 -88 39.999s-32 58.333 -36 105c-3.33301 42 1.83398 79.167 15.501 111.5
s34.167 55.5 61.5 69.5zM197.999 283c-37.333 24 -69.333 19.666 -96 -13.001c-17.333 -21.333 -28 -46.666 -32 -75.999s-1 -59 9 -89c8 -25.333 17 -42 27 -50s27 -12 51 -12c16.667 0 28.334 1 35.001 3s12.667 6 18 12c11.333 12.667 19 26.5 23 41.5s6 36.5 6 64.5
c-0.666992 62 -14.334 101.667 -41.001 119zM110.999 477.999c4 6.66699 25.1699 8.50098 63.5029 5.50098s57.5 -8.16699 57.5 -15.5c0 -4.66699 -9.33301 -11.334 -28 -20.001c-12.667 -6 -21.834 -12.833 -27.501 -20.5s-8.33398 -14 -8.00098 -19
s-2.33398 -9.66699 -8.00098 -14s-15.834 -7.5 -30.501 -9.5c-21.333 -2.66699 -34 -2.33398 -38 0.999023s0 13 12 29c8 10.667 12.5 18.334 13.5 23.001s0.166992 10.667 -2.5 18c-5.33301 10.667 -6.66602 18 -3.99902 22z" />
    <glyph glyph-name="ocircumflex" unicode="&#xf4;" horiz-adv-x="306" 
d="M27 261c14.667 30.667 32.167 51.332 52.5 61.999s43.833 16 70.5 16c46 0.666992 81.833 -14.166 107.5 -44.499s38.5 -73.5 38.5 -129.5c0 -57.333 -12.333 -99.666 -37 -126.999s-62.667 -41 -114 -41c-28 0 -51.167 5.5 -69.5 16.5s-33.5 28.5 -45.5 52.5
c-9.33301 18 -15 32.167 -17 42.5s-3 29.166 -3 56.499c0 24.667 1.16699 43 3.5 55s6.83301 25.667 13.5 41zM188 286.998c-12 7.33301 -21.6709 11.332 -29.0039 11.999s-17.666 -2 -30.999 -8c-27.333 -12 -45.666 -35 -54.999 -69s-10.5 -67 -3.5 -99
s17.833 -54 32.5 -66c10.667 -8 27.334 -12.5 50.001 -13.5s39.334 2.16699 50.001 9.5c17.333 12.667 28.333 40.834 33 84.501s0.666992 79.5 -12 107.5c-10 20 -21.667 34 -35 42zM109.996 485.997c12.667 2 29.835 1.83008 51.502 -0.50293s35.167 -5.5 40.5 -9.5
s8 -10.5 8 -19.5s7.66699 -21.833 23 -38.5c27.333 -30 31 -44.333 11 -43c-2 0 -5 0.333008 -9 1c-13.333 3.33301 -26.166 9.33301 -38.499 18s-19.5 17.334 -21.5 26.001c-2.66699 9.33301 -10 13 -22 11s-19.333 -8.33301 -22 -19s-10.334 -18 -23.001 -22
c-40.667 -12 -62.334 -16 -65.001 -12c-1.33301 2 2 8.66699 10 20l25.5 38c9 14 13.5 24.333 13.5 31s1.16699 11.334 3.5 14.001s7.16602 4.33398 14.499 5.00098z" />
    <glyph glyph-name="odieresis" unicode="&#xf6;" horiz-adv-x="306" 
d="M91 326c24.667 12 52.8369 16.002 84.5039 12.002s57.167 -15 76.5 -33c17.333 -16.667 29 -34.334 35 -53.001s9 -47.667 9 -87c0 -42.667 -3.66699 -73.334 -11 -92.001s-22.333 -36 -45 -52c-12.667 -9.33301 -23.334 -15 -32.001 -17s-26.334 -3 -53.001 -3
c-26 0 -43.333 1 -52 3s-19.334 7 -32.001 15c-23.333 15.333 -39.833 38.166 -49.5 68.499s-13.834 59 -12.501 86s5.66602 50.167 12.999 69.5c8 22.667 16.833 39.834 26.5 51.501s23.834 22.167 42.501 31.5zM202.003 281.002c-4 4 -9.99902 7.5 -17.999 10.5
s-17.833 4.83301 -29.5 5.5s-24 -3.33301 -37 -12s-24.5 -22.334 -34.5 -41.001c-6.66699 -12.667 -10.167 -38.5 -10.5 -77.5s2.5 -64.833 8.5 -77.5c10 -18 19.667 -30.167 29 -36.5s23.666 -9.5 42.999 -9.5c23.333 0 40 3.33301 50 10s19 20 27 40
c10.667 28.667 13 63.334 7 104.001s-17.667 68.667 -35 84zM121.004 464.002l61.0029 6.00195c6 0.666992 18.5 -2.33301 37.5 -9s30.833 -12.334 35.5 -17.001c3.33301 -4 4.16602 -6.66699 2.49902 -8s-3.83398 -5.66602 -6.50098 -12.999s-3.66699 -15.666 -3 -24.999
c1.33301 -12.667 -0.666992 -19.5 -6 -20.5s-20 2.16699 -44 9.5c-12 4 -19 7.33301 -21 10s-2.5 9.66699 -1.5 21s0.5 18.166 -1.5 20.499s-8.33301 4.16602 -19 5.49902c-12 0.666992 -19.833 -1.83301 -23.5 -7.5s-2.83398 -13.834 2.49902 -24.501
c4.66699 -8 3.66699 -14 -3 -18s-21.667 -7.66699 -45 -11l-31 -5l4 24c2.66699 16 0.333984 26.667 -6.99902 32c-6 4 -8.83301 6.83301 -8.5 8.5s4.16602 4.5 11.499 8.5c10.667 6 32.667 10.333 66 13z" />
    <glyph glyph-name="ugrave" unicode="&#xf9;" horiz-adv-x="305" 
d="M208 236l-1.99902 110.006h18c6 0 10.833 -0.5 14.5 -1.5s7 -3.66699 10 -8s5.33301 -9.5 7 -15.5s3 -15.333 4 -28s1.66699 -26.334 2 -41.001s0.5 -34.334 0.5 -59.001v-123l16 -12c11.333 -8.66699 17 -15 17 -19c0 -5.33301 -12.833 -12 -38.5 -20
s-49.167 -12.667 -70.5 -14c-52 -4 -89.667 -3.33301 -113 2s-41 16.666 -53 33.999c-5.33301 8 -8.5 20.167 -9.5 36.5s-0.833008 53.166 0.5 110.499c1.33301 85.333 4.16602 131.833 8.49902 139.5s13.5 11.5 27.5 11.5h21v-135c0 -78.667 2.66699 -124.334 8 -137.001
c4.66699 -10.667 16.667 -16.334 36 -17.001h16c24.667 0 42.5 5 53.5 15s18.5 27.5 22.5 52.5s5.33301 64.5 4 118.5zM243.001 38.0059c6 11.333 6.66797 16.666 2.00098 15.999c-6.66699 -2 -13.334 -8.66699 -20.001 -20c-2 -2.66699 -3 -4.66699 -3 -6
c0 -6.66699 4 -7 12 -1c3.33301 2.66699 6.33301 6.33398 9 11.001zM80.002 450.006c-32 14.667 -28.667 23.333 10 26c36.667 2.66699 65.667 1.33398 87 -3.99902c2 -0.666992 3 -1.33398 3 -2.00098c2.66699 -4 1.5 -9 -3.5 -15s-1.83301 -20 9.5 -42
c9.33301 -19.333 12.5 -31.333 9.5 -36s-14.167 -4 -33.5 2c-16 5.33301 -30.5 17 -43.5 35s-25.833 30 -38.5 36z" />
    <glyph glyph-name="uacute" unicode="&#xfa;" horiz-adv-x="305" 
d="M201 340.5c2 3 9.99805 4.16602 23.998 3.49902c6 -0.666992 10.833 -1.5 14.5 -2.5s7.16699 -3.66699 10.5 -8s5.66602 -9.5 6.99902 -15.5s2.5 -15 3.5 -27s1.66699 -25.167 2 -39.5s0.5 -33.166 0.5 -56.499c-0.666992 -81.333 0.333008 -125 3 -131
c1.33301 -2 5.66602 -4.33301 12.999 -7c17.333 -6.66699 19.333 -14.334 6 -23.001c-6 -4.66699 -17 -10.667 -33 -18c-16.667 -7.33301 -28.667 -11.833 -36 -13.5s-11.833 -1.5 -13.5 0.5s-5.5 3.33301 -11.5 4s-16.333 -0.333008 -31 -3
c-30 -6.66699 -59.167 -5.66699 -87.5 3s-47.166 22.667 -56.499 42c-5.33301 9.33301 -7.16602 57 -5.49902 143s4.83398 132.333 9.50098 139c4.66699 5.33301 14 8 28 8h21l-2 -129c-0.666992 -81.333 2 -128.666 8 -141.999c4.66699 -11.333 16.667 -17.333 36 -18h11
c21.333 0 36.833 2.16699 46.5 6.5s17.834 12.833 24.501 25.5c6 11.333 10.5 45.5 13.5 102.5s2.33301 96.5 -2 118.5s-5.5 34.5 -3.5 37.5zM249.998 50.999c0 4 -2 6.00098 -6 6.00098c-4.66699 0 -9.5 -3.33301 -14.5 -10s-6.33301 -11.334 -4 -14.001s7 -1.5 14 3.5
s10.5 9.83301 10.5 14.5zM96.998 477c14.667 8.66699 41.334 8.66406 80.001 -0.00292969c12.667 -3.33301 21.5 -6.66602 26.5 -9.99902s6.33301 -6.66602 4 -9.99902s-8.5 -7.33301 -18.5 -12c-14 -6.66699 -25 -18 -33 -34c-5.33301 -10.667 -10.5 -17.667 -15.5 -21
s-14.833 -6 -29.5 -8c-22 -2.66699 -34 -3 -36 -1s-0.666992 7.33301 4 16s9 18.667 13 30s4.33301 20.666 1 27.999c-2.66699 6.66699 -3.83398 11.334 -3.50098 14.001s2.83301 5.33398 7.5 8.00098z" />
    <glyph glyph-name="ucircumflex" unicode="&#xfb;" horiz-adv-x="303" 
d="M17.5 327.5c4.33301 8.33301 13.502 11.832 27.502 10.499l21 -2l-1 -131c-1.33301 -79.333 0.666992 -125 6 -137c5.33301 -11.333 17.333 -17.333 36 -18h15c15.333 0 26.666 1 33.999 3s14.333 6.33301 21 13c12.667 12 21 29.167 25 51.5s5.33301 62.166 4 119.499
l-3 102h22c14.667 0 24.334 -4.16699 29.001 -12.5s7 -54.166 7 -137.499v-124l16 -7c10.667 -5.33301 16 -10.333 16 -15c0 -6.66699 -14.833 -16 -44.5 -28s-46.834 -15.333 -51.501 -10c-4.66699 4 -17.667 3.66699 -39 -1c-28 -6.66699 -55.333 -6.5 -82 0.5
s-45.334 18.833 -56.001 35.5c-4.66699 7.33301 -7.5 19.833 -8.5 37.5s-1.5 53.834 -1.5 108.501c0.666992 86 3.16699 133.167 7.5 141.5zM247.002 46.999c0 6.66699 -2.00195 10.001 -6.00195 10.001s-8.16699 -4.16699 -12.5 -12.5s-5.16602 -13.833 -2.49902 -16.5
c2.66699 -3.33301 6.83398 -2.33301 12.501 3s8.5 10.666 8.5 15.999zM99 479c27.333 6 53.6689 3.66113 79.002 -7.00586c12 -4.66699 16 -9.66699 12 -15c-1.33301 -3.33301 6.66699 -17.5 24 -42.5s25.333 -38.5 24 -40.5c-4.66699 -8 -17.334 -7.16699 -38.001 2.5
s-33.667 20.834 -39 33.501c-2 6.66699 -6.83301 11.334 -14.5 14.001s-14.667 3 -21 1s-9.5 -6.33301 -9.5 -13c0 -7.33301 -2.5 -13 -7.5 -17s-15.833 -8.66699 -32.5 -14c-8.66699 -3.33301 -16.5 -5.66602 -23.5 -6.99902s-12.5 -1.66602 -16.5 -0.999023
s-6 2.33398 -6 5.00098s6.5 12.5 19.5 29.5s21.167 31.833 24.5 44.5c2.66699 8.66699 5.66699 14.834 9 18.501s8.66602 6.5 15.999 8.5z" />
    <glyph glyph-name="udieresis" unicode="&#xfc;" horiz-adv-x="302" 
d="M19.5 327.5c4.33301 7.66699 13.501 11.501 27.501 11.501h21l-1 -130c-0.666992 -81.333 1.66602 -128.333 6.99902 -141c4.66699 -11.333 16.334 -17.333 35.001 -18h14c16 0 28.667 1.5 38 4.5s17.5 8 24.5 15s12.167 18 15.5 33s5.5 32.667 6.5 53
s1.16699 47.166 0.5 80.499l-2 103h22c8 0 14.167 -1.5 18.5 -4.5s7.83301 -9.66699 10.5 -20s4 -25.333 4 -45v-80.5l-2 -114l19 -15c12 -9.33301 16.167 -16.333 12.5 -21s-18.5 -12.667 -44.5 -24c-14.667 -6 -25.5 -9.66699 -32.5 -11s-11.5 -1.16602 -13.5 0.500977
s-6 2.66699 -12 3s-15.667 -0.833984 -29 -3.50098c-26 -6 -51.833 -6 -77.5 0s-45.5 17 -59.5 33c-6.66699 6.66699 -10.5 17.167 -11.5 31.5s-0.833008 52.833 0.5 115.5c1.33301 88 4.16602 135.833 8.49902 143.5zM249.001 51.001
c0 7.33301 -3.66699 8.33496 -11 3.00195c-3.33301 -2.66699 -6.33301 -6.33398 -9 -11.001c-4.66699 -8.66699 -5.16699 -13 -1.5 -13s8.16699 2.66699 13.5 8s8 9.66602 8 12.999zM130.001 460.003c5.33301 0.666992 11.667 1.33008 19 1.99707s11.833 1 13.5 1
s5 -0.166992 10 -0.5s9.5 -1.16602 13.5 -2.49902s10 -3.66602 18 -6.99902c29.333 -10.667 38.333 -20.667 27 -30c-0.666992 -0.666992 -1.33398 -1 -2.00098 -1c-4 -2.66699 -4.66699 -10.334 -2 -23.001s0.333984 -20.5 -6.99902 -23.5s-21 -1.5 -41 4.5
c-12.667 4 -20.5 7.33301 -23.5 10s-3.83301 6.66699 -2.5 12c4.66699 14.667 6.16699 23.834 4.5 27.501s-8.5 5.5 -20.5 5.5c-11.333 0 -18 -1.16699 -20 -3.5s-2.66699 -9.16602 -2 -20.499c0.666992 -12 -0.333008 -19.333 -3 -22s-12 -6 -28 -10
c-17.333 -4 -29.166 -5.16699 -35.499 -3.5s-8.83301 5.66699 -7.5 12s2.16602 13.166 2.49902 20.499s-1.5 14.333 -5.5 21c-9.33301 10.667 -2 18.334 22 23.001c14.667 3.33301 38 6 70 8z" />
    <glyph glyph-name="eogonek" unicode="&#x119;" horiz-adv-x="10" 
 />
    <glyph glyph-name="quotedblleft" unicode="&#x201c;" horiz-adv-x="228" 
d="M106 488c8.66699 -2.66699 14.332 -2.99512 16.999 -0.995117s5.16699 4.16699 7.5 6.5s4.83301 4.5 7.5 6.5s8.5 1.66699 17.5 -1s21.5 -8 37.5 -16c22 -10.667 29.667 -20 23 -28c-2 -2.66699 -5 -4.66699 -9 -6c-4 -0.666992 -8.16699 -1.83398 -12.5 -3.50098
s-7.5 -2.83398 -9.5 -3.50098s-4.16699 -1 -6.5 -1s-4.16602 0.833008 -5.49902 2.5s-2.33301 4.5 -3 8.5c-2.66699 9.33301 -7.66699 13.333 -15 12c-20.667 -4.66699 -16.334 -20.334 12.999 -47.001c14.667 -13.333 23.334 -22.833 26.001 -28.5s4 -17.834 4 -36.501v-39
l-28 4c-18.667 3.33301 -30.334 7 -35.001 11c-4 3.33301 -6.33301 16.666 -7 39.999s-2.16699 45.833 -4.5 67.5s-7.66602 33.167 -15.999 34.5s-19.5 -6 -33.5 -22c-25.333 -28.667 -26.333 -43 -3 -43c8.66699 0 13.834 -1.5 15.501 -4.5s2.5 -13.5 2.5 -31.5
c0 -23.333 -1 -36 -3 -38s-14 -4 -36 -6l-32 -2l2 31c0.666992 14 0 26.333 -2 37s-4 18.167 -6 22.5s-2.5 10 -1.5 17s4.16699 15.833 9.5 26.5s10.5 18 15.5 22s13.167 7 24.5 9c17.333 2.66699 32.666 2.66699 45.999 0z" />
    <glyph glyph-name="quotedblbase" unicode="&#x201e;" horiz-adv-x="239" 
d="M61 496c37.333 4.66699 64.5059 6.66602 81.5059 5.99902s33.833 -3.66699 50.5 -9c19.333 -6 30.666 -11.333 33.999 -16s0.333008 -11.667 -9 -21c-8 -7.33301 -11.333 -17.166 -10 -29.499s3.16602 -23.5 5.49902 -33.5s-2.5 -22 -14.5 -36
c-9.33301 -10 -14 -17.667 -14 -23c0 -10 -7.66699 -10.667 -23 -2c-2.66699 1.33301 -5.33398 3 -8.00098 5c-10 7.33301 -14.5 13.166 -13.5 17.499s3.83301 8.83301 8.5 13.5s9.66699 9 15 13s7.66602 9.16699 6.99902 15.5s-6 13.166 -16 20.499
c-7.33301 5.33301 -11.5 9.66602 -12.5 12.999s-0.166992 9 2.5 17c4 10 3.83301 16.667 -0.5 20s-14.166 4.33301 -29.499 3h-2c-8.66699 -1.33301 -13.334 -4.33301 -14.001 -9s0.333008 -20.667 3 -48c0.666992 -3.33301 1 -6 1 -8c1.33301 -12.667 1 -22.167 -1 -28.5
s-8 -15.166 -18 -26.499c-10.667 -12.667 -18 -19.834 -22 -21.501s-10 -0.5 -18 3.5l-18 7l21 24c13.333 15.333 20 24.833 20 28.5s1.33301 9.5 4 17.5c0.666992 2 1.16699 3.66699 1.5 5s-0.5 2.33301 -2.5 3s-4.66699 0.833984 -8 0.500977s-8 -1.16602 -14 -2.49902
l-28 -4l4 20c3.33301 14 1 25.333 -7 34c-10.667 12.667 -7.33398 21.334 9.99902 26.001c7.33301 2 18.666 3.66699 33.999 5z" />
    <glyph glyph-name="bullet" unicode="&#x2022;" horiz-adv-x="136" 
d="M31 291c10.667 11.333 22.833 16.667 36.5 16s26.5 -7.16699 38.5 -19.5s18.5 -25.333 19.5 -39s-4.16699 -26.167 -15.5 -37.5c-16 -16 -33 -22.833 -51 -20.5s-32 12.833 -42 31.5c-12.667 24.667 -8 47.667 14 69z" />
    <glyph glyph-name="Euro" unicode="&#x20ac;" horiz-adv-x="10" 
 />
    <glyph glyph-name=".null" horiz-adv-x="0" 
 />
    <glyph glyph-name="nonmarkingreturn" horiz-adv-x="333" 
 />
  </font>
</defs>
</svg>
